%TF.GenerationSoftware,KiCad,Pcbnew,10.0.3*%
%TF.CreationDate,2026-09-24T23:08:38-06:00*%
%TF.ProjectId,Calculator,43616c63-756c-4617-946f-722e6b696361,rev?*%
%TF.SameCoordinates,Original*%
%TF.FileFunction,Soldermask,Top*%
%TF.FilePolarity,Negative*%
%FSLAX46Y46*%
G04 Gerber Fmt 4.6, Leading zero omitted, Abs format (unit mm)*
G04 Created by KiCad (PCBNEW 10.0.3) date 2026-09-24 23:08:38*
%MOMM*%
%LPD*%
G01*
G04 APERTURE LIST*
%ADD10C,0.100000*%
%ADD11O,1.524000X1.900000*%
%ADD12C,1.701800*%
%ADD13C,3.987800*%
G04 APERTURE END LIST*
%TO.C,TP5*%
D10*
X39500000Y-73750000D02*
X39500000Y-73750000D01*
G75*
G02*
X40500000Y-72750000I1000000J0D01*
G01*
X42500000Y-72750000D01*
G75*
G02*
X43500000Y-73750000I0J-1000000D01*
G01*
X43500000Y-82250000D01*
G75*
G02*
X42500000Y-83250000I-1000000J0D01*
G01*
X40500000Y-83250000D01*
G75*
G02*
X39500000Y-82250000I0J1000000D01*
G01*
X39500000Y-73750000D01*
G36*
X39500000Y-73750000D02*
G01*
X39500000Y-73750000D01*
G75*
G02*
X40500000Y-72750000I1000000J0D01*
G01*
X42500000Y-72750000D01*
G75*
G02*
X43500000Y-73750000I0J-1000000D01*
G01*
X43500000Y-82250000D01*
G75*
G02*
X42500000Y-83250000I-1000000J0D01*
G01*
X40500000Y-83250000D01*
G75*
G02*
X39500000Y-82250000I0J1000000D01*
G01*
X39500000Y-73750000D01*
G37*
%TO.C,TP2*%
X36000000Y-86750000D02*
X36000000Y-86750000D01*
G75*
G02*
X37000000Y-85750000I1000000J0D01*
G01*
X39000000Y-85750000D01*
G75*
G02*
X40000000Y-86750000I0J-1000000D01*
G01*
X40000000Y-95250000D01*
G75*
G02*
X39000000Y-96250000I-1000000J0D01*
G01*
X37000000Y-96250000D01*
G75*
G02*
X36000000Y-95250000I0J1000000D01*
G01*
X36000000Y-86750000D01*
G36*
X36000000Y-86750000D02*
G01*
X36000000Y-86750000D01*
G75*
G02*
X37000000Y-85750000I1000000J0D01*
G01*
X39000000Y-85750000D01*
G75*
G02*
X40000000Y-86750000I0J-1000000D01*
G01*
X40000000Y-95250000D01*
G75*
G02*
X39000000Y-96250000I-1000000J0D01*
G01*
X37000000Y-96250000D01*
G75*
G02*
X36000000Y-95250000I0J1000000D01*
G01*
X36000000Y-86750000D01*
G37*
%TO.C,TP8*%
X46000000Y-73750000D02*
X46000000Y-73750000D01*
G75*
G02*
X47000000Y-72750000I1000000J0D01*
G01*
X49000000Y-72750000D01*
G75*
G02*
X50000000Y-73750000I0J-1000000D01*
G01*
X50000000Y-82250000D01*
G75*
G02*
X49000000Y-83250000I-1000000J0D01*
G01*
X47000000Y-83250000D01*
G75*
G02*
X46000000Y-82250000I0J1000000D01*
G01*
X46000000Y-73750000D01*
G36*
X46000000Y-73750000D02*
G01*
X46000000Y-73750000D01*
G75*
G02*
X47000000Y-72750000I1000000J0D01*
G01*
X49000000Y-72750000D01*
G75*
G02*
X50000000Y-73750000I0J-1000000D01*
G01*
X50000000Y-82250000D01*
G75*
G02*
X49000000Y-83250000I-1000000J0D01*
G01*
X47000000Y-83250000D01*
G75*
G02*
X46000000Y-82250000I0J1000000D01*
G01*
X46000000Y-73750000D01*
G37*
%TO.C,TP3*%
X42500000Y-86750000D02*
X42500000Y-86750000D01*
G75*
G02*
X43500000Y-85750000I1000000J0D01*
G01*
X45500000Y-85750000D01*
G75*
G02*
X46500000Y-86750000I0J-1000000D01*
G01*
X46500000Y-95250000D01*
G75*
G02*
X45500000Y-96250000I-1000000J0D01*
G01*
X43500000Y-96250000D01*
G75*
G02*
X42500000Y-95250000I0J1000000D01*
G01*
X42500000Y-86750000D01*
G36*
X42500000Y-86750000D02*
G01*
X42500000Y-86750000D01*
G75*
G02*
X43500000Y-85750000I1000000J0D01*
G01*
X45500000Y-85750000D01*
G75*
G02*
X46500000Y-86750000I0J-1000000D01*
G01*
X46500000Y-95250000D01*
G75*
G02*
X45500000Y-96250000I-1000000J0D01*
G01*
X43500000Y-96250000D01*
G75*
G02*
X42500000Y-95250000I0J1000000D01*
G01*
X42500000Y-86750000D01*
G37*
%TO.C,TP6*%
X49000000Y-86750000D02*
X49000000Y-86750000D01*
G75*
G02*
X50000000Y-85750000I1000000J0D01*
G01*
X52000000Y-85750000D01*
G75*
G02*
X53000000Y-86750000I0J-1000000D01*
G01*
X53000000Y-95250000D01*
G75*
G02*
X52000000Y-96250000I-1000000J0D01*
G01*
X50000000Y-96250000D01*
G75*
G02*
X49000000Y-95250000I0J1000000D01*
G01*
X49000000Y-86750000D01*
G36*
X49000000Y-86750000D02*
G01*
X49000000Y-86750000D01*
G75*
G02*
X50000000Y-85750000I1000000J0D01*
G01*
X52000000Y-85750000D01*
G75*
G02*
X53000000Y-86750000I0J-1000000D01*
G01*
X53000000Y-95250000D01*
G75*
G02*
X52000000Y-96250000I-1000000J0D01*
G01*
X50000000Y-96250000D01*
G75*
G02*
X49000000Y-95250000I0J1000000D01*
G01*
X49000000Y-86750000D01*
G37*
%TO.C,TP9*%
X52500000Y-73750000D02*
X52500000Y-73750000D01*
G75*
G02*
X53500000Y-72750000I1000000J0D01*
G01*
X55500000Y-72750000D01*
G75*
G02*
X56500000Y-73750000I0J-1000000D01*
G01*
X56500000Y-82250000D01*
G75*
G02*
X55500000Y-83250000I-1000000J0D01*
G01*
X53500000Y-83250000D01*
G75*
G02*
X52500000Y-82250000I0J1000000D01*
G01*
X52500000Y-73750000D01*
G36*
X52500000Y-73750000D02*
G01*
X52500000Y-73750000D01*
G75*
G02*
X53500000Y-72750000I1000000J0D01*
G01*
X55500000Y-72750000D01*
G75*
G02*
X56500000Y-73750000I0J-1000000D01*
G01*
X56500000Y-82250000D01*
G75*
G02*
X55500000Y-83250000I-1000000J0D01*
G01*
X53500000Y-83250000D01*
G75*
G02*
X52500000Y-82250000I0J1000000D01*
G01*
X52500000Y-73750000D01*
G37*
%TO.C,TP7*%
X55500000Y-86750000D02*
X55500000Y-86750000D01*
G75*
G02*
X56500000Y-85750000I1000000J0D01*
G01*
X58500000Y-85750000D01*
G75*
G02*
X59500000Y-86750000I0J-1000000D01*
G01*
X59500000Y-95250000D01*
G75*
G02*
X58500000Y-96250000I-1000000J0D01*
G01*
X56500000Y-96250000D01*
G75*
G02*
X55500000Y-95250000I0J1000000D01*
G01*
X55500000Y-86750000D01*
G36*
X55500000Y-86750000D02*
G01*
X55500000Y-86750000D01*
G75*
G02*
X56500000Y-85750000I1000000J0D01*
G01*
X58500000Y-85750000D01*
G75*
G02*
X59500000Y-86750000I0J-1000000D01*
G01*
X59500000Y-95250000D01*
G75*
G02*
X58500000Y-96250000I-1000000J0D01*
G01*
X56500000Y-96250000D01*
G75*
G02*
X55500000Y-95250000I0J1000000D01*
G01*
X55500000Y-86750000D01*
G37*
%TO.C,TP4*%
X33000000Y-73750000D02*
X33000000Y-73750000D01*
G75*
G02*
X34000000Y-72750000I1000000J0D01*
G01*
X36000000Y-72750000D01*
G75*
G02*
X37000000Y-73750000I0J-1000000D01*
G01*
X37000000Y-82250000D01*
G75*
G02*
X36000000Y-83250000I-1000000J0D01*
G01*
X34000000Y-83250000D01*
G75*
G02*
X33000000Y-82250000I0J1000000D01*
G01*
X33000000Y-73750000D01*
G36*
X33000000Y-73750000D02*
G01*
X33000000Y-73750000D01*
G75*
G02*
X34000000Y-72750000I1000000J0D01*
G01*
X36000000Y-72750000D01*
G75*
G02*
X37000000Y-73750000I0J-1000000D01*
G01*
X37000000Y-82250000D01*
G75*
G02*
X36000000Y-83250000I-1000000J0D01*
G01*
X34000000Y-83250000D01*
G75*
G02*
X33000000Y-82250000I0J1000000D01*
G01*
X33000000Y-73750000D01*
G37*
%TO.C,TP1*%
X29500000Y-86750000D02*
X29500000Y-86750000D01*
G75*
G02*
X30500000Y-85750000I1000000J0D01*
G01*
X32500000Y-85750000D01*
G75*
G02*
X33500000Y-86750000I0J-1000000D01*
G01*
X33500000Y-95250000D01*
G75*
G02*
X32500000Y-96250000I-1000000J0D01*
G01*
X30500000Y-96250000D01*
G75*
G02*
X29500000Y-95250000I0J1000000D01*
G01*
X29500000Y-86750000D01*
G36*
X29500000Y-86750000D02*
G01*
X29500000Y-86750000D01*
G75*
G02*
X30500000Y-85750000I1000000J0D01*
G01*
X32500000Y-85750000D01*
G75*
G02*
X33500000Y-86750000I0J-1000000D01*
G01*
X33500000Y-95250000D01*
G75*
G02*
X32500000Y-96250000I-1000000J0D01*
G01*
X30500000Y-96250000D01*
G75*
G02*
X29500000Y-95250000I0J1000000D01*
G01*
X29500000Y-86750000D01*
G37*
%TD*%
D11*
%TO.C,U1*%
X34812277Y-23044920D03*
X37352277Y-23044920D03*
X39892277Y-23044920D03*
X42432277Y-23044920D03*
X44972277Y-23044920D03*
X47512277Y-23044920D03*
X50052277Y-23044920D03*
X52592277Y-23044920D03*
X55132277Y-23044920D03*
X57672277Y-23044920D03*
X60212277Y-23044920D03*
X62752277Y-23044920D03*
X65292277Y-23044920D03*
X67832277Y-23044920D03*
X70372277Y-23044920D03*
X34812277Y-48444920D03*
X37352277Y-48444920D03*
X39892277Y-48444920D03*
X42432277Y-48444920D03*
X44972277Y-48444920D03*
X47512277Y-48444920D03*
X50052277Y-48444920D03*
X52592277Y-48444920D03*
X55132277Y-48444920D03*
X57672277Y-48444920D03*
X60212277Y-48444920D03*
X62752277Y-48444920D03*
X65292277Y-48444920D03*
X67832277Y-48444920D03*
X70372277Y-48444920D03*
%TD*%
D12*
%TO.C,SW20*%
X167500000Y-34580000D03*
D13*
X167500000Y-29500000D03*
D12*
X167500000Y-24420000D03*
%TD*%
%TO.C,SW19*%
X148000000Y-34580000D03*
D13*
X148000000Y-29500000D03*
D12*
X148000000Y-24420000D03*
%TD*%
%TO.C,SW18*%
X128500000Y-34580000D03*
D13*
X128500000Y-29500000D03*
D12*
X128500000Y-24420000D03*
%TD*%
%TO.C,SW17*%
X109000000Y-34580000D03*
D13*
X109000000Y-29500000D03*
D12*
X109000000Y-24420000D03*
%TD*%
%TO.C,SW16*%
X89500000Y-34580000D03*
D13*
X89500000Y-29500000D03*
D12*
X89500000Y-24420000D03*
%TD*%
%TO.C,SW15*%
X167500000Y-54080000D03*
D13*
X167500000Y-49000000D03*
D12*
X167500000Y-43920000D03*
%TD*%
%TO.C,SW14*%
X148000000Y-54080000D03*
D13*
X148000000Y-49000000D03*
D12*
X148000000Y-43920000D03*
%TD*%
%TO.C,SW13*%
X128500000Y-54080000D03*
D13*
X128500000Y-49000000D03*
D12*
X128500000Y-43920000D03*
%TD*%
%TO.C,SW12*%
X109000000Y-54080000D03*
D13*
X109000000Y-49000000D03*
D12*
X109000000Y-43920000D03*
%TD*%
%TO.C,SW11*%
X89500000Y-54080000D03*
D13*
X89500000Y-49000000D03*
D12*
X89500000Y-43920000D03*
%TD*%
%TO.C,SW10*%
X167500000Y-73580000D03*
D13*
X167500000Y-68500000D03*
D12*
X167500000Y-63420000D03*
%TD*%
%TO.C,SW9*%
X148000000Y-73580000D03*
D13*
X148000000Y-68500000D03*
D12*
X148000000Y-63420000D03*
%TD*%
%TO.C,SW8*%
X128500000Y-73580000D03*
D13*
X128500000Y-68500000D03*
D12*
X128500000Y-63420000D03*
%TD*%
%TO.C,SW7*%
X109000000Y-73580000D03*
D13*
X109000000Y-68500000D03*
D12*
X109000000Y-63420000D03*
%TD*%
%TO.C,SW6*%
X89500000Y-73580000D03*
D13*
X89500000Y-68500000D03*
D12*
X89500000Y-63420000D03*
%TD*%
%TO.C,SW5*%
X167500000Y-93080000D03*
D13*
X167500000Y-88000000D03*
D12*
X167500000Y-82920000D03*
%TD*%
%TO.C,SW4*%
X148000000Y-93080000D03*
D13*
X148000000Y-88000000D03*
D12*
X148000000Y-82920000D03*
%TD*%
%TO.C,SW3*%
X128500000Y-93080000D03*
D13*
X128500000Y-88000000D03*
D12*
X128500000Y-82920000D03*
%TD*%
%TO.C,SW2*%
X109000000Y-93080000D03*
D13*
X109000000Y-88000000D03*
D12*
X109000000Y-82920000D03*
%TD*%
%TO.C,SW1*%
X89500000Y-93080000D03*
D13*
X89500000Y-88000000D03*
D12*
X89500000Y-82920000D03*
%TD*%
M02*
