M48
; DRILL file KiCad 10.0.3 date 2026-09-24T23:02:39
; FORMAT={-:-/ absolute / metric / decimal}
; #@! TF.CreationDate,2026-09-24T23:02:39-06:00
; #@! TF.GenerationSoftware,Kicad,Pcbnew,10.0.3
; #@! TF.FileFunction,Plated,1,2,PTH
FMAT,2
METRIC
; #@! TA.AperFunction,Plated,PTH,ComponentDrill
T1C0.800
; #@! TA.AperFunction,Plated,PTH,ComponentDrill
T2C1.524
%
G90
G05
T1
X34.812Y-23.045
X34.812Y-48.445
X37.352Y-23.045
X37.352Y-48.445
X39.892Y-23.045
X39.892Y-48.445
X42.432Y-23.045
X42.432Y-48.445
X44.972Y-23.045
X44.972Y-48.445
X47.512Y-23.045
X47.512Y-48.445
X50.052Y-23.045
X50.052Y-48.445
X52.592Y-23.045
X52.592Y-48.445
X55.132Y-23.045
X55.132Y-48.445
X57.672Y-23.045
X57.672Y-48.445
X60.212Y-23.045
X60.212Y-48.445
X62.752Y-23.045
X62.752Y-48.445
X65.292Y-23.045
X65.292Y-48.445
X67.832Y-23.045
X67.832Y-48.445
X70.372Y-23.045
X70.372Y-48.445
T2
X84.42Y-26.96
X84.42Y-46.46
X84.42Y-65.96
X84.42Y-85.46
X86.96Y-33.31
X86.96Y-52.81
X86.96Y-72.31
X86.96Y-91.81
X103.92Y-26.96
X103.92Y-46.46
X103.92Y-65.96
X103.92Y-85.46
X106.46Y-33.31
X106.46Y-52.81
X106.46Y-72.31
X106.46Y-91.81
X123.42Y-26.96
X123.42Y-46.46
X123.42Y-65.96
X123.42Y-85.46
X125.96Y-33.31
X125.96Y-52.81
X125.96Y-72.31
X125.96Y-91.81
X142.92Y-26.96
X142.92Y-46.46
X142.92Y-65.96
X142.92Y-85.46
X145.46Y-33.31
X145.46Y-52.81
X145.46Y-72.31
X145.46Y-91.81
X162.42Y-26.96
X162.42Y-46.46
X162.42Y-65.96
X162.42Y-85.46
X164.96Y-33.31
X164.96Y-52.81
X164.96Y-72.31
X164.96Y-91.81
M30
