%TF.GenerationSoftware,KiCad,Pcbnew,10.0.3*%
%TF.CreationDate,2026-09-24T23:08:38-06:00*%
%TF.ProjectId,Calculator,43616c63-756c-4617-946f-722e6b696361,rev?*%
%TF.SameCoordinates,Original*%
%TF.FileFunction,Copper,L2,Bot*%
%TF.FilePolarity,Positive*%
%FSLAX46Y46*%
G04 Gerber Fmt 4.6, Leading zero omitted, Abs format (unit mm)*
G04 Created by KiCad (PCBNEW 10.0.3) date 2026-09-24 23:08:38*
%MOMM*%
%LPD*%
G01*
G04 APERTURE LIST*
%TA.AperFunction,ComponentPad*%
%ADD10O,1.524000X1.900000*%
%TD*%
%TA.AperFunction,ComponentPad*%
%ADD11C,2.300000*%
%TD*%
%TA.AperFunction,Conductor*%
%ADD12C,0.200000*%
%TD*%
G04 APERTURE END LIST*
D10*
%TO.P,U1,1,VIN_1*%
%TO.N,unconnected-(U1-VIN-Pad1)*%
X34812277Y-23044920D03*
%TO.P,U1,2,GND_2*%
%TO.N,unconnected-(U1-GND-Pad2)*%
X37352277Y-23044920D03*
%TO.P,U1,3,GPIO13_3*%
%TO.N,/Col 1*%
X39892277Y-23044920D03*
%TO.P,U1,4,GPIO12_4*%
%TO.N,unconnected-(U1-GPIO12-Pad4)*%
X42432277Y-23044920D03*
%TO.P,U1,5,GPIO14_5*%
%TO.N,/Col 3*%
X44972277Y-23044920D03*
%TO.P,U1,6,GPIO27_6*%
%TO.N,/Col 4*%
X47512277Y-23044920D03*
%TO.P,U1,7,GPIO26_7*%
%TO.N,/Row A*%
X50052277Y-23044920D03*
%TO.P,U1,8,GPIO25_8*%
%TO.N,/Row B*%
X52592277Y-23044920D03*
%TO.P,U1,9,GPIO33_9*%
%TO.N,/Row C*%
X55132277Y-23044920D03*
%TO.P,U1,10,GPIO32_10*%
%TO.N,/Row D*%
X57672277Y-23044920D03*
%TO.P,U1,11,GPIO35_11*%
%TO.N,unconnected-(U1-GPIO35-Pad11)*%
X60212277Y-23044920D03*
%TO.P,U1,12,GPIO34_12*%
%TO.N,unconnected-(U1-GPIO34-Pad12)*%
X62752277Y-23044920D03*
%TO.P,U1,13,GPIO39_13*%
%TO.N,unconnected-(U1-GPIO39-Pad13)*%
X65292277Y-23044920D03*
%TO.P,U1,14,GPIO36_14*%
%TO.N,unconnected-(U1-GPIO36-Pad14)*%
X67832277Y-23044920D03*
%TO.P,U1,15,EN_15*%
%TO.N,unconnected-(U1-EN-Pad15)*%
X70372277Y-23044920D03*
%TO.P,U1,16,3.3v_16*%
%TO.N,/VCC*%
X34812277Y-48444920D03*
%TO.P,U1,17,GND_17*%
%TO.N,/GND*%
X37352277Y-48444920D03*
%TO.P,U1,18,GPIO15_18*%
%TO.N,unconnected-(U1-GPIO15-Pad18)*%
X39892277Y-48444920D03*
%TO.P,U1,19,GPIO2_19*%
%TO.N,/DC{slash}RS*%
X42432277Y-48444920D03*
%TO.P,U1,20,GPIO4_20*%
%TO.N,/LED*%
X44972277Y-48444920D03*
%TO.P,U1,21,GPIO16_21*%
%TO.N,/RESET*%
X47512277Y-48444920D03*
%TO.P,U1,22,GPIO17_22*%
%TO.N,unconnected-(U1-GPIO17-Pad22)*%
X50052277Y-48444920D03*
%TO.P,U1,23,GPIO5_23*%
%TO.N,/CS*%
X52592277Y-48444920D03*
%TO.P,U1,24,GPIO18_24*%
%TO.N,/SCK*%
X55132277Y-48444920D03*
%TO.P,U1,25,GPIO19_25*%
%TO.N,/SDO(MISO)*%
X57672277Y-48444920D03*
%TO.P,U1,26,GPIO21_26*%
%TO.N,/Row E*%
X60212277Y-48444920D03*
%TO.P,U1,27,GPIO3_27*%
%TO.N,unconnected-(U1-GPIO3-Pad27)*%
X62752277Y-48444920D03*
%TO.P,U1,28,GPIO1_28*%
%TO.N,unconnected-(U1-GPIO1-Pad28)*%
X65292277Y-48444920D03*
%TO.P,U1,29,GPIO22_29*%
%TO.N,/Col 2*%
X67832277Y-48444920D03*
%TO.P,U1,30,GPIO23_30*%
%TO.N,/SDI(MOSI)*%
X70372277Y-48444920D03*
%TD*%
D11*
%TO.P,SW20,1*%
%TO.N,/Row E*%
X164960000Y-33310000D03*
%TO.P,SW20,2*%
%TO.N,/Col 4*%
X162420000Y-26960000D03*
%TD*%
%TO.P,SW19,1*%
%TO.N,/Row D*%
X145460000Y-33310000D03*
%TO.P,SW19,2*%
%TO.N,/Col 4*%
X142920000Y-26960000D03*
%TD*%
%TO.P,SW18,1*%
%TO.N,/Row C*%
X125960000Y-33310000D03*
%TO.P,SW18,2*%
%TO.N,/Col 4*%
X123420000Y-26960000D03*
%TD*%
%TO.P,SW17,1*%
%TO.N,/Row B*%
X106460000Y-33310000D03*
%TO.P,SW17,2*%
%TO.N,/Col 4*%
X103920000Y-26960000D03*
%TD*%
%TO.P,SW16,1*%
%TO.N,/Row A*%
X86960000Y-33310000D03*
%TO.P,SW16,2*%
%TO.N,/Col 4*%
X84420000Y-26960000D03*
%TD*%
%TO.P,SW15,1*%
%TO.N,/Row E*%
X164960000Y-52810000D03*
%TO.P,SW15,2*%
%TO.N,/Col 3*%
X162420000Y-46460000D03*
%TD*%
%TO.P,SW14,1*%
%TO.N,/Row D*%
X145460000Y-52810000D03*
%TO.P,SW14,2*%
%TO.N,/Col 3*%
X142920000Y-46460000D03*
%TD*%
%TO.P,SW13,1*%
%TO.N,/Row C*%
X125960000Y-52810000D03*
%TO.P,SW13,2*%
%TO.N,/Col 3*%
X123420000Y-46460000D03*
%TD*%
%TO.P,SW12,1*%
%TO.N,/Row B*%
X106460000Y-52810000D03*
%TO.P,SW12,2*%
%TO.N,/Col 3*%
X103920000Y-46460000D03*
%TD*%
%TO.P,SW11,1*%
%TO.N,/Row A*%
X86960000Y-52810000D03*
%TO.P,SW11,2*%
%TO.N,/Col 3*%
X84420000Y-46460000D03*
%TD*%
%TO.P,SW10,1*%
%TO.N,/Row E*%
X164960000Y-72310000D03*
%TO.P,SW10,2*%
%TO.N,/Col 2*%
X162420000Y-65960000D03*
%TD*%
%TO.P,SW9,1*%
%TO.N,/Row D*%
X145460000Y-72310000D03*
%TO.P,SW9,2*%
%TO.N,/Col 2*%
X142920000Y-65960000D03*
%TD*%
%TO.P,SW8,1*%
%TO.N,/Row C*%
X125960000Y-72310000D03*
%TO.P,SW8,2*%
%TO.N,/Col 2*%
X123420000Y-65960000D03*
%TD*%
%TO.P,SW7,1*%
%TO.N,/Row B*%
X106460000Y-72310000D03*
%TO.P,SW7,2*%
%TO.N,/Col 2*%
X103920000Y-65960000D03*
%TD*%
%TO.P,SW6,1*%
%TO.N,/Row A*%
X86960000Y-72310000D03*
%TO.P,SW6,2*%
%TO.N,/Col 2*%
X84420000Y-65960000D03*
%TD*%
%TO.P,SW5,1*%
%TO.N,/Row E*%
X164960000Y-91810000D03*
%TO.P,SW5,2*%
%TO.N,/Col 1*%
X162420000Y-85460000D03*
%TD*%
%TO.P,SW4,1*%
%TO.N,/Row D*%
X145460000Y-91810000D03*
%TO.P,SW4,2*%
%TO.N,/Col 1*%
X142920000Y-85460000D03*
%TD*%
%TO.P,SW3,1*%
%TO.N,/Row C*%
X125960000Y-91810000D03*
%TO.P,SW3,2*%
%TO.N,/Col 1*%
X123420000Y-85460000D03*
%TD*%
%TO.P,SW2,1*%
%TO.N,/Row B*%
X106460000Y-91810000D03*
%TO.P,SW2,2*%
%TO.N,/Col 1*%
X103920000Y-85460000D03*
%TD*%
%TO.P,SW1,1*%
%TO.N,/Row A*%
X86960000Y-91810000D03*
%TO.P,SW1,2*%
%TO.N,/Col 1*%
X84420000Y-85460000D03*
%TD*%
%TO.N,/Col 2*%
D12*
X67832277Y-48444920D02*
X67832277Y-49332277D01*
X67832277Y-49332277D02*
X84500000Y-66000000D01*
%TO.N,/Row A*%
X60357357Y-33350000D02*
X50052277Y-23044920D01*
X87040000Y-33350000D02*
X87040000Y-91850000D01*
X87040000Y-33350000D02*
X60357357Y-33350000D01*
%TO.N,/Row B*%
X61497357Y-31950000D02*
X52592277Y-23044920D01*
X106540000Y-33350000D02*
X105140000Y-31950000D01*
X106540000Y-91850000D02*
X106540000Y-33350000D01*
X105140000Y-31950000D02*
X61497357Y-31950000D01*
%TO.N,/Row C*%
X126040000Y-33350000D02*
X126040000Y-91850000D01*
X108519899Y-33350000D02*
X103736497Y-28566598D01*
X86289899Y-27190000D02*
X85079899Y-28400000D01*
X90553402Y-27190000D02*
X86289899Y-27190000D01*
X85079899Y-28400000D02*
X60487357Y-28400000D01*
X126040000Y-33350000D02*
X108519899Y-33350000D01*
X91930000Y-28566598D02*
X90553402Y-27190000D01*
X60487357Y-28400000D02*
X55132277Y-23044920D01*
X103736497Y-28566598D02*
X91930000Y-28566598D01*
%TO.N,/Row D*%
X90137056Y-25600000D02*
X89977006Y-25760050D01*
X108463402Y-25600000D02*
X90137056Y-25600000D01*
X61129817Y-26502460D02*
X57672277Y-23044920D01*
X145540000Y-91850000D02*
X145540000Y-33350000D01*
X145540000Y-33350000D02*
X144140000Y-31950000D01*
X84979899Y-25500000D02*
X77564399Y-25500000D01*
X144140000Y-31950000D02*
X114813402Y-31950000D01*
X76561939Y-26502460D02*
X61129817Y-26502460D01*
X89977006Y-25760050D02*
X85239949Y-25760050D01*
X85239949Y-25760050D02*
X84979899Y-25500000D01*
X114813402Y-31950000D02*
X108463402Y-25600000D01*
X77564399Y-25500000D02*
X76561939Y-26502460D01*
%TO.N,/Row E*%
X153484920Y-21794920D02*
X165040000Y-33350000D01*
X48990277Y-22417025D02*
X49612382Y-21794920D01*
X48990277Y-37222920D02*
X48990277Y-22417025D01*
X165040000Y-33350000D02*
X165040000Y-91850000D01*
X49612382Y-21794920D02*
X153484920Y-21794920D01*
X60212277Y-48444920D02*
X48990277Y-37222920D01*
%TD*%
M02*
