%TF.GenerationSoftware,KiCad,Pcbnew,10.0.3*%
%TF.CreationDate,2026-09-24T23:08:38-06:00*%
%TF.ProjectId,Calculator,43616c63-756c-4617-946f-722e6b696361,rev?*%
%TF.SameCoordinates,Original*%
%TF.FileFunction,Legend,Bot*%
%TF.FilePolarity,Positive*%
%FSLAX46Y46*%
G04 Gerber Fmt 4.6, Leading zero omitted, Abs format (unit mm)*
G04 Created by KiCad (PCBNEW 10.0.3) date 2026-09-24 23:08:38*
%MOMM*%
%LPD*%
G01*
G04 APERTURE LIST*
%ADD10C,0.300000*%
%ADD11C,0.000000*%
G04 APERTURE END LIST*
D10*
G36*
X78839171Y-51723900D02*
G01*
X78763092Y-51717855D01*
X78693916Y-51698983D01*
X78640939Y-51671719D01*
X78594647Y-51633499D01*
X78558113Y-51587304D01*
X78528653Y-51530382D01*
X78493111Y-51379641D01*
X78488743Y-51289759D01*
X78488743Y-48055678D01*
X78494646Y-47910114D01*
X78512517Y-47780267D01*
X78538546Y-47678050D01*
X78574333Y-47587607D01*
X78615881Y-47514778D01*
X78665913Y-47451426D01*
X78786771Y-47355299D01*
X78944025Y-47291222D01*
X79151607Y-47258911D01*
X79246385Y-47256088D01*
X80782916Y-47256088D01*
X80910078Y-47262011D01*
X81023765Y-47280027D01*
X81113130Y-47306259D01*
X81192442Y-47342446D01*
X81257031Y-47385000D01*
X81313358Y-47436487D01*
X81400578Y-47564409D01*
X81459546Y-47736857D01*
X81488315Y-47972096D01*
X81490000Y-48055678D01*
X81490000Y-51306612D01*
X81484064Y-51408265D01*
X81465964Y-51494766D01*
X81440897Y-51556107D01*
X81406584Y-51606875D01*
X81366914Y-51644115D01*
X81319097Y-51672684D01*
X81195754Y-51704376D01*
X81135542Y-51707231D01*
X81059776Y-51701392D01*
X80993324Y-51683968D01*
X80940768Y-51658008D01*
X80896126Y-51622578D01*
X80831932Y-51526348D01*
X80797767Y-51387064D01*
X80793724Y-51306612D01*
X80793724Y-50122156D01*
X80787942Y-50029908D01*
X80770915Y-49943251D01*
X80704579Y-49782090D01*
X80643698Y-49688747D01*
X80286859Y-49197452D01*
X80190594Y-49050699D01*
X80156930Y-48971397D01*
X80128914Y-48873359D01*
X80071552Y-48530826D01*
X80046524Y-48337962D01*
X80029622Y-48249842D01*
X80001868Y-48172731D01*
X79968046Y-48114185D01*
X79925256Y-48065016D01*
X79876914Y-48027843D01*
X79820334Y-47999496D01*
X79680696Y-47970420D01*
X79640959Y-47969216D01*
X79548635Y-47969216D01*
X79460032Y-47975395D01*
X79383763Y-47995203D01*
X79332554Y-48021572D01*
X79289075Y-48058456D01*
X79228836Y-48158470D01*
X79194909Y-48314192D01*
X79189415Y-48433766D01*
X79189415Y-51319068D01*
X79183601Y-51410714D01*
X79166352Y-51491438D01*
X79140751Y-51555476D01*
X79106012Y-51609695D01*
X79065252Y-51651408D01*
X79016807Y-51683928D01*
X78898409Y-51720260D01*
X78839171Y-51723900D01*
G37*
G36*
X81121782Y-52106921D02*
G01*
X81231658Y-52125699D01*
X81308604Y-52151202D01*
X81373130Y-52186444D01*
X81417811Y-52224729D01*
X81452246Y-52270891D01*
X81474671Y-52321399D01*
X81487264Y-52379359D01*
X81490000Y-52426038D01*
X81484073Y-52501897D01*
X81466035Y-52568124D01*
X81400654Y-52673633D01*
X81272986Y-52788528D01*
X81116308Y-52901212D01*
X80920120Y-53031271D01*
X80832712Y-53105464D01*
X80774436Y-53192708D01*
X80738189Y-53334735D01*
X80726680Y-53572575D01*
X80733280Y-53755173D01*
X80756035Y-53899122D01*
X80782150Y-53978456D01*
X80818572Y-54048762D01*
X80920853Y-54168832D01*
X81304802Y-54521641D01*
X81365370Y-54586454D01*
X81414191Y-54655968D01*
X81450256Y-54727636D01*
X81474864Y-54802784D01*
X81490000Y-54929221D01*
X81490000Y-55970795D01*
X81484232Y-56067662D01*
X81467303Y-56157658D01*
X81440291Y-56239048D01*
X81403551Y-56312835D01*
X81358251Y-56377775D01*
X81304507Y-56434392D01*
X81174386Y-56520548D01*
X81015911Y-56568494D01*
X80904366Y-56577128D01*
X79432681Y-56577128D01*
X79233856Y-56570974D01*
X79063263Y-56551345D01*
X78949137Y-56525707D01*
X78850013Y-56490079D01*
X78775588Y-56450502D01*
X78711199Y-56402279D01*
X78614962Y-56285742D01*
X78547199Y-56128043D01*
X78504124Y-55904585D01*
X78488743Y-55580068D01*
X78488743Y-53354221D01*
X79151496Y-53354221D01*
X79151496Y-55302913D01*
X79157236Y-55400815D01*
X79173965Y-55488723D01*
X79199965Y-55564323D01*
X79234926Y-55630447D01*
X79277414Y-55686207D01*
X79327291Y-55732709D01*
X79448024Y-55798246D01*
X79596845Y-55825724D01*
X79622641Y-55826264D01*
X79702571Y-55820412D01*
X79775977Y-55802892D01*
X79838518Y-55775829D01*
X79894293Y-55738550D01*
X79941461Y-55692684D01*
X79981368Y-55637297D01*
X80038040Y-55496489D01*
X80059694Y-55309245D01*
X80059713Y-55302913D01*
X80059713Y-53354221D01*
X80053952Y-53256414D01*
X80037071Y-53167688D01*
X80010829Y-53091180D01*
X79975352Y-53023976D01*
X79932823Y-52968293D01*
X79882670Y-52922066D01*
X79826450Y-52886231D01*
X79763805Y-52860251D01*
X79622641Y-52839296D01*
X79547438Y-52845062D01*
X79476255Y-52861975D01*
X79348447Y-52927560D01*
X79293861Y-52975189D01*
X79246839Y-53031849D01*
X79208284Y-53096869D01*
X79179004Y-53169709D01*
X79159939Y-53249319D01*
X79151754Y-53335489D01*
X79151496Y-53354221D01*
X78488743Y-53354221D01*
X78488743Y-53097950D01*
X78494573Y-52942823D01*
X78511932Y-52800974D01*
X78538436Y-52680262D01*
X78574700Y-52571086D01*
X78617724Y-52478611D01*
X78669164Y-52396338D01*
X78726479Y-52326774D01*
X78791343Y-52266594D01*
X78941695Y-52174951D01*
X79124690Y-52118963D01*
X79331381Y-52100889D01*
X80996140Y-52100889D01*
X81121782Y-52106921D01*
G37*
G36*
X80155701Y-58351796D02*
G01*
X80149585Y-58220972D01*
X80130221Y-58110608D01*
X80104901Y-58037940D01*
X80069845Y-57976559D01*
X80029833Y-57930967D01*
X79981008Y-57893546D01*
X79853846Y-57841479D01*
X79663251Y-57817067D01*
X79603040Y-57815989D01*
X78868297Y-57815989D01*
X78789938Y-57810227D01*
X78718227Y-57793343D01*
X78655930Y-57766841D01*
X78601954Y-57730948D01*
X78558935Y-57688214D01*
X78525384Y-57637837D01*
X78502749Y-57582217D01*
X78490633Y-57520329D01*
X78488743Y-57482414D01*
X78488743Y-57410973D01*
X78494472Y-57346998D01*
X78511129Y-57288483D01*
X78574378Y-57189662D01*
X78674824Y-57118154D01*
X78809141Y-57080907D01*
X78868297Y-57077581D01*
X80950894Y-57077581D01*
X81040829Y-57083383D01*
X81124899Y-57100545D01*
X81200283Y-57127792D01*
X81268619Y-57165111D01*
X81327576Y-57210713D01*
X81378497Y-57265205D01*
X81420017Y-57327058D01*
X81452493Y-57396894D01*
X81475244Y-57474246D01*
X81487711Y-57558969D01*
X81490000Y-57616870D01*
X81490000Y-61174267D01*
X81484212Y-61243882D01*
X81467149Y-61308865D01*
X81440015Y-61366420D01*
X81402962Y-61416668D01*
X81358794Y-61456454D01*
X81306356Y-61487072D01*
X81248617Y-61506685D01*
X81183919Y-61515637D01*
X81165034Y-61516085D01*
X81099340Y-61510397D01*
X81040316Y-61494032D01*
X80942706Y-61432685D01*
X80874290Y-61336780D01*
X80841496Y-61211335D01*
X80839886Y-61174267D01*
X80839886Y-59952076D01*
X80831630Y-59764972D01*
X80797285Y-59636100D01*
X80722179Y-59530413D01*
X80623914Y-59440081D01*
X80405561Y-59267890D01*
X80294260Y-59167813D01*
X80220741Y-59074402D01*
X80191061Y-59013382D01*
X80171488Y-58945691D01*
X80155701Y-58742524D01*
X80155701Y-58351796D01*
G37*
G36*
X78839171Y-66337438D02*
G01*
X78763092Y-66331393D01*
X78693916Y-66312521D01*
X78640939Y-66285257D01*
X78594647Y-66247037D01*
X78558113Y-66200842D01*
X78528653Y-66143920D01*
X78493111Y-65993179D01*
X78488743Y-65903297D01*
X78488743Y-62669216D01*
X78494646Y-62523652D01*
X78512517Y-62393805D01*
X78538546Y-62291588D01*
X78574333Y-62201145D01*
X78615881Y-62128316D01*
X78665913Y-62064964D01*
X78786771Y-61968837D01*
X78944025Y-61904760D01*
X79151607Y-61872449D01*
X79246385Y-61869626D01*
X80782916Y-61869626D01*
X80910078Y-61875549D01*
X81023765Y-61893565D01*
X81113130Y-61919797D01*
X81192442Y-61955985D01*
X81257031Y-61998538D01*
X81313358Y-62050025D01*
X81400578Y-62177947D01*
X81459546Y-62350395D01*
X81488315Y-62585634D01*
X81490000Y-62669216D01*
X81490000Y-65920150D01*
X81484064Y-66021803D01*
X81465964Y-66108304D01*
X81440897Y-66169645D01*
X81406584Y-66220413D01*
X81366914Y-66257653D01*
X81319097Y-66286222D01*
X81195754Y-66317914D01*
X81135542Y-66320769D01*
X81059776Y-66314930D01*
X80993324Y-66297506D01*
X80940768Y-66271546D01*
X80896126Y-66236116D01*
X80831932Y-66139886D01*
X80797767Y-66000602D01*
X80793724Y-65920150D01*
X80793724Y-64735694D01*
X80787942Y-64643446D01*
X80770915Y-64556789D01*
X80704579Y-64395628D01*
X80643698Y-64302285D01*
X80286859Y-63810990D01*
X80190594Y-63664237D01*
X80156930Y-63584935D01*
X80128914Y-63486897D01*
X80071552Y-63144364D01*
X80046524Y-62951500D01*
X80029622Y-62863380D01*
X80001868Y-62786269D01*
X79968046Y-62727723D01*
X79925256Y-62678554D01*
X79876914Y-62641381D01*
X79820334Y-62613034D01*
X79680696Y-62583958D01*
X79640959Y-62582754D01*
X79548635Y-62582754D01*
X79460032Y-62588934D01*
X79383763Y-62608741D01*
X79332554Y-62635110D01*
X79289075Y-62671994D01*
X79228836Y-62772008D01*
X79194909Y-62927730D01*
X79189415Y-63047304D01*
X79189415Y-65932606D01*
X79183601Y-66024252D01*
X79166352Y-66104976D01*
X79140751Y-66169014D01*
X79106012Y-66223233D01*
X79065252Y-66264946D01*
X79016807Y-66297466D01*
X78898409Y-66333798D01*
X78839171Y-66337438D01*
G37*
G36*
X78868297Y-71081489D02*
G01*
X78791136Y-71075746D01*
X78720397Y-71058988D01*
X78658094Y-71032448D01*
X78604004Y-70996614D01*
X78560377Y-70953676D01*
X78526292Y-70903264D01*
X78503190Y-70847773D01*
X78490749Y-70786383D01*
X78488743Y-70748098D01*
X78488743Y-70672444D01*
X78494472Y-70608455D01*
X78511125Y-70549944D01*
X78574351Y-70451148D01*
X78674767Y-70379650D01*
X78809056Y-70342388D01*
X78868297Y-70339052D01*
X79657629Y-70339052D01*
X79730608Y-70333229D01*
X79794680Y-70315910D01*
X79845682Y-70289957D01*
X79888775Y-70254606D01*
X79949654Y-70158788D01*
X79975083Y-70058600D01*
X80080047Y-69302608D01*
X80103232Y-69180483D01*
X80138355Y-69087700D01*
X80226211Y-68964940D01*
X80262130Y-68925436D01*
X80619152Y-68547531D01*
X80682441Y-68471658D01*
X80718851Y-68398238D01*
X80738151Y-68266294D01*
X80739136Y-68202965D01*
X80739136Y-67770289D01*
X80732969Y-67684934D01*
X80713248Y-67612944D01*
X80687324Y-67566122D01*
X80651203Y-67527390D01*
X80552783Y-67476484D01*
X80396281Y-67453470D01*
X80358850Y-67452834D01*
X78868297Y-67452834D01*
X78789990Y-67447073D01*
X78718304Y-67430189D01*
X78655996Y-67403678D01*
X78602000Y-67367774D01*
X78558960Y-67325025D01*
X78525389Y-67274631D01*
X78502747Y-67219011D01*
X78490630Y-67157124D01*
X78488743Y-67119260D01*
X78488743Y-67047819D01*
X78494472Y-66983879D01*
X78511125Y-66925393D01*
X78574374Y-66826575D01*
X78674831Y-66755034D01*
X78809131Y-66717759D01*
X78868297Y-66714427D01*
X80585446Y-66714427D01*
X80717384Y-66720269D01*
X80839451Y-66737714D01*
X80945288Y-66764654D01*
X81042119Y-66801683D01*
X81126018Y-66846337D01*
X81201503Y-66900000D01*
X81266986Y-66961004D01*
X81324252Y-67030431D01*
X81414058Y-67195006D01*
X81470686Y-67399137D01*
X81490000Y-67640047D01*
X81490000Y-70382650D01*
X81484166Y-70505520D01*
X81466779Y-70617158D01*
X81440399Y-70710685D01*
X81404315Y-70794135D01*
X81361594Y-70863337D01*
X81310508Y-70923302D01*
X81253096Y-70972483D01*
X81188030Y-71012706D01*
X81034074Y-71066004D01*
X80871027Y-71081489D01*
X78868297Y-71081489D01*
G37*
G36*
X80155701Y-72853960D02*
G01*
X80149585Y-72723135D01*
X80130221Y-72612772D01*
X80104901Y-72540103D01*
X80069845Y-72478722D01*
X80029833Y-72433131D01*
X79981008Y-72395710D01*
X79853846Y-72343642D01*
X79663251Y-72319230D01*
X79603040Y-72318152D01*
X78868297Y-72318152D01*
X78789938Y-72312390D01*
X78718227Y-72295506D01*
X78655930Y-72269004D01*
X78601954Y-72233112D01*
X78558935Y-72190377D01*
X78525384Y-72140000D01*
X78502749Y-72084381D01*
X78490633Y-72022492D01*
X78488743Y-71984577D01*
X78488743Y-71913136D01*
X78494472Y-71849161D01*
X78511129Y-71790647D01*
X78574378Y-71691825D01*
X78674824Y-71620317D01*
X78809141Y-71583070D01*
X78868297Y-71579745D01*
X80950894Y-71579745D01*
X81040829Y-71585546D01*
X81124899Y-71602708D01*
X81200283Y-71629956D01*
X81268619Y-71667274D01*
X81327576Y-71712876D01*
X81378497Y-71767368D01*
X81420017Y-71829221D01*
X81452493Y-71899058D01*
X81475244Y-71976409D01*
X81487711Y-72061133D01*
X81490000Y-72119033D01*
X81490000Y-75676430D01*
X81484212Y-75746046D01*
X81467149Y-75811028D01*
X81440015Y-75868583D01*
X81402962Y-75918831D01*
X81358794Y-75958617D01*
X81306356Y-75989236D01*
X81248617Y-76008848D01*
X81183919Y-76017800D01*
X81165034Y-76018248D01*
X81099340Y-76012560D01*
X81040316Y-75996195D01*
X80942706Y-75934848D01*
X80874290Y-75838943D01*
X80841496Y-75713498D01*
X80839886Y-75676430D01*
X80839886Y-74454239D01*
X80831630Y-74267136D01*
X80797285Y-74138263D01*
X80722179Y-74032577D01*
X80623914Y-73942245D01*
X80405561Y-73770054D01*
X80294260Y-73669976D01*
X80220741Y-73576565D01*
X80191061Y-73515545D01*
X80171488Y-73447854D01*
X80155701Y-73244687D01*
X80155701Y-72853960D01*
G37*
G36*
X81121782Y-76377822D02*
G01*
X81231658Y-76396599D01*
X81308604Y-76422102D01*
X81373130Y-76457344D01*
X81417811Y-76495629D01*
X81452246Y-76541792D01*
X81474671Y-76592300D01*
X81487264Y-76650259D01*
X81490000Y-76696938D01*
X81484073Y-76772797D01*
X81466035Y-76839024D01*
X81400654Y-76944533D01*
X81272986Y-77059429D01*
X81116308Y-77172112D01*
X80920120Y-77302172D01*
X80832712Y-77376364D01*
X80774436Y-77463608D01*
X80738189Y-77605635D01*
X80726680Y-77843475D01*
X80733280Y-78026074D01*
X80756035Y-78170022D01*
X80782150Y-78249356D01*
X80818572Y-78319662D01*
X80920853Y-78439733D01*
X81304802Y-78792541D01*
X81365370Y-78857354D01*
X81414191Y-78926868D01*
X81450256Y-78998536D01*
X81474864Y-79073684D01*
X81490000Y-79200122D01*
X81490000Y-80241695D01*
X81484232Y-80338562D01*
X81467303Y-80428558D01*
X81440291Y-80509948D01*
X81403551Y-80583735D01*
X81358251Y-80648676D01*
X81304507Y-80705292D01*
X81174386Y-80791448D01*
X81015911Y-80839394D01*
X80904366Y-80848028D01*
X79432681Y-80848028D01*
X79233856Y-80841874D01*
X79063263Y-80822245D01*
X78949137Y-80796607D01*
X78850013Y-80760979D01*
X78775588Y-80721402D01*
X78711199Y-80673179D01*
X78614962Y-80556642D01*
X78547199Y-80398943D01*
X78504124Y-80175486D01*
X78488743Y-79850968D01*
X78488743Y-77625122D01*
X79151496Y-77625122D01*
X79151496Y-79573813D01*
X79157236Y-79671715D01*
X79173965Y-79759624D01*
X79199965Y-79835223D01*
X79234926Y-79901348D01*
X79277414Y-79957107D01*
X79327291Y-80003610D01*
X79448024Y-80069146D01*
X79596845Y-80096625D01*
X79622641Y-80097165D01*
X79702571Y-80091312D01*
X79775977Y-80073792D01*
X79838518Y-80046729D01*
X79894293Y-80009450D01*
X79941461Y-79963585D01*
X79981368Y-79908197D01*
X80038040Y-79767389D01*
X80059694Y-79580145D01*
X80059713Y-79573813D01*
X80059713Y-77625122D01*
X80053952Y-77527314D01*
X80037071Y-77438588D01*
X80010829Y-77362080D01*
X79975352Y-77294877D01*
X79932823Y-77239193D01*
X79882670Y-77192966D01*
X79826450Y-77157132D01*
X79763805Y-77131151D01*
X79622641Y-77110197D01*
X79547438Y-77115962D01*
X79476255Y-77132875D01*
X79348447Y-77198460D01*
X79293861Y-77246089D01*
X79246839Y-77302749D01*
X79208284Y-77367769D01*
X79179004Y-77440609D01*
X79159939Y-77520219D01*
X79151754Y-77606389D01*
X79151496Y-77625122D01*
X78488743Y-77625122D01*
X78488743Y-77368850D01*
X78494573Y-77213723D01*
X78511932Y-77071874D01*
X78538436Y-76951163D01*
X78574700Y-76841986D01*
X78617724Y-76749512D01*
X78669164Y-76667238D01*
X78726479Y-76597674D01*
X78791343Y-76537494D01*
X78941695Y-76445852D01*
X79124690Y-76389863D01*
X79331381Y-76371789D01*
X80996140Y-76371789D01*
X81121782Y-76377822D01*
G37*
G36*
X80816622Y-84783147D02*
G01*
X80687727Y-84777244D01*
X80572841Y-84759373D01*
X80483830Y-84733529D01*
X80406715Y-84698045D01*
X80348193Y-84657986D01*
X80299928Y-84609956D01*
X80264291Y-84557559D01*
X80238266Y-84497945D01*
X80218715Y-84404143D01*
X80139031Y-83627084D01*
X80123167Y-83543530D01*
X80091322Y-83472687D01*
X80058524Y-83433804D01*
X80014669Y-83402662D01*
X79898247Y-83368142D01*
X79821577Y-83363668D01*
X79510900Y-83363668D01*
X79451192Y-83369423D01*
X79398375Y-83386261D01*
X79316788Y-83448071D01*
X79263700Y-83547139D01*
X79248033Y-83618841D01*
X79159740Y-84253018D01*
X79135707Y-84371439D01*
X79094704Y-84474333D01*
X79058286Y-84527188D01*
X79011517Y-84570393D01*
X78962009Y-84598671D01*
X78902833Y-84617879D01*
X78805465Y-84627808D01*
X78733415Y-84622057D01*
X78671709Y-84605249D01*
X78622698Y-84579957D01*
X78582000Y-84546035D01*
X78523138Y-84452539D01*
X78492116Y-84315160D01*
X78488743Y-84239645D01*
X78488743Y-81652564D01*
X78494766Y-81544888D01*
X78513480Y-81445982D01*
X78540075Y-81371003D01*
X78577124Y-81306238D01*
X78617628Y-81260227D01*
X78666613Y-81224142D01*
X78719200Y-81200771D01*
X78779492Y-81187516D01*
X78826531Y-81184717D01*
X78905354Y-81190585D01*
X78973490Y-81208216D01*
X79026141Y-81234097D01*
X79071264Y-81269517D01*
X79140908Y-81368940D01*
X79190355Y-81524015D01*
X79197658Y-81563354D01*
X79311048Y-82248089D01*
X79331782Y-82336528D01*
X79362500Y-82410582D01*
X79397581Y-82463730D01*
X79441023Y-82507491D01*
X79551315Y-82568175D01*
X79713778Y-82601915D01*
X79859312Y-82608408D01*
X80993026Y-82608408D01*
X81078510Y-82614148D01*
X81156735Y-82630878D01*
X81226739Y-82657537D01*
X81289101Y-82693533D01*
X81390318Y-82791329D01*
X81458535Y-82921510D01*
X81489004Y-83081477D01*
X81490000Y-83118387D01*
X81490000Y-84260711D01*
X81484194Y-84346651D01*
X81466999Y-84425240D01*
X81440123Y-84493593D01*
X81403378Y-84554977D01*
X81302361Y-84655777D01*
X81160964Y-84729756D01*
X80972408Y-84773887D01*
X80816622Y-84783147D01*
G37*
G36*
X80770444Y-85170438D02*
G01*
X80914298Y-85188329D01*
X81024284Y-85213941D01*
X81120544Y-85249054D01*
X81196908Y-85289460D01*
X81263039Y-85338029D01*
X81363730Y-85455262D01*
X81434019Y-85609473D01*
X81477060Y-85818837D01*
X81490000Y-86069269D01*
X81490000Y-88803445D01*
X81484110Y-88953725D01*
X81466331Y-89089277D01*
X81440096Y-89198472D01*
X81404017Y-89295809D01*
X81362178Y-89374656D01*
X81311869Y-89443548D01*
X81256103Y-89499816D01*
X81192520Y-89547099D01*
X81042200Y-89614553D01*
X80851701Y-89646959D01*
X80778703Y-89649197D01*
X79305186Y-89649197D01*
X79153469Y-89643179D01*
X79017862Y-89624504D01*
X78915725Y-89598176D01*
X78824833Y-89561586D01*
X78752898Y-89519655D01*
X78689803Y-89468642D01*
X78637829Y-89411208D01*
X78593737Y-89344809D01*
X78528189Y-89181047D01*
X78493068Y-88960881D01*
X78488743Y-88832754D01*
X78488743Y-88051666D01*
X79239790Y-88051666D01*
X79239790Y-88492585D01*
X79245724Y-88602561D01*
X79263813Y-88699034D01*
X79289578Y-88771525D01*
X79325028Y-88833883D01*
X79366201Y-88882058D01*
X79415935Y-88921712D01*
X79540582Y-88975045D01*
X79716613Y-88994870D01*
X80342180Y-88994870D01*
X80474204Y-88988684D01*
X80586647Y-88968824D01*
X80659883Y-88943149D01*
X80722223Y-88907433D01*
X80768355Y-88866911D01*
X80806388Y-88817299D01*
X80858647Y-88689259D01*
X80881538Y-88500502D01*
X80882018Y-88463093D01*
X80882018Y-86333784D01*
X80876141Y-86234061D01*
X80858448Y-86148394D01*
X80833240Y-86084786D01*
X80798877Y-86031446D01*
X80758536Y-85990774D01*
X80710133Y-85958666D01*
X80585845Y-85918932D01*
X80480666Y-85911182D01*
X80325327Y-85911182D01*
X80238803Y-85917357D01*
X80163726Y-85937131D01*
X80111939Y-85963858D01*
X80067098Y-86001348D01*
X80000597Y-86105488D01*
X79957498Y-86259228D01*
X79839895Y-86927110D01*
X79808409Y-87064703D01*
X79771629Y-87162957D01*
X79692261Y-87279125D01*
X79653782Y-87320586D01*
X79468951Y-87513843D01*
X79385675Y-87610088D01*
X79323304Y-87703067D01*
X79285615Y-87781326D01*
X79259952Y-87862277D01*
X79239832Y-88041783D01*
X79239790Y-88051666D01*
X78488743Y-88051666D01*
X78488743Y-85821423D01*
X78494513Y-85724405D01*
X78511453Y-85633442D01*
X78538762Y-85549640D01*
X78575986Y-85472764D01*
X78622384Y-85403551D01*
X78677549Y-85342160D01*
X78812286Y-85244603D01*
X78976996Y-85183858D01*
X79154061Y-85164532D01*
X80606512Y-85164532D01*
X80770444Y-85170438D01*
G37*
G36*
X81069567Y-90155740D02*
G01*
X81150334Y-90172357D01*
X81221387Y-90198580D01*
X81284004Y-90233782D01*
X81385010Y-90329103D01*
X81454150Y-90456808D01*
X81487802Y-90616052D01*
X81490000Y-90672452D01*
X81490000Y-91634342D01*
X81483368Y-91789584D01*
X81460391Y-91912004D01*
X81433567Y-91981414D01*
X81395954Y-92044803D01*
X81282271Y-92167951D01*
X80954558Y-92465989D01*
X80863135Y-92556834D01*
X80804238Y-92647283D01*
X80768954Y-92781345D01*
X80763133Y-92898482D01*
X80763133Y-93087526D01*
X80769609Y-93211944D01*
X80791494Y-93324228D01*
X80820914Y-93405606D01*
X80863144Y-93486047D01*
X80994545Y-93656901D01*
X81241998Y-93895678D01*
X81311580Y-93956725D01*
X81385268Y-94030827D01*
X81437640Y-94099826D01*
X81469177Y-94159751D01*
X81485972Y-94215833D01*
X81490000Y-94259159D01*
X81490000Y-94305504D01*
X81484261Y-94360246D01*
X81467540Y-94409343D01*
X81404204Y-94489808D01*
X81298439Y-94548356D01*
X81145085Y-94578398D01*
X81093410Y-94580094D01*
X80681800Y-94580094D01*
X80574339Y-94573703D01*
X80484821Y-94552415D01*
X80428662Y-94525579D01*
X80378823Y-94487832D01*
X80294372Y-94377800D01*
X80210106Y-94189916D01*
X79941561Y-93446563D01*
X79901583Y-93353984D01*
X79855399Y-93282493D01*
X79811648Y-93237616D01*
X79760668Y-93202299D01*
X79625915Y-93151332D01*
X79593332Y-93143579D01*
X79022353Y-93009124D01*
X78878559Y-92959949D01*
X78760450Y-92902077D01*
X78691772Y-92853679D01*
X78634276Y-92797114D01*
X78591417Y-92737657D01*
X78556705Y-92669054D01*
X78508917Y-92494071D01*
X78488978Y-92231323D01*
X78488743Y-92192864D01*
X78488743Y-91587997D01*
X79218724Y-91587997D01*
X79224701Y-91796581D01*
X79243095Y-91964630D01*
X79266752Y-92070998D01*
X79298866Y-92156703D01*
X79333306Y-92215100D01*
X79374393Y-92261028D01*
X79471724Y-92318396D01*
X79608139Y-92344452D01*
X79674298Y-92346554D01*
X79784585Y-92340023D01*
X79877917Y-92317758D01*
X79933357Y-92290799D01*
X79981203Y-92252888D01*
X80050174Y-92150198D01*
X80098142Y-91986404D01*
X80123663Y-91715928D01*
X80125659Y-91587997D01*
X80119657Y-91377870D01*
X80101091Y-91212209D01*
X80077811Y-91112100D01*
X80046265Y-91032866D01*
X80012628Y-90980166D01*
X79972498Y-90939508D01*
X79875406Y-90889725D01*
X79731866Y-90868515D01*
X79674298Y-90867358D01*
X79545309Y-90874546D01*
X79439580Y-90901417D01*
X79387870Y-90929562D01*
X79343536Y-90968846D01*
X79280398Y-91075729D01*
X79237825Y-91250384D01*
X79218913Y-91547444D01*
X79218724Y-91587997D01*
X78488743Y-91587997D01*
X78488743Y-91105129D01*
X78494745Y-90927412D01*
X78513306Y-90770326D01*
X78539285Y-90653479D01*
X78575257Y-90550186D01*
X78616126Y-90469186D01*
X78665677Y-90398212D01*
X78720812Y-90340033D01*
X78784316Y-90290214D01*
X78939016Y-90214000D01*
X79145791Y-90166144D01*
X79409966Y-90150017D01*
X80980020Y-90150017D01*
X81069567Y-90155740D01*
G37*
G36*
X78868480Y-98151596D02*
G01*
X78792406Y-98145861D01*
X78722555Y-98129166D01*
X78660471Y-98102569D01*
X78606434Y-98066705D01*
X78562364Y-98023458D01*
X78527785Y-97972774D01*
X78504083Y-97916904D01*
X78491074Y-97855269D01*
X78488743Y-97813991D01*
X78488743Y-97738337D01*
X78494472Y-97675456D01*
X78511126Y-97617535D01*
X78574882Y-97518235D01*
X78676283Y-97445758D01*
X78810836Y-97408187D01*
X78868480Y-97404945D01*
X79586371Y-97404945D01*
X79721971Y-97397400D01*
X79821127Y-97368032D01*
X79917724Y-97294052D01*
X79976549Y-97226526D01*
X80262130Y-96890204D01*
X80335281Y-96815137D01*
X80409484Y-96757856D01*
X80476849Y-96721191D01*
X80548379Y-96695751D01*
X80713415Y-96674229D01*
X80732725Y-96674049D01*
X80959321Y-96674049D01*
X81047806Y-96679799D01*
X81129476Y-96696606D01*
X81203202Y-96723475D01*
X81269441Y-96759877D01*
X81377720Y-96858522D01*
X81451858Y-96988837D01*
X81487592Y-97147697D01*
X81490000Y-97204911D01*
X81490000Y-98351448D01*
X81484216Y-98439381D01*
X81467176Y-98521571D01*
X81439939Y-98595972D01*
X81402739Y-98663393D01*
X81356995Y-98722062D01*
X81302508Y-98772654D01*
X81240541Y-98814025D01*
X81170863Y-98846216D01*
X81094009Y-98868552D01*
X81010271Y-98880448D01*
X80959321Y-98882309D01*
X80732725Y-98882309D01*
X80627454Y-98876120D01*
X80533248Y-98856239D01*
X80462066Y-98828267D01*
X80394784Y-98788628D01*
X80262130Y-98666154D01*
X79976732Y-98325985D01*
X79886642Y-98232766D01*
X79800482Y-98179415D01*
X79674582Y-98154149D01*
X79586371Y-98151596D01*
X78868480Y-98151596D01*
G37*
D11*
%TO.C,G\u002A\u002A\u002A*%
G36*
X52903755Y-64821653D02*
G01*
X52903254Y-66367553D01*
X52125124Y-67155674D01*
X51851343Y-67438636D01*
X51269944Y-68086327D01*
X50755321Y-68734496D01*
X50293987Y-69402065D01*
X49872458Y-70107958D01*
X49477246Y-70871099D01*
X49161029Y-71569204D01*
X48838241Y-72419561D01*
X48581528Y-73280496D01*
X48575785Y-73302605D01*
X48517807Y-73521528D01*
X48465239Y-73712941D01*
X48423663Y-73856912D01*
X48398661Y-73933511D01*
X48396023Y-73928797D01*
X48390865Y-73854759D01*
X48385896Y-73699566D01*
X48381169Y-73469158D01*
X48376741Y-73169473D01*
X48372666Y-72806451D01*
X48368999Y-72386031D01*
X48365796Y-71914152D01*
X48363112Y-71396753D01*
X48361001Y-70839773D01*
X48359519Y-70249151D01*
X48358722Y-69630827D01*
X48358465Y-69196179D01*
X48358315Y-68505559D01*
X48358609Y-67896477D01*
X48359423Y-67363508D01*
X48360834Y-66901228D01*
X48362920Y-66504214D01*
X48365757Y-66167040D01*
X48369421Y-65884284D01*
X48373991Y-65650519D01*
X48379541Y-65460324D01*
X48386151Y-65308273D01*
X48393895Y-65188942D01*
X48402852Y-65096907D01*
X48413098Y-65026744D01*
X48424709Y-64973028D01*
X48427439Y-64962655D01*
X48580920Y-64556011D01*
X48810710Y-64187606D01*
X49107815Y-63867185D01*
X49463243Y-63604494D01*
X49867997Y-63409277D01*
X49938049Y-63384608D01*
X50018929Y-63361410D01*
X50110497Y-63343166D01*
X50224095Y-63329079D01*
X50371062Y-63318350D01*
X50562737Y-63310181D01*
X50810461Y-63303775D01*
X51125573Y-63298332D01*
X51519415Y-63293056D01*
X52904255Y-63275754D01*
X52903755Y-64821653D01*
G37*
G36*
X46901471Y-70760375D02*
G01*
X46904301Y-70821583D01*
X46906532Y-70963696D01*
X46908155Y-71179103D01*
X46909160Y-71460193D01*
X46909535Y-71799354D01*
X46909272Y-72188975D01*
X46908361Y-72621444D01*
X46906791Y-73089152D01*
X46904551Y-73584486D01*
X46903215Y-73845487D01*
X46900311Y-74383384D01*
X46897424Y-74841636D01*
X46894290Y-75227508D01*
X46890645Y-75548263D01*
X46886227Y-75811164D01*
X46880771Y-76023473D01*
X46874013Y-76192454D01*
X46865691Y-76325371D01*
X46855541Y-76429486D01*
X46843298Y-76512062D01*
X46828701Y-76580363D01*
X46811484Y-76641652D01*
X46791385Y-76703191D01*
X46627819Y-77078302D01*
X46381303Y-77445656D01*
X46073596Y-77755685D01*
X45713769Y-77997491D01*
X45674819Y-78018240D01*
X45574410Y-78070566D01*
X45479922Y-78115391D01*
X45383969Y-78153290D01*
X45279168Y-78184840D01*
X45158135Y-78210616D01*
X45013486Y-78231195D01*
X44837838Y-78247153D01*
X44623806Y-78259066D01*
X44364006Y-78267510D01*
X44051055Y-78273060D01*
X43677569Y-78276293D01*
X43236164Y-78277786D01*
X42719455Y-78278113D01*
X42120059Y-78277851D01*
X39326064Y-78276270D01*
X40001596Y-77948657D01*
X40012016Y-77943599D01*
X40569444Y-77660059D01*
X41111853Y-77359743D01*
X41621438Y-77053348D01*
X42080395Y-76751570D01*
X42470923Y-76465104D01*
X42643441Y-76329580D01*
X42279522Y-75963761D01*
X42147661Y-75828033D01*
X42027856Y-75697734D01*
X41947033Y-75601531D01*
X41917915Y-75553847D01*
X41924950Y-75539704D01*
X41985276Y-75474867D01*
X42093832Y-75377276D01*
X42234224Y-75262057D01*
X42275301Y-75228715D01*
X42437935Y-75086401D01*
X42642562Y-74896434D01*
X42874922Y-74673007D01*
X43120756Y-74430312D01*
X43365805Y-74182543D01*
X43595810Y-73943891D01*
X43796510Y-73728549D01*
X43953646Y-73550709D01*
X44163220Y-73303014D01*
X44546717Y-73683446D01*
X44550877Y-73687571D01*
X44699638Y-73832197D01*
X44823672Y-73947493D01*
X44910129Y-74021867D01*
X44946161Y-74043729D01*
X45184688Y-73731806D01*
X45625602Y-73092131D01*
X46044334Y-72395533D01*
X46451192Y-71625443D01*
X46501249Y-71525123D01*
X46624512Y-71280269D01*
X46732155Y-71069508D01*
X46818123Y-70904513D01*
X46876363Y-70796957D01*
X46900821Y-70758511D01*
X46901471Y-70760375D01*
G37*
G36*
X63352482Y-69671880D02*
G01*
X63352482Y-76072695D01*
X62530585Y-76073764D01*
X61708688Y-76074833D01*
X61957471Y-76177191D01*
X62177257Y-76281777D01*
X62491129Y-76481555D01*
X62751322Y-76710151D01*
X62856641Y-76832233D01*
X63056967Y-77131084D01*
X63213762Y-77459780D01*
X63315957Y-77792652D01*
X63352482Y-78104035D01*
X63352482Y-78324468D01*
X62204078Y-78324468D01*
X61055674Y-78324468D01*
X61055674Y-78126552D01*
X61055581Y-78112606D01*
X61014927Y-77808448D01*
X60908309Y-77483950D01*
X60747318Y-77162458D01*
X60543546Y-76867319D01*
X60308585Y-76621878D01*
X60138056Y-76491349D01*
X59860030Y-76326052D01*
X59562991Y-76193761D01*
X59273426Y-76105735D01*
X59017819Y-76073230D01*
X58893972Y-76072695D01*
X58893972Y-77198582D01*
X58893972Y-78324468D01*
X53624823Y-78324468D01*
X48355674Y-78324468D01*
X48356059Y-77930408D01*
X48369003Y-77468116D01*
X48415181Y-76863847D01*
X48491779Y-76224910D01*
X48595600Y-75577249D01*
X48723452Y-74946809D01*
X48760552Y-74787064D01*
X49049376Y-73753907D01*
X52904255Y-73753907D01*
X52912841Y-73755580D01*
X52993860Y-73759256D01*
X53154268Y-73762706D01*
X53386643Y-73765874D01*
X53683564Y-73768704D01*
X54037609Y-73771144D01*
X54441357Y-73773136D01*
X54887384Y-73774628D01*
X55368271Y-73775563D01*
X55876596Y-73775887D01*
X58848936Y-73775887D01*
X58848936Y-70806415D01*
X58848936Y-67836944D01*
X58536250Y-67923594D01*
X58169214Y-68039650D01*
X57640653Y-68248801D01*
X57084106Y-68513381D01*
X56647758Y-68754155D01*
X55939698Y-69224221D01*
X55290423Y-69760457D01*
X54703329Y-70358844D01*
X54181812Y-71015364D01*
X53729269Y-71725996D01*
X53349096Y-72486721D01*
X53044690Y-73293521D01*
X53002878Y-73425050D01*
X52951982Y-73588441D01*
X52917160Y-73704443D01*
X52904255Y-73753907D01*
X49049376Y-73753907D01*
X49067851Y-73687819D01*
X49456882Y-72620917D01*
X49924235Y-71590550D01*
X50466503Y-70600911D01*
X51080277Y-69656191D01*
X51762149Y-68760584D01*
X52508710Y-67918281D01*
X53316552Y-67133475D01*
X54182265Y-66410359D01*
X55102442Y-65753124D01*
X56073674Y-65165963D01*
X57092553Y-64653068D01*
X57683402Y-64397548D01*
X58648596Y-64040145D01*
X58848936Y-63981641D01*
X59623872Y-63755341D01*
X60623786Y-63539664D01*
X61662898Y-63389639D01*
X62755762Y-63301794D01*
X63352482Y-63271065D01*
X63352482Y-69671880D01*
G37*
G36*
X66056665Y-59639305D02*
G01*
X66266794Y-59754416D01*
X66558434Y-59991029D01*
X66781191Y-60285668D01*
X66935133Y-60638414D01*
X66939931Y-60665094D01*
X66944743Y-60718949D01*
X66949263Y-60801385D01*
X66953496Y-60914765D01*
X66957449Y-61061456D01*
X66961129Y-61243821D01*
X66964542Y-61464227D01*
X66967695Y-61725039D01*
X66970594Y-62028620D01*
X66973247Y-62377337D01*
X66975658Y-62773554D01*
X66977836Y-63219636D01*
X66979786Y-63717949D01*
X66981515Y-64270857D01*
X66983030Y-64880725D01*
X66984337Y-65549919D01*
X66985442Y-66280803D01*
X66986353Y-67075743D01*
X66987076Y-67937104D01*
X66987618Y-68867250D01*
X66987984Y-69868546D01*
X66988182Y-70943359D01*
X66988217Y-72094052D01*
X66988098Y-73322990D01*
X66987829Y-74632540D01*
X66987419Y-76025065D01*
X66986872Y-77502930D01*
X66986197Y-79068502D01*
X66977837Y-97308813D01*
X66831035Y-97607007D01*
X66638476Y-97913966D01*
X66382826Y-98165052D01*
X66060015Y-98359161D01*
X65806915Y-98477837D01*
X57769643Y-98489585D01*
X57331611Y-98490188D01*
X56220134Y-98491351D01*
X55190887Y-98491869D01*
X54244522Y-98491746D01*
X53381692Y-98490984D01*
X52603051Y-98489585D01*
X51909252Y-98487552D01*
X51300948Y-98484888D01*
X50778794Y-98481595D01*
X50343441Y-98477677D01*
X49995544Y-98473135D01*
X49735755Y-98467973D01*
X49564729Y-98462193D01*
X49483118Y-98455798D01*
X49252539Y-98398799D01*
X48877602Y-98237346D01*
X48541967Y-98004897D01*
X48254489Y-97711243D01*
X48024022Y-97366176D01*
X47859420Y-96979485D01*
X47769539Y-96560962D01*
X47760295Y-96463114D01*
X47748289Y-96271389D01*
X47738841Y-96040849D01*
X47732004Y-95785808D01*
X47727833Y-95520582D01*
X47726382Y-95259485D01*
X47727705Y-95016833D01*
X47731856Y-94806940D01*
X47738888Y-94644122D01*
X47748857Y-94542693D01*
X47761817Y-94516968D01*
X47785690Y-94561765D01*
X47829104Y-94673485D01*
X47876984Y-94819587D01*
X47879985Y-94829388D01*
X48023918Y-95158241D01*
X48239666Y-95473653D01*
X48509671Y-95757105D01*
X48816377Y-95990078D01*
X49142227Y-96154056D01*
X49394868Y-96248582D01*
X57071725Y-96248582D01*
X64748582Y-96248582D01*
X64748582Y-79000000D01*
X64748582Y-61751418D01*
X47500000Y-61751418D01*
X30251418Y-61751418D01*
X30251418Y-79000000D01*
X30251418Y-96248582D01*
X37761082Y-96249364D01*
X38270996Y-96249440D01*
X39211727Y-96249732D01*
X40068365Y-96250239D01*
X40844878Y-96250995D01*
X41545234Y-96252033D01*
X42173399Y-96253386D01*
X42733343Y-96255087D01*
X43229033Y-96257170D01*
X43664436Y-96259667D01*
X44043521Y-96262612D01*
X44370254Y-96266039D01*
X44648605Y-96269979D01*
X44882541Y-96274467D01*
X45076028Y-96279536D01*
X45233036Y-96285218D01*
X45357532Y-96291548D01*
X45453484Y-96298558D01*
X45524859Y-96306281D01*
X45575626Y-96314751D01*
X45863660Y-96397293D01*
X46248751Y-96582656D01*
X46589055Y-96838297D01*
X46875538Y-97155456D01*
X47099164Y-97525371D01*
X47250900Y-97939283D01*
X47278374Y-98057136D01*
X47308250Y-98225801D01*
X47319858Y-98352626D01*
X47319858Y-98501222D01*
X38256472Y-98489529D01*
X29193085Y-98477837D01*
X28939985Y-98359161D01*
X28625143Y-98171136D01*
X28367759Y-97921739D01*
X28168965Y-97607005D01*
X28022163Y-97308809D01*
X28022163Y-79000947D01*
X28022163Y-60693085D01*
X28140839Y-60439985D01*
X28328864Y-60125143D01*
X28578261Y-59867759D01*
X28892995Y-59668965D01*
X29191191Y-59522163D01*
X47499053Y-59522163D01*
X65806915Y-59522163D01*
X66056665Y-59639305D01*
G37*
G36*
X32062487Y-63279823D02*
G01*
X34788741Y-63292745D01*
X35276768Y-63295087D01*
X35791834Y-63297763D01*
X36229714Y-63300501D01*
X36597469Y-63303554D01*
X36902159Y-63307176D01*
X37150844Y-63311623D01*
X37350585Y-63317148D01*
X37508440Y-63324006D01*
X37631471Y-63332451D01*
X37726738Y-63342737D01*
X37801301Y-63355119D01*
X37862219Y-63369851D01*
X37916554Y-63387187D01*
X37971365Y-63407381D01*
X37993392Y-63415833D01*
X38394746Y-63615852D01*
X38746340Y-63879919D01*
X39038924Y-64198073D01*
X39263249Y-64560351D01*
X39410066Y-64956794D01*
X39469368Y-65188518D01*
X39524991Y-64967397D01*
X39591726Y-64758254D01*
X39770978Y-64399070D01*
X40016104Y-64066921D01*
X40311724Y-63781160D01*
X40642459Y-63561141D01*
X40732631Y-63514489D01*
X40833018Y-63466636D01*
X40934176Y-63425911D01*
X41043547Y-63391737D01*
X41168571Y-63363536D01*
X41316691Y-63340733D01*
X41495347Y-63322751D01*
X41711983Y-63309013D01*
X41974040Y-63298941D01*
X42288958Y-63291960D01*
X42664181Y-63287493D01*
X43107149Y-63284963D01*
X43625305Y-63283793D01*
X44226090Y-63283406D01*
X46919378Y-63282624D01*
X46892096Y-63789273D01*
X46845638Y-64481078D01*
X46774999Y-65186064D01*
X46683624Y-65826431D01*
X46578138Y-66391415D01*
X46303353Y-67503530D01*
X45946722Y-68583656D01*
X45511137Y-69627913D01*
X44999493Y-70632426D01*
X44414683Y-71593316D01*
X43759601Y-72506705D01*
X43037140Y-73368717D01*
X42250193Y-74175474D01*
X41401655Y-74923097D01*
X40494418Y-75607710D01*
X39531377Y-76225434D01*
X38515426Y-76772393D01*
X38361249Y-76846998D01*
X37428656Y-77257168D01*
X36493277Y-77595784D01*
X35541262Y-77866341D01*
X34558760Y-78072338D01*
X33531922Y-78217270D01*
X32446897Y-78304636D01*
X31872695Y-78335302D01*
X31872695Y-70807112D01*
X31872695Y-63507355D01*
X32048250Y-63507355D01*
X32054297Y-63527389D01*
X32078580Y-63570754D01*
X32145205Y-63690451D01*
X32249986Y-63879020D01*
X32389933Y-64131071D01*
X32562058Y-64441217D01*
X32763370Y-64804068D01*
X32990879Y-65214233D01*
X33241598Y-65666325D01*
X33512535Y-66154954D01*
X33800701Y-66674731D01*
X34103107Y-67220266D01*
X34416763Y-67786170D01*
X34662898Y-68230270D01*
X34972216Y-68788342D01*
X35269648Y-69324938D01*
X35552017Y-69834327D01*
X35816146Y-70310780D01*
X36058857Y-70748566D01*
X36276973Y-71141953D01*
X36467318Y-71485211D01*
X36626713Y-71772609D01*
X36751981Y-71998417D01*
X36839945Y-72156904D01*
X36887428Y-72242339D01*
X37080846Y-72540863D01*
X37407103Y-72910667D01*
X37793876Y-73228868D01*
X38227813Y-73484937D01*
X38695567Y-73668347D01*
X38953353Y-73723178D01*
X39290871Y-73753008D01*
X39649021Y-73750201D01*
X39994580Y-73715172D01*
X40294326Y-73648338D01*
X40342521Y-73632931D01*
X40815244Y-73433190D01*
X41242416Y-73163338D01*
X41616116Y-72831528D01*
X41928424Y-72445910D01*
X42171419Y-72014638D01*
X42337180Y-71545862D01*
X42374449Y-71382357D01*
X42431279Y-70876508D01*
X42401581Y-70378081D01*
X42287960Y-69895825D01*
X42093024Y-69438486D01*
X41819378Y-69014812D01*
X41469627Y-68633552D01*
X41374739Y-68550132D01*
X41250476Y-68452932D01*
X41102004Y-68350220D01*
X40918078Y-68234996D01*
X40687449Y-68100258D01*
X40398873Y-67939003D01*
X40041101Y-67744230D01*
X39947578Y-67693736D01*
X39697921Y-67558942D01*
X39381408Y-67388049D01*
X39006419Y-67185582D01*
X38581336Y-66956065D01*
X38114539Y-66704025D01*
X37614410Y-66433986D01*
X37089329Y-66150474D01*
X36547678Y-65858014D01*
X35997837Y-65561131D01*
X35448188Y-65264350D01*
X34854381Y-64943927D01*
X34317821Y-64654923D01*
X33851412Y-64404433D01*
X33450618Y-64190136D01*
X33110908Y-64009712D01*
X32827749Y-63860841D01*
X32596606Y-63741204D01*
X32412947Y-63648480D01*
X32272239Y-63580349D01*
X32169949Y-63534491D01*
X32101542Y-63508586D01*
X32062487Y-63500314D01*
X32048250Y-63507355D01*
X31872695Y-63507355D01*
X31872695Y-63278923D01*
X32062487Y-63279823D01*
G37*
G36*
X50648809Y-80098608D02*
G01*
X50713149Y-80383250D01*
X50876684Y-80791008D01*
X51111170Y-81153556D01*
X51408689Y-81463189D01*
X51761323Y-81712202D01*
X52161155Y-81892891D01*
X52600266Y-81997550D01*
X52814184Y-82027603D01*
X52814184Y-80896603D01*
X52814184Y-79765603D01*
X58083333Y-79765603D01*
X63352482Y-79765603D01*
X63352482Y-82332624D01*
X63352482Y-84899645D01*
X58905230Y-84901860D01*
X54457979Y-84904074D01*
X54885816Y-85014350D01*
X55401440Y-85181483D01*
X55956133Y-85445378D01*
X56464750Y-85779726D01*
X56921597Y-86177921D01*
X57320980Y-86633353D01*
X57657204Y-87139416D01*
X57924577Y-87689502D01*
X58117404Y-88277001D01*
X58229991Y-88895308D01*
X58281713Y-89358156D01*
X59479433Y-89358156D01*
X59682092Y-89358156D01*
X60817097Y-89358156D01*
X63352482Y-89358156D01*
X63352482Y-92060284D01*
X63352482Y-94762411D01*
X56782049Y-94762411D01*
X56289463Y-94762407D01*
X55437458Y-94762348D01*
X54668610Y-94762176D01*
X53978420Y-94761831D01*
X53362385Y-94761252D01*
X52816007Y-94760382D01*
X52334784Y-94759160D01*
X51914215Y-94757527D01*
X51549801Y-94755424D01*
X51237040Y-94752792D01*
X50971433Y-94749571D01*
X50748477Y-94745702D01*
X50563674Y-94741125D01*
X50412522Y-94735782D01*
X50290521Y-94729612D01*
X50193170Y-94722557D01*
X50115968Y-94714557D01*
X50054416Y-94705553D01*
X50004012Y-94695486D01*
X49960256Y-94684295D01*
X49918648Y-94671923D01*
X49798179Y-94630306D01*
X49430225Y-94447507D01*
X49278502Y-94334574D01*
X59659574Y-94334574D01*
X59682092Y-94357092D01*
X59704610Y-94334574D01*
X59682092Y-94312057D01*
X59659574Y-94334574D01*
X49278502Y-94334574D01*
X49228082Y-94297045D01*
X59449409Y-94297045D01*
X59456010Y-94302435D01*
X59509456Y-94297045D01*
X59516502Y-94283499D01*
X59479433Y-94267021D01*
X59455591Y-94270271D01*
X59449409Y-94297045D01*
X49228082Y-94297045D01*
X49095802Y-94198585D01*
X48812963Y-93898715D01*
X48599758Y-93563074D01*
X48590108Y-93543555D01*
X48543648Y-93447781D01*
X48503803Y-93357729D01*
X48470064Y-93266029D01*
X48441922Y-93165314D01*
X48418867Y-93048214D01*
X48400389Y-92907361D01*
X48385979Y-92735387D01*
X48375128Y-92524922D01*
X48367325Y-92268599D01*
X48362062Y-91959048D01*
X48358828Y-91588900D01*
X48357114Y-91150788D01*
X48356411Y-90637342D01*
X48356208Y-90041194D01*
X48356442Y-89653386D01*
X48357849Y-89130504D01*
X48360452Y-88660527D01*
X48364173Y-88248766D01*
X48368935Y-87900528D01*
X48374660Y-87621124D01*
X48381272Y-87415861D01*
X48388693Y-87290048D01*
X48396845Y-87248995D01*
X48433997Y-87282298D01*
X48516276Y-87373440D01*
X48629548Y-87507371D01*
X48761019Y-87669326D01*
X49111587Y-88095611D01*
X49966920Y-89035191D01*
X50886766Y-89915268D01*
X51866089Y-90732331D01*
X52899853Y-91482866D01*
X53983022Y-92163361D01*
X55110557Y-92770303D01*
X56277424Y-93300179D01*
X57478585Y-93749476D01*
X57484815Y-93751561D01*
X57676240Y-93813152D01*
X57907572Y-93883927D01*
X58163051Y-93959469D01*
X58426914Y-94035361D01*
X58683398Y-94107188D01*
X58916740Y-94170532D01*
X59111177Y-94220977D01*
X59250949Y-94254107D01*
X59320290Y-94265505D01*
X59306672Y-94256420D01*
X59222589Y-94223333D01*
X59075976Y-94170385D01*
X58879613Y-94102167D01*
X58646277Y-94023272D01*
X57988124Y-93789475D01*
X57115924Y-93429541D01*
X56288817Y-93023943D01*
X55488502Y-92562705D01*
X54696675Y-92035850D01*
X53895035Y-91433401D01*
X53693236Y-91265618D01*
X53410171Y-91012479D01*
X53098766Y-90718896D01*
X52774853Y-90400762D01*
X52454261Y-90073968D01*
X52152821Y-89754403D01*
X51886363Y-89457961D01*
X51670719Y-89200532D01*
X51506793Y-88991001D01*
X50819339Y-88027602D01*
X50216635Y-87033736D01*
X49698524Y-86008986D01*
X49264850Y-84952934D01*
X48915457Y-83865163D01*
X48650186Y-82745255D01*
X48468883Y-81592792D01*
X48371390Y-80407358D01*
X48341685Y-79765603D01*
X49468387Y-79765603D01*
X50595089Y-79765603D01*
X50648809Y-80098608D01*
G37*
G36*
X32536968Y-79780605D02*
G01*
X32607112Y-79783828D01*
X33778821Y-79884030D01*
X34924415Y-80070349D01*
X36042804Y-80342384D01*
X37132898Y-80699731D01*
X38193609Y-81141988D01*
X39223847Y-81668754D01*
X40222522Y-82279627D01*
X41188546Y-82974204D01*
X41375073Y-83126400D01*
X41639687Y-83358532D01*
X41936624Y-83632310D01*
X42251459Y-83933455D01*
X42569764Y-84247692D01*
X42877114Y-84560742D01*
X43159081Y-84858328D01*
X43401240Y-85126173D01*
X43589164Y-85350000D01*
X44060311Y-85973763D01*
X44658373Y-86869140D01*
X45186152Y-87796409D01*
X45652240Y-88771042D01*
X46065230Y-89808511D01*
X46086561Y-89867091D01*
X46167091Y-90081328D01*
X46220512Y-90210057D01*
X46246803Y-90253604D01*
X46245941Y-90212293D01*
X46217906Y-90086448D01*
X46162676Y-89876395D01*
X46080229Y-89582456D01*
X45986392Y-89266991D01*
X45624862Y-88218282D01*
X45188459Y-87166589D01*
X44685500Y-86130839D01*
X44124298Y-85129961D01*
X43818027Y-84639784D01*
X43130684Y-83653180D01*
X42371365Y-82699444D01*
X41551557Y-81791689D01*
X40682746Y-80943028D01*
X39776418Y-80166573D01*
X39627737Y-80045957D01*
X39490860Y-79930952D01*
X39395401Y-79846128D01*
X39356087Y-79804186D01*
X39356951Y-79802486D01*
X39412510Y-79793971D01*
X39547320Y-79786578D01*
X39752254Y-79780289D01*
X40018189Y-79775086D01*
X40335999Y-79770952D01*
X40696558Y-79767869D01*
X41090743Y-79765819D01*
X41509427Y-79764785D01*
X41943486Y-79764748D01*
X42383794Y-79765692D01*
X42821227Y-79767598D01*
X43246659Y-79770449D01*
X43650966Y-79774227D01*
X44025022Y-79778914D01*
X44359702Y-79784493D01*
X44645881Y-79790946D01*
X44874434Y-79798255D01*
X45036237Y-79806402D01*
X45122163Y-79815371D01*
X45331208Y-79871501D01*
X45704952Y-80036261D01*
X46046891Y-80268796D01*
X46318311Y-80530818D01*
X46344090Y-80555704D01*
X46345431Y-80556999D01*
X46389125Y-80616521D01*
X46441667Y-80688096D01*
X46588977Y-80888767D01*
X46765934Y-81251993D01*
X46864706Y-81634574D01*
X46868479Y-81690525D01*
X46873028Y-81836578D01*
X46877468Y-82063011D01*
X46881764Y-82364492D01*
X46885881Y-82735686D01*
X46889784Y-83171261D01*
X46893436Y-83665884D01*
X46896804Y-84214221D01*
X46899852Y-84810940D01*
X46902543Y-85450707D01*
X46904844Y-86128190D01*
X46906718Y-86838055D01*
X46908131Y-87574969D01*
X46909047Y-88333599D01*
X46914539Y-94762411D01*
X44053367Y-94762411D01*
X43854011Y-94762405D01*
X43302667Y-94762239D01*
X42831869Y-94761691D01*
X42434443Y-94760548D01*
X42103214Y-94758598D01*
X41831007Y-94755630D01*
X41610649Y-94751431D01*
X41434966Y-94745790D01*
X41296781Y-94738495D01*
X41188923Y-94729334D01*
X41104215Y-94718094D01*
X41035483Y-94704565D01*
X40975553Y-94688534D01*
X40917252Y-94669790D01*
X40822442Y-94635167D01*
X40461968Y-94453355D01*
X40133530Y-94209981D01*
X39851611Y-93919370D01*
X39630695Y-93595843D01*
X39485265Y-93253723D01*
X39474543Y-93217713D01*
X39436316Y-93091085D01*
X39410047Y-93006653D01*
X39408664Y-93003345D01*
X39383084Y-93016506D01*
X39340591Y-93098295D01*
X39289620Y-93232870D01*
X39128532Y-93606355D01*
X38882238Y-93973291D01*
X38571604Y-94279088D01*
X38201156Y-94519389D01*
X37775425Y-94689836D01*
X37730484Y-94701643D01*
X37660382Y-94714946D01*
X37570242Y-94726197D01*
X37453061Y-94735561D01*
X37301837Y-94743205D01*
X37109564Y-94749292D01*
X36869242Y-94753990D01*
X36573865Y-94757463D01*
X36216431Y-94759876D01*
X35789937Y-94761395D01*
X35287379Y-94762185D01*
X34701755Y-94762411D01*
X31872695Y-94762411D01*
X31872695Y-92127837D01*
X31872695Y-91046986D01*
X46419149Y-91046986D01*
X46441667Y-91069504D01*
X46464184Y-91046986D01*
X46441667Y-91024468D01*
X46419149Y-91046986D01*
X31872695Y-91046986D01*
X31872695Y-90820903D01*
X46383735Y-90820903D01*
X46389125Y-90874350D01*
X46402671Y-90881396D01*
X46419149Y-90844326D01*
X46415899Y-90820485D01*
X46389125Y-90814303D01*
X46383735Y-90820903D01*
X31872695Y-90820903D01*
X31872695Y-90640761D01*
X46338700Y-90640761D01*
X46344090Y-90694208D01*
X46357636Y-90701254D01*
X46374113Y-90664184D01*
X46370863Y-90640343D01*
X46344090Y-90634161D01*
X46338700Y-90640761D01*
X31872695Y-90640761D01*
X31872695Y-90501641D01*
X46291118Y-90501641D01*
X46301869Y-90561916D01*
X46317243Y-90561219D01*
X46325523Y-90502807D01*
X46318311Y-90458540D01*
X46298314Y-90475598D01*
X46291118Y-90501641D01*
X31872695Y-90501641D01*
X31872695Y-89493262D01*
X33358865Y-89493262D01*
X34845035Y-89493262D01*
X34845035Y-89345100D01*
X34864259Y-89159316D01*
X34917778Y-88924993D01*
X34995781Y-88682025D01*
X35088438Y-88465918D01*
X35182364Y-88303488D01*
X35425536Y-87995930D01*
X35725970Y-87723573D01*
X36062078Y-87504503D01*
X36412274Y-87356804D01*
X36688723Y-87273102D01*
X36408634Y-87178484D01*
X36169120Y-87085534D01*
X35790208Y-86874285D01*
X35471273Y-86602170D01*
X35292023Y-86383999D01*
X35113457Y-86094846D01*
X34971886Y-85785420D01*
X34878636Y-85480964D01*
X34845035Y-85206720D01*
X34845035Y-85034752D01*
X33358865Y-85034752D01*
X31872695Y-85034752D01*
X31872695Y-82393146D01*
X31872695Y-79751540D01*
X32536968Y-79780605D01*
G37*
%TD*%
M02*
