%TF.GenerationSoftware,KiCad,Pcbnew,10.0.3*%
%TF.CreationDate,2026-09-24T23:08:38-06:00*%
%TF.ProjectId,Calculator,43616c63-756c-4617-946f-722e6b696361,rev?*%
%TF.SameCoordinates,Original*%
%TF.FileFunction,Copper,L1,Top*%
%TF.FilePolarity,Positive*%
%FSLAX46Y46*%
G04 Gerber Fmt 4.6, Leading zero omitted, Abs format (unit mm)*
G04 Created by KiCad (PCBNEW 10.0.3) date 2026-09-24 23:08:38*
%MOMM*%
%LPD*%
G01*
G04 APERTURE LIST*
%TA.AperFunction,EtchedComponent*%
%ADD10C,0.100000*%
%TD*%
%TA.AperFunction,ComponentPad*%
%ADD11O,1.524000X1.900000*%
%TD*%
%TA.AperFunction,ComponentPad*%
%ADD12C,2.300000*%
%TD*%
%TA.AperFunction,Conductor*%
%ADD13C,0.200000*%
%TD*%
G04 APERTURE END LIST*
%TO.C,TP5*%
D10*
X39500000Y-73750000D02*
X39500000Y-73750000D01*
G75*
G02*
X40500000Y-72750000I1000000J0D01*
G01*
X42500000Y-72750000D01*
G75*
G02*
X43500000Y-73750000I0J-1000000D01*
G01*
X43500000Y-82250000D01*
G75*
G02*
X42500000Y-83250000I-1000000J0D01*
G01*
X40500000Y-83250000D01*
G75*
G02*
X39500000Y-82250000I0J1000000D01*
G01*
X39500000Y-73750000D01*
%TA.AperFunction,EtchedComponent*%
G36*
X39500000Y-73750000D02*
G01*
X39500000Y-73750000D01*
G75*
G02*
X40500000Y-72750000I1000000J0D01*
G01*
X42500000Y-72750000D01*
G75*
G02*
X43500000Y-73750000I0J-1000000D01*
G01*
X43500000Y-82250000D01*
G75*
G02*
X42500000Y-83250000I-1000000J0D01*
G01*
X40500000Y-83250000D01*
G75*
G02*
X39500000Y-82250000I0J1000000D01*
G01*
X39500000Y-73750000D01*
G37*
%TD.AperFunction*%
%TO.C,TP2*%
X36000000Y-86750000D02*
X36000000Y-86750000D01*
G75*
G02*
X37000000Y-85750000I1000000J0D01*
G01*
X39000000Y-85750000D01*
G75*
G02*
X40000000Y-86750000I0J-1000000D01*
G01*
X40000000Y-95250000D01*
G75*
G02*
X39000000Y-96250000I-1000000J0D01*
G01*
X37000000Y-96250000D01*
G75*
G02*
X36000000Y-95250000I0J1000000D01*
G01*
X36000000Y-86750000D01*
%TA.AperFunction,EtchedComponent*%
G36*
X36000000Y-86750000D02*
G01*
X36000000Y-86750000D01*
G75*
G02*
X37000000Y-85750000I1000000J0D01*
G01*
X39000000Y-85750000D01*
G75*
G02*
X40000000Y-86750000I0J-1000000D01*
G01*
X40000000Y-95250000D01*
G75*
G02*
X39000000Y-96250000I-1000000J0D01*
G01*
X37000000Y-96250000D01*
G75*
G02*
X36000000Y-95250000I0J1000000D01*
G01*
X36000000Y-86750000D01*
G37*
%TD.AperFunction*%
%TO.C,TP8*%
X46000000Y-73750000D02*
X46000000Y-73750000D01*
G75*
G02*
X47000000Y-72750000I1000000J0D01*
G01*
X49000000Y-72750000D01*
G75*
G02*
X50000000Y-73750000I0J-1000000D01*
G01*
X50000000Y-82250000D01*
G75*
G02*
X49000000Y-83250000I-1000000J0D01*
G01*
X47000000Y-83250000D01*
G75*
G02*
X46000000Y-82250000I0J1000000D01*
G01*
X46000000Y-73750000D01*
%TA.AperFunction,EtchedComponent*%
G36*
X46000000Y-73750000D02*
G01*
X46000000Y-73750000D01*
G75*
G02*
X47000000Y-72750000I1000000J0D01*
G01*
X49000000Y-72750000D01*
G75*
G02*
X50000000Y-73750000I0J-1000000D01*
G01*
X50000000Y-82250000D01*
G75*
G02*
X49000000Y-83250000I-1000000J0D01*
G01*
X47000000Y-83250000D01*
G75*
G02*
X46000000Y-82250000I0J1000000D01*
G01*
X46000000Y-73750000D01*
G37*
%TD.AperFunction*%
%TO.C,TP3*%
X42500000Y-86750000D02*
X42500000Y-86750000D01*
G75*
G02*
X43500000Y-85750000I1000000J0D01*
G01*
X45500000Y-85750000D01*
G75*
G02*
X46500000Y-86750000I0J-1000000D01*
G01*
X46500000Y-95250000D01*
G75*
G02*
X45500000Y-96250000I-1000000J0D01*
G01*
X43500000Y-96250000D01*
G75*
G02*
X42500000Y-95250000I0J1000000D01*
G01*
X42500000Y-86750000D01*
%TA.AperFunction,EtchedComponent*%
G36*
X42500000Y-86750000D02*
G01*
X42500000Y-86750000D01*
G75*
G02*
X43500000Y-85750000I1000000J0D01*
G01*
X45500000Y-85750000D01*
G75*
G02*
X46500000Y-86750000I0J-1000000D01*
G01*
X46500000Y-95250000D01*
G75*
G02*
X45500000Y-96250000I-1000000J0D01*
G01*
X43500000Y-96250000D01*
G75*
G02*
X42500000Y-95250000I0J1000000D01*
G01*
X42500000Y-86750000D01*
G37*
%TD.AperFunction*%
%TO.C,TP6*%
X49000000Y-86750000D02*
X49000000Y-86750000D01*
G75*
G02*
X50000000Y-85750000I1000000J0D01*
G01*
X52000000Y-85750000D01*
G75*
G02*
X53000000Y-86750000I0J-1000000D01*
G01*
X53000000Y-95250000D01*
G75*
G02*
X52000000Y-96250000I-1000000J0D01*
G01*
X50000000Y-96250000D01*
G75*
G02*
X49000000Y-95250000I0J1000000D01*
G01*
X49000000Y-86750000D01*
%TA.AperFunction,EtchedComponent*%
G36*
X49000000Y-86750000D02*
G01*
X49000000Y-86750000D01*
G75*
G02*
X50000000Y-85750000I1000000J0D01*
G01*
X52000000Y-85750000D01*
G75*
G02*
X53000000Y-86750000I0J-1000000D01*
G01*
X53000000Y-95250000D01*
G75*
G02*
X52000000Y-96250000I-1000000J0D01*
G01*
X50000000Y-96250000D01*
G75*
G02*
X49000000Y-95250000I0J1000000D01*
G01*
X49000000Y-86750000D01*
G37*
%TD.AperFunction*%
%TO.C,TP9*%
X52500000Y-73750000D02*
X52500000Y-73750000D01*
G75*
G02*
X53500000Y-72750000I1000000J0D01*
G01*
X55500000Y-72750000D01*
G75*
G02*
X56500000Y-73750000I0J-1000000D01*
G01*
X56500000Y-82250000D01*
G75*
G02*
X55500000Y-83250000I-1000000J0D01*
G01*
X53500000Y-83250000D01*
G75*
G02*
X52500000Y-82250000I0J1000000D01*
G01*
X52500000Y-73750000D01*
%TA.AperFunction,EtchedComponent*%
G36*
X52500000Y-73750000D02*
G01*
X52500000Y-73750000D01*
G75*
G02*
X53500000Y-72750000I1000000J0D01*
G01*
X55500000Y-72750000D01*
G75*
G02*
X56500000Y-73750000I0J-1000000D01*
G01*
X56500000Y-82250000D01*
G75*
G02*
X55500000Y-83250000I-1000000J0D01*
G01*
X53500000Y-83250000D01*
G75*
G02*
X52500000Y-82250000I0J1000000D01*
G01*
X52500000Y-73750000D01*
G37*
%TD.AperFunction*%
%TO.C,TP7*%
X55500000Y-86750000D02*
X55500000Y-86750000D01*
G75*
G02*
X56500000Y-85750000I1000000J0D01*
G01*
X58500000Y-85750000D01*
G75*
G02*
X59500000Y-86750000I0J-1000000D01*
G01*
X59500000Y-95250000D01*
G75*
G02*
X58500000Y-96250000I-1000000J0D01*
G01*
X56500000Y-96250000D01*
G75*
G02*
X55500000Y-95250000I0J1000000D01*
G01*
X55500000Y-86750000D01*
%TA.AperFunction,EtchedComponent*%
G36*
X55500000Y-86750000D02*
G01*
X55500000Y-86750000D01*
G75*
G02*
X56500000Y-85750000I1000000J0D01*
G01*
X58500000Y-85750000D01*
G75*
G02*
X59500000Y-86750000I0J-1000000D01*
G01*
X59500000Y-95250000D01*
G75*
G02*
X58500000Y-96250000I-1000000J0D01*
G01*
X56500000Y-96250000D01*
G75*
G02*
X55500000Y-95250000I0J1000000D01*
G01*
X55500000Y-86750000D01*
G37*
%TD.AperFunction*%
%TO.C,TP4*%
X33000000Y-73750000D02*
X33000000Y-73750000D01*
G75*
G02*
X34000000Y-72750000I1000000J0D01*
G01*
X36000000Y-72750000D01*
G75*
G02*
X37000000Y-73750000I0J-1000000D01*
G01*
X37000000Y-82250000D01*
G75*
G02*
X36000000Y-83250000I-1000000J0D01*
G01*
X34000000Y-83250000D01*
G75*
G02*
X33000000Y-82250000I0J1000000D01*
G01*
X33000000Y-73750000D01*
%TA.AperFunction,EtchedComponent*%
G36*
X33000000Y-73750000D02*
G01*
X33000000Y-73750000D01*
G75*
G02*
X34000000Y-72750000I1000000J0D01*
G01*
X36000000Y-72750000D01*
G75*
G02*
X37000000Y-73750000I0J-1000000D01*
G01*
X37000000Y-82250000D01*
G75*
G02*
X36000000Y-83250000I-1000000J0D01*
G01*
X34000000Y-83250000D01*
G75*
G02*
X33000000Y-82250000I0J1000000D01*
G01*
X33000000Y-73750000D01*
G37*
%TD.AperFunction*%
%TO.C,TP1*%
X29500000Y-86750000D02*
X29500000Y-86750000D01*
G75*
G02*
X30500000Y-85750000I1000000J0D01*
G01*
X32500000Y-85750000D01*
G75*
G02*
X33500000Y-86750000I0J-1000000D01*
G01*
X33500000Y-95250000D01*
G75*
G02*
X32500000Y-96250000I-1000000J0D01*
G01*
X30500000Y-96250000D01*
G75*
G02*
X29500000Y-95250000I0J1000000D01*
G01*
X29500000Y-86750000D01*
%TA.AperFunction,EtchedComponent*%
G36*
X29500000Y-86750000D02*
G01*
X29500000Y-86750000D01*
G75*
G02*
X30500000Y-85750000I1000000J0D01*
G01*
X32500000Y-85750000D01*
G75*
G02*
X33500000Y-86750000I0J-1000000D01*
G01*
X33500000Y-95250000D01*
G75*
G02*
X32500000Y-96250000I-1000000J0D01*
G01*
X30500000Y-96250000D01*
G75*
G02*
X29500000Y-95250000I0J1000000D01*
G01*
X29500000Y-86750000D01*
G37*
%TD.AperFunction*%
%TD*%
D11*
%TO.P,U1,1,VIN_1*%
%TO.N,unconnected-(U1-VIN-Pad1)*%
X34812277Y-23044920D03*
%TO.P,U1,2,GND_2*%
%TO.N,unconnected-(U1-GND-Pad2)*%
X37352277Y-23044920D03*
%TO.P,U1,3,GPIO13_3*%
%TO.N,/Col 1*%
X39892277Y-23044920D03*
%TO.P,U1,4,GPIO12_4*%
%TO.N,unconnected-(U1-GPIO12-Pad4)*%
X42432277Y-23044920D03*
%TO.P,U1,5,GPIO14_5*%
%TO.N,/Col 3*%
X44972277Y-23044920D03*
%TO.P,U1,6,GPIO27_6*%
%TO.N,/Col 4*%
X47512277Y-23044920D03*
%TO.P,U1,7,GPIO26_7*%
%TO.N,/Row A*%
X50052277Y-23044920D03*
%TO.P,U1,8,GPIO25_8*%
%TO.N,/Row B*%
X52592277Y-23044920D03*
%TO.P,U1,9,GPIO33_9*%
%TO.N,/Row C*%
X55132277Y-23044920D03*
%TO.P,U1,10,GPIO32_10*%
%TO.N,/Row D*%
X57672277Y-23044920D03*
%TO.P,U1,11,GPIO35_11*%
%TO.N,unconnected-(U1-GPIO35-Pad11)*%
X60212277Y-23044920D03*
%TO.P,U1,12,GPIO34_12*%
%TO.N,unconnected-(U1-GPIO34-Pad12)*%
X62752277Y-23044920D03*
%TO.P,U1,13,GPIO39_13*%
%TO.N,unconnected-(U1-GPIO39-Pad13)*%
X65292277Y-23044920D03*
%TO.P,U1,14,GPIO36_14*%
%TO.N,unconnected-(U1-GPIO36-Pad14)*%
X67832277Y-23044920D03*
%TO.P,U1,15,EN_15*%
%TO.N,unconnected-(U1-EN-Pad15)*%
X70372277Y-23044920D03*
%TO.P,U1,16,3.3v_16*%
%TO.N,/VCC*%
X34812277Y-48444920D03*
%TO.P,U1,17,GND_17*%
%TO.N,/GND*%
X37352277Y-48444920D03*
%TO.P,U1,18,GPIO15_18*%
%TO.N,unconnected-(U1-GPIO15-Pad18)*%
X39892277Y-48444920D03*
%TO.P,U1,19,GPIO2_19*%
%TO.N,/DC{slash}RS*%
X42432277Y-48444920D03*
%TO.P,U1,20,GPIO4_20*%
%TO.N,/LED*%
X44972277Y-48444920D03*
%TO.P,U1,21,GPIO16_21*%
%TO.N,/RESET*%
X47512277Y-48444920D03*
%TO.P,U1,22,GPIO17_22*%
%TO.N,unconnected-(U1-GPIO17-Pad22)*%
X50052277Y-48444920D03*
%TO.P,U1,23,GPIO5_23*%
%TO.N,/CS*%
X52592277Y-48444920D03*
%TO.P,U1,24,GPIO18_24*%
%TO.N,/SCK*%
X55132277Y-48444920D03*
%TO.P,U1,25,GPIO19_25*%
%TO.N,/SDO(MISO)*%
X57672277Y-48444920D03*
%TO.P,U1,26,GPIO21_26*%
%TO.N,/Row E*%
X60212277Y-48444920D03*
%TO.P,U1,27,GPIO3_27*%
%TO.N,unconnected-(U1-GPIO3-Pad27)*%
X62752277Y-48444920D03*
%TO.P,U1,28,GPIO1_28*%
%TO.N,unconnected-(U1-GPIO1-Pad28)*%
X65292277Y-48444920D03*
%TO.P,U1,29,GPIO22_29*%
%TO.N,/Col 2*%
X67832277Y-48444920D03*
%TO.P,U1,30,GPIO23_30*%
%TO.N,/SDI(MOSI)*%
X70372277Y-48444920D03*
%TD*%
D12*
%TO.P,SW20,1*%
%TO.N,/Row E*%
X164960000Y-33310000D03*
%TO.P,SW20,2*%
%TO.N,/Col 4*%
X162420000Y-26960000D03*
%TD*%
%TO.P,SW19,1*%
%TO.N,/Row D*%
X145460000Y-33310000D03*
%TO.P,SW19,2*%
%TO.N,/Col 4*%
X142920000Y-26960000D03*
%TD*%
%TO.P,SW18,1*%
%TO.N,/Row C*%
X125960000Y-33310000D03*
%TO.P,SW18,2*%
%TO.N,/Col 4*%
X123420000Y-26960000D03*
%TD*%
%TO.P,SW17,1*%
%TO.N,/Row B*%
X106460000Y-33310000D03*
%TO.P,SW17,2*%
%TO.N,/Col 4*%
X103920000Y-26960000D03*
%TD*%
%TO.P,SW16,1*%
%TO.N,/Row A*%
X86960000Y-33310000D03*
%TO.P,SW16,2*%
%TO.N,/Col 4*%
X84420000Y-26960000D03*
%TD*%
%TO.P,SW15,1*%
%TO.N,/Row E*%
X164960000Y-52810000D03*
%TO.P,SW15,2*%
%TO.N,/Col 3*%
X162420000Y-46460000D03*
%TD*%
%TO.P,SW14,1*%
%TO.N,/Row D*%
X145460000Y-52810000D03*
%TO.P,SW14,2*%
%TO.N,/Col 3*%
X142920000Y-46460000D03*
%TD*%
%TO.P,SW13,1*%
%TO.N,/Row C*%
X125960000Y-52810000D03*
%TO.P,SW13,2*%
%TO.N,/Col 3*%
X123420000Y-46460000D03*
%TD*%
%TO.P,SW12,1*%
%TO.N,/Row B*%
X106460000Y-52810000D03*
%TO.P,SW12,2*%
%TO.N,/Col 3*%
X103920000Y-46460000D03*
%TD*%
%TO.P,SW11,1*%
%TO.N,/Row A*%
X86960000Y-52810000D03*
%TO.P,SW11,2*%
%TO.N,/Col 3*%
X84420000Y-46460000D03*
%TD*%
%TO.P,SW10,1*%
%TO.N,/Row E*%
X164960000Y-72310000D03*
%TO.P,SW10,2*%
%TO.N,/Col 2*%
X162420000Y-65960000D03*
%TD*%
%TO.P,SW9,1*%
%TO.N,/Row D*%
X145460000Y-72310000D03*
%TO.P,SW9,2*%
%TO.N,/Col 2*%
X142920000Y-65960000D03*
%TD*%
%TO.P,SW8,1*%
%TO.N,/Row C*%
X125960000Y-72310000D03*
%TO.P,SW8,2*%
%TO.N,/Col 2*%
X123420000Y-65960000D03*
%TD*%
%TO.P,SW7,1*%
%TO.N,/Row B*%
X106460000Y-72310000D03*
%TO.P,SW7,2*%
%TO.N,/Col 2*%
X103920000Y-65960000D03*
%TD*%
%TO.P,SW6,1*%
%TO.N,/Row A*%
X86960000Y-72310000D03*
%TO.P,SW6,2*%
%TO.N,/Col 2*%
X84420000Y-65960000D03*
%TD*%
%TO.P,SW5,1*%
%TO.N,/Row E*%
X164960000Y-91810000D03*
%TO.P,SW5,2*%
%TO.N,/Col 1*%
X162420000Y-85460000D03*
%TD*%
%TO.P,SW4,1*%
%TO.N,/Row D*%
X145460000Y-91810000D03*
%TO.P,SW4,2*%
%TO.N,/Col 1*%
X142920000Y-85460000D03*
%TD*%
%TO.P,SW3,1*%
%TO.N,/Row C*%
X125960000Y-91810000D03*
%TO.P,SW3,2*%
%TO.N,/Col 1*%
X123420000Y-85460000D03*
%TD*%
%TO.P,SW2,1*%
%TO.N,/Row B*%
X106460000Y-91810000D03*
%TO.P,SW2,2*%
%TO.N,/Col 1*%
X103920000Y-85460000D03*
%TD*%
%TO.P,SW1,1*%
%TO.N,/Row A*%
X86960000Y-91810000D03*
%TO.P,SW1,2*%
%TO.N,/Col 1*%
X84420000Y-85460000D03*
%TD*%
%TO.N,/Col 1*%
D13*
X39892277Y-25392277D02*
X39892277Y-23044920D01*
X71434277Y-72434277D02*
X71434277Y-47817025D01*
X41500000Y-27000000D02*
X39892277Y-25392277D01*
X84500000Y-85500000D02*
X71434277Y-72434277D01*
X50617252Y-27000000D02*
X41500000Y-27000000D01*
X84500000Y-85500000D02*
X162500000Y-85500000D01*
X71434277Y-47817025D02*
X50617252Y-27000000D01*
%TO.N,/Col 2*%
X84500000Y-66000000D02*
X162500000Y-66000000D01*
%TO.N,/Col 3*%
X84500000Y-46500000D02*
X104000000Y-46500000D01*
X44972277Y-23044920D02*
X47527357Y-25600000D01*
X104000000Y-46500000D02*
X162500000Y-46500000D01*
X47527357Y-25600000D02*
X63600000Y-25600000D01*
X63600000Y-25600000D02*
X84500000Y-46500000D01*
%TO.N,/Col 4*%
X104000000Y-27000000D02*
X123500000Y-27000000D01*
X84500000Y-27000000D02*
X65565686Y-27000000D01*
X143000000Y-27000000D02*
X162500000Y-27000000D01*
X123500000Y-27000000D02*
X143000000Y-27000000D01*
X65565686Y-27000000D02*
X63565686Y-25000000D01*
X63565686Y-25000000D02*
X49467357Y-25000000D01*
X84500000Y-27000000D02*
X104000000Y-27000000D01*
X49467357Y-25000000D02*
X47512277Y-23044920D01*
%TO.N,/VCC*%
X31500000Y-70000000D02*
X31500000Y-52000000D01*
X34812277Y-48687723D02*
X34812277Y-48444920D01*
X31500000Y-91000000D02*
X31500000Y-70000000D01*
X31500000Y-52000000D02*
X34812277Y-48687723D01*
%TO.N,/GND*%
X35000000Y-78000000D02*
X35000000Y-70000000D01*
X37352277Y-49647723D02*
X37352277Y-48444920D01*
X35000000Y-52000000D02*
X37352277Y-49647723D01*
X35000000Y-70000000D02*
X35000000Y-52000000D01*
%TO.N,/DC{slash}RS*%
X39000000Y-51000000D02*
X40000000Y-51000000D01*
X38000000Y-52000000D02*
X39000000Y-51000000D01*
X40000000Y-51000000D02*
X42432277Y-48567723D01*
X38000000Y-91000000D02*
X38000000Y-70000000D01*
X38000000Y-70000000D02*
X38000000Y-52000000D01*
X42432277Y-48567723D02*
X42432277Y-48444920D01*
%TO.N,/LED*%
X41500000Y-70000000D02*
X41500000Y-51917197D01*
X41500000Y-51917197D02*
X44972277Y-48444920D01*
X41500000Y-78000000D02*
X41500000Y-70000000D01*
%TO.N,/RESET*%
X44500000Y-91000000D02*
X44500000Y-70000000D01*
X44500000Y-52000000D02*
X47512277Y-48987723D01*
X47512277Y-48987723D02*
X47512277Y-48444920D01*
X44500000Y-70000000D02*
X44500000Y-52000000D01*
%TO.N,/CS*%
X52592277Y-48907723D02*
X52592277Y-48444920D01*
X49000000Y-51000000D02*
X50500000Y-51000000D01*
X48000000Y-70000000D02*
X48000000Y-52000000D01*
X48000000Y-78000000D02*
X48000000Y-70000000D01*
X50500000Y-51000000D02*
X52592277Y-48907723D01*
X48000000Y-52000000D02*
X49000000Y-51000000D01*
%TO.N,/SCK*%
X51000000Y-70000000D02*
X51000000Y-52000000D01*
X51000000Y-91000000D02*
X51000000Y-70000000D01*
X51000000Y-52000000D02*
X54555080Y-48444920D01*
X54555080Y-48444920D02*
X55132277Y-48444920D01*
%TO.N,/SDO(MISO)*%
X54500000Y-52000000D02*
X57672277Y-48827723D01*
X54500000Y-70000000D02*
X54500000Y-52000000D01*
X57672277Y-48827723D02*
X57672277Y-48444920D01*
X54500000Y-78000000D02*
X54500000Y-70000000D01*
%TO.N,/SDI(MOSI)*%
X57500000Y-52000000D02*
X58500000Y-51000000D01*
X58500000Y-51000000D02*
X67817197Y-51000000D01*
X57500000Y-70000000D02*
X57500000Y-52000000D01*
X57500000Y-90870014D02*
X57500000Y-70000000D01*
X67817197Y-51000000D02*
X70372277Y-48444920D01*
%TD*%
M02*
