M48
; DRILL file KiCad 10.0.3 date 2026-09-24T23:02:39
; FORMAT={-:-/ absolute / metric / decimal}
; #@! TF.CreationDate,2026-09-24T23:02:39-06:00
; #@! TF.GenerationSoftware,Kicad,Pcbnew,10.0.3
; #@! TF.FileFunction,NonPlated,1,2,NPTH
FMAT,2
METRIC
; #@! TA.AperFunction,NonPlated,NPTH,ComponentDrill
T1C1.702
; #@! TA.AperFunction,NonPlated,NPTH,ComponentDrill
T2C3.988
%
G90
G05
T1
X89.5Y-24.42
X89.5Y-34.58
X89.5Y-43.92
X89.5Y-54.08
X89.5Y-63.42
X89.5Y-73.58
X89.5Y-82.92
X89.5Y-93.08
X109.0Y-24.42
X109.0Y-34.58
X109.0Y-43.92
X109.0Y-54.08
X109.0Y-63.42
X109.0Y-73.58
X109.0Y-82.92
X109.0Y-93.08
X128.5Y-24.42
X128.5Y-34.58
X128.5Y-43.92
X128.5Y-54.08
X128.5Y-63.42
X128.5Y-73.58
X128.5Y-82.92
X128.5Y-93.08
X148.0Y-24.42
X148.0Y-34.58
X148.0Y-43.92
X148.0Y-54.08
X148.0Y-63.42
X148.0Y-73.58
X148.0Y-82.92
X148.0Y-93.08
X167.5Y-24.42
X167.5Y-34.58
X167.5Y-43.92
X167.5Y-54.08
X167.5Y-63.42
X167.5Y-73.58
X167.5Y-82.92
X167.5Y-93.08
T2
X89.5Y-29.5
X89.5Y-49.0
X89.5Y-68.5
X89.5Y-88.0
X109.0Y-29.5
X109.0Y-49.0
X109.0Y-68.5
X109.0Y-88.0
X128.5Y-29.5
X128.5Y-49.0
X128.5Y-68.5
X128.5Y-88.0
X148.0Y-29.5
X148.0Y-49.0
X148.0Y-68.5
X148.0Y-88.0
X167.5Y-29.5
X167.5Y-49.0
X167.5Y-68.5
X167.5Y-88.0
M30
