ISO-10303-21;
HEADER;
FILE_DESCRIPTION (( 'STEP AP214' ),
    '1' );
FILE_NAME ('Basic_Key_Cap.STEP',
    '2026-10-06T03:32:33',
    ( '' ),
    ( '' ),
    'SwSTEP 2.0',
    'SolidWorks 2024',
    '' );
FILE_SCHEMA (( 'AUTOMOTIVE_DESIGN' ));
ENDSEC;

DATA;
#1 = ORIENTED_EDGE ( 'NONE', *, *, #159, .T. ) ;
#2 = CARTESIAN_POINT ( 'NONE',  ( -4.988054989708642140, 4.000000000000000000, -6.180640064364882932E-16 ) ) ;
#3 = EDGE_CURVE ( 'NONE', #597, #529, #686, .T. ) ;
#4 = ORIENTED_EDGE ( 'NONE', *, *, #499, .F. ) ;
#5 = CARTESIAN_POINT ( 'NONE',  ( -0.1189359267734544784, 0.000000000000000000, -0.1096681922196785508 ) ) ;
#6 = VERTEX_POINT ( 'NONE', #410 ) ;
#7 = ADVANCED_FACE ( 'NONE', ( #180 ), #260, .T. ) ;
#8 = PRODUCT_DEFINITION_FORMATION_WITH_SPECIFIED_SOURCE ( 'ANY', '', #710, .NOT_KNOWN. ) ;
#9 = DIRECTION ( 'NONE',  ( -0.000000000000000000, 0.000000000000000000, 1.000000000000000000 ) ) ;
#10 = LINE ( 'NONE', #226, #222 ) ;
#11 = VERTEX_POINT ( 'NONE', #100 ) ;
#12 = PLANE ( 'NONE',  #908 ) ;
#13 = VERTEX_POINT ( 'NONE', #690 ) ;
#14 = CARTESIAN_POINT ( 'NONE',  ( 7.556064073226545830, 0.000000000000000000, 8.915331807780320972 ) ) ;
#15 = VERTEX_POINT ( 'NONE', #483 ) ;
#16 = CARTESIAN_POINT ( 'NONE',  ( 0.5560640732265466069, 0.000000000000000000, 1.915331807780320972 ) ) ;
#17 = ORIENTED_EDGE ( 'NONE', *, *, #935, .F. ) ;
#18 = EDGE_CURVE ( 'NONE', #382, #496, #390, .T. ) ;
#19 = CARTESIAN_POINT ( 'NONE',  ( 2.581064073226545741, 4.000000000000000000, 1.240331807780321594 ) ) ;
#20 = ORIENTED_EDGE ( 'NONE', *, *, #784, .T. ) ;
#21 = EDGE_CURVE ( 'NONE', #529, #655, #168, .T. ) ;
#22 = CARTESIAN_POINT ( 'NONE',  ( -0.1189359267734547143, 0.000000000000000000, 3.940331807780321771 ) ) ;
#23 = ORIENTED_EDGE ( 'NONE', *, *, #493, .F. ) ;
#24 = VECTOR ( 'NONE', #380, 1000.000000000000000 ) ;
#25 = DIRECTION ( 'NONE',  ( 0.000000000000000000, 0.000000000000000000, -1.000000000000000000 ) ) ;
#26 = PRESENTATION_LAYER_ASSIGNMENT (  '', '', ( #40 ) ) ;
#27 = EDGE_CURVE ( 'NONE', #678, #796, #171, .T. ) ;
#28 = LINE ( 'NONE', #783, #819 ) ;
#29 = EDGE_CURVE ( 'NONE', #6, #411, #919, .T. ) ;
#30 = CARTESIAN_POINT ( 'NONE',  ( -6.640841681966902978E-17, 4.000000000000000000, 1.240331807780321371 ) ) ;
#31 = DIRECTION ( 'NONE',  ( 0.000000000000000000, -1.000000000000000000, 0.000000000000000000 ) ) ;
#32 = DIRECTION ( 'NONE',  ( 1.000000000000000000, 0.000000000000000000, 0.000000000000000000 ) ) ;
#33 = EDGE_CURVE ( 'NONE', #411, #821, #114, .T. ) ;
#34 = CARTESIAN_POINT ( 'NONE',  ( 0.5560640732265466069, 0.000000000000000000, 1.915331807780320972 ) ) ;
#35 = DIRECTION ( 'NONE',  ( 1.000000000000000000, 0.000000000000000000, 5.354084802397554351E-17 ) ) ;
#36 = ORIENTED_EDGE ( 'NONE', *, *, #532, .F. ) ;
#37 = AXIS2_PLACEMENT_3D ( 'NONE', #769, #31, #105 ) ;
#38 = DIRECTION ( 'NONE',  ( -0.000000000000000000, 1.000000000000000000, -0.000000000000000000 ) ) ;
#39 = CIRCLE ( 'NONE', #269, 2.000000000000000000 ) ;
#40 = STYLED_ITEM ( 'NONE', ( #513 ), #764 ) ;
#41 = FACE_OUTER_BOUND ( 'NONE', #134, .T. ) ;
#42 = VERTEX_POINT ( 'NONE', #248 ) ;
#43 = DIRECTION ( 'NONE',  ( -1.000000000000000000, -0.000000000000000000, -0.000000000000000000 ) ) ;
#44 = CARTESIAN_POINT ( 'NONE',  ( 0.5560640732265466069, 0.000000000000000000, 4.915331807780320972 ) ) ;
#45 = ORIENTED_EDGE ( 'NONE', *, *, #21, .F. ) ;
#46 = DIRECTION ( 'NONE',  ( -0.000000000000000000, 1.000000000000000000, -0.000000000000000000 ) ) ;
#47 = CARTESIAN_POINT ( 'NONE',  ( -8.443935926773454170, 6.000000000000000000, 10.91533180778032097 ) ) ;
#48 = DIRECTION ( 'NONE',  ( -0.000000000000000000, -1.000000000000000000, -0.000000000000000000 ) ) ;
#49 = EDGE_CURVE ( 'NONE', #903, #480, #317, .T. ) ;
#50 = ORIENTED_EDGE ( 'NONE', *, *, #776, .F. ) ;
#51 = DIRECTION ( 'NONE',  ( 0.000000000000000000, 0.000000000000000000, -1.000000000000000000 ) ) ;
#52 = DIRECTION ( 'NONE',  ( 0.000000000000000000, -1.000000000000000000, 0.000000000000000000 ) ) ;
#53 = CARTESIAN_POINT ( 'NONE',  ( -8.443935926773454170, 0.000000000000000000, 10.91533180778032097 ) ) ;
#54 = VECTOR ( 'NONE', #745, 1000.000000000000114 ) ;
#55 =( GEOMETRIC_REPRESENTATION_CONTEXT ( 3 ) GLOBAL_UNCERTAINTY_ASSIGNED_CONTEXT ( ( #890 ) ) GLOBAL_UNIT_ASSIGNED_CONTEXT ( ( #357, #884, #805 ) ) REPRESENTATION_CONTEXT ( 'NONE', 'WORKASPACE' ) );
#56 = ORIENTED_EDGE ( 'NONE', *, *, #860, .F. ) ;
#57 = DIRECTION ( 'NONE',  ( 0.000000000000000000, -1.000000000000000000, 0.000000000000000000 ) ) ;
#58 = CARTESIAN_POINT ( 'NONE',  ( 7.556064073226545830, 6.000000000000000000, 10.91533180778032097 ) ) ;
#59 = EDGE_LOOP ( 'NONE', ( #276, #194, #389, #444 ) ) ;
#60 = LINE ( 'NONE', #711, #838 ) ;
#61 = EDGE_CURVE ( 'NONE', #446, #338, #757, .T. ) ;
#62 = PLANE ( 'NONE',  #822 ) ;
#63 = ORIENTED_EDGE ( 'NONE', *, *, #700, .T. ) ;
#64 = EDGE_CURVE ( 'NONE', #697, #840, #833, .T. ) ;
#65 = DIRECTION ( 'NONE',  ( 1.000000000000000000, 0.000000000000000000, 1.070816960479510377E-16 ) ) ;
#66 = EDGE_CURVE ( 'NONE', #921, #847, #208, .T. ) ;
#67 = VERTEX_POINT ( 'NONE', #111 ) ;
#68 = CARTESIAN_POINT ( 'NONE',  ( -8.443935926773455947, 6.000000000000000000, -7.084668192219678140 ) ) ;
#69 = VECTOR ( 'NONE', #693, 1000.000000000000000 ) ;
#70 = AXIS2_PLACEMENT_3D ( 'NONE', #372, #214, #661 ) ;
#71 = VECTOR ( 'NONE', #32, 1000.000000000000000 ) ;
#72 = DIRECTION ( 'NONE',  ( -1.000000000000000000, 0.000000000000000000, -1.606225440719266120E-16 ) ) ;
#73 = CARTESIAN_POINT ( 'NONE',  ( -8.443935926773454170, 6.000000000000000000, 8.915331807780322748 ) ) ;
#74 = EDGE_LOOP ( 'NONE', ( #477, #554, #95, #123 ) ) ;
#75 = ADVANCED_FACE ( 'NONE', ( #41 ), #395, .T. ) ;
#76 = ORIENTED_EDGE ( 'NONE', *, *, #196, .F. ) ;
#77 = CARTESIAN_POINT ( 'NONE',  ( 7.556064073226545830, 0.000000000000000000, 8.915331807780322748 ) ) ;
#78 = ORIENTED_EDGE ( 'NONE', *, *, #231, .F. ) ;
#79 = ADVANCED_FACE ( 'NONE', ( #553 ), #615, .T. ) ;
#80 = PLANE ( 'NONE',  #906 ) ;
#81 = ORIENTED_EDGE ( 'NONE', *, *, #49, .F. ) ;
#82 = FACE_OUTER_BOUND ( 'NONE', #901, .T. ) ;
#83 = ORIENTED_EDGE ( 'NONE', *, *, #300, .T. ) ;
#84 = VERTEX_POINT ( 'NONE', #851 ) ;
#85 = VECTOR ( 'NONE', #35, 1000.000000000000000 ) ;
#86 = VECTOR ( 'NONE', #366, 1000.000000000000000 ) ;
#87 = FILL_AREA_STYLE ('',( #139 ) ) ;
#88 = ORIENTED_EDGE ( 'NONE', *, *, #300, .F. ) ;
#89 = PLANE ( 'NONE',  #590 ) ;
#90 = VERTEX_POINT ( 'NONE', #474 ) ;
#91 = EDGE_CURVE ( 'NONE', #594, #15, #765, .T. ) ;
#92 = VERTEX_POINT ( 'NONE', #647 ) ;
#93 = EDGE_CURVE ( 'NONE', #924, #435, #131, .T. ) ;
#94 = DIRECTION ( 'NONE',  ( 1.000000000000000000, 0.000000000000000000, 0.000000000000000000 ) ) ;
#95 = ORIENTED_EDGE ( 'NONE', *, *, #331, .F. ) ;
#96 = EDGE_CURVE ( 'NONE', #697, #166, #797, .T. ) ;
#97 = PLANE ( 'NONE',  #918 ) ;
#98 = ORIENTED_EDGE ( 'NONE', *, *, #246, .T. ) ;
#99 = DIRECTION ( 'NONE',  ( 0.000000000000000000, 0.9396926207859082059, 0.3420201433256694901 ) ) ;
#100 = CARTESIAN_POINT ( 'NONE',  ( 1.231064073226545652, 0.000000000000000000, -0.1096681922196784675 ) ) ;
#101 = CARTESIAN_POINT ( 'NONE',  ( -6.443935926773455947, 0.000000000000000000, 8.915331807780320972 ) ) ;
#102 = VECTOR ( 'NONE', #436, 1000.000000000000000 ) ;
#103 = CARTESIAN_POINT ( 'NONE',  ( 1.231064073226545208, 0.000000000000000000, 3.940331807780321771 ) ) ;
#104 = VECTOR ( 'NONE', #393, 1000.000000000000000 ) ;
#105 = DIRECTION ( 'NONE',  ( 0.000000000000000000, 0.000000000000000000, -1.000000000000000000 ) ) ;
#106 = EDGE_CURVE ( 'NONE', #11, #736, #279, .T. ) ;
#107 = PLANE ( 'NONE',  #210 ) ;
#108 = CARTESIAN_POINT ( 'NONE',  ( -6.443935926773455947, 6.000000000000000000, -5.084668192219678140 ) ) ;
#109 = ORIENTED_EDGE ( 'NONE', *, *, #236, .T. ) ;
#110 = CARTESIAN_POINT ( 'NONE',  ( 2.581064073226545741, 0.000000000000000000, 0.000000000000000000 ) ) ;
#111 = CARTESIAN_POINT ( 'NONE',  ( 7.556064073226545830, 0.000000000000000000, 8.915331807780320972 ) ) ;
#112 = ORIENTED_EDGE ( 'NONE', *, *, #96, .F. ) ;
#113 =( NAMED_UNIT ( * ) PLANE_ANGLE_UNIT ( ) SI_UNIT ( $, .RADIAN. ) );
#114 = CIRCLE ( 'NONE', #37, 3.000000000000000444 ) ;
#115 = CARTESIAN_POINT ( 'NONE',  ( -6.443935926773455947, 6.000000000000000000, -7.084668192219678140 ) ) ;
#116 = AXIS2_PLACEMENT_3D ( 'NONE', #782, #938, #566 ) ;
#117 = CARTESIAN_POINT ( 'NONE',  ( 0.000000000000000000, 6.000000000000000000, 0.000000000000000000 ) ) ;
#118 = ORIENTED_EDGE ( 'NONE', *, *, #33, .F. ) ;
#119 = VERTEX_POINT ( 'NONE', #644 ) ;
#120 = LINE ( 'NONE', #195, #285 ) ;
#121 = DIRECTION ( 'NONE',  ( 0.000000000000000000, 0.000000000000000000, -1.000000000000000000 ) ) ;
#122 = FACE_OUTER_BOUND ( 'NONE', #629, .T. ) ;
#123 = ORIENTED_EDGE ( 'NONE', *, *, #846, .F. ) ;
#124 = CARTESIAN_POINT ( 'NONE',  ( -0.1189359267734544784, 0.000000000000000000, -0.1096681922196785508 ) ) ;
#125 = DIRECTION ( 'NONE',  ( 0.3236155771181853380, -0.8891264907159879272, -0.3236155771181852270 ) ) ;
#126 = CARTESIAN_POINT ( 'NONE',  ( 1.231064073226545652, 0.000000000000000000, 1.318244289047975164E-16 ) ) ;
#127 = ORIENTED_EDGE ( 'NONE', *, *, #400, .F. ) ;
#128 = LINE ( 'NONE', #339, #731 ) ;
#129 = LINE ( 'NONE', #430, #663 ) ;
#130 = VECTOR ( 'NONE', #682, 1000.000000000000000 ) ;
#131 = LINE ( 'NONE', #275, #574 ) ;
#132 = AXIS2_PLACEMENT_3D ( 'NONE', #34, #38, #537 ) ;
#133 = AXIS2_PLACEMENT_3D ( 'NONE', #319, #684, #535 ) ;
#134 = EDGE_LOOP ( 'NONE', ( #56, #584, #328, #412 ) ) ;
#135 = EDGE_CURVE ( 'NONE', #137, #431, #266, .T. ) ;
#136 = FACE_OUTER_BOUND ( 'NONE', #145, .T. ) ;
#137 = VERTEX_POINT ( 'NONE', #855 ) ;
#138 = PLANE ( 'NONE',  #359 ) ;
#139 = FILL_AREA_STYLE_COLOUR ( '', #761 ) ;
#140 = LINE ( 'NONE', #53, #484 ) ;
#141 = DIRECTION ( 'NONE',  ( 0.9396926207859080948, 0.3420201433256694346, 1.164362035342490253E-16 ) ) ;
#142 = VECTOR ( 'NONE', #254, 1000.000000000000000 ) ;
#143 = VECTOR ( 'NONE', #263, 1000.000000000000000 ) ;
#144 = LINE ( 'NONE', #831, #806 ) ;
#145 = EDGE_LOOP ( 'NONE', ( #453, #604, #278, #702 ) ) ;
#146 = EDGE_CURVE ( 'NONE', #67, #84, #720, .T. ) ;
#147 = PLANE ( 'NONE',  #681 ) ;
#148 = VERTEX_POINT ( 'NONE', #198 ) ;
#149 = SURFACE_STYLE_FILL_AREA ( #87 ) ;
#150 = VERTEX_POINT ( 'NONE', #563 ) ;
#151 = CARTESIAN_POINT ( 'NONE',  ( -0.1189359267734544784, 4.000000000000000000, -7.163921677464232681E-18 ) ) ;
#152 = ORIENTED_EDGE ( 'NONE', *, *, #21, .T. ) ;
#153 = DIRECTION ( 'NONE',  ( 6.023345402697245486E-17, 0.000000000000000000, -1.000000000000000000 ) ) ;
#154 = ORIENTED_EDGE ( 'NONE', *, *, #259, .F. ) ;
#155 = LINE ( 'NONE', #454, #54 ) ;
#156 = EDGE_LOOP ( 'NONE', ( #162, #201, #738, #734 ) ) ;
#157 = VECTOR ( 'NONE', #944, 1000.000000000000000 ) ;
#158 = AXIS2_PLACEMENT_3D ( 'NONE', #247, #754, #689 ) ;
#159 = EDGE_CURVE ( 'NONE', #170, #303, #282, .T. ) ;
#160 = VECTOR ( 'NONE', #722, 1000.000000000000000 ) ;
#161 = DIRECTION ( 'NONE',  ( 1.000000000000000000, 0.000000000000000000, 0.000000000000000000 ) ) ;
#162 = ORIENTED_EDGE ( 'NONE', *, *, #66, .F. ) ;
#163 = DIRECTION ( 'NONE',  ( 0.3236155771181852825, -0.8891264907159879272, 0.3236155771181852825 ) ) ;
#164 = ORIENTED_EDGE ( 'NONE', *, *, #400, .T. ) ;
#165 = EDGE_CURVE ( 'NONE', #847, #170, #28, .T. ) ;
#166 = VERTEX_POINT ( 'NONE', #567 ) ;
#167 = LINE ( 'NONE', #617, #142 ) ;
#168 = LINE ( 'NONE', #701, #802 ) ;
#169 = CARTESIAN_POINT ( 'NONE',  ( -0.000000000000000000, 4.000000000000000000, 3.940331807780321771 ) ) ;
#170 = VERTEX_POINT ( 'NONE', #355 ) ;
#171 = LINE ( 'NONE', #479, #220 ) ;
#172 = ADVANCED_FACE ( 'NONE', ( #122 ), #706, .T. ) ;
#173 = CIRCLE ( 'NONE', #158, 2.000000000000000000 ) ;
#174 = CARTESIAN_POINT ( 'NONE',  ( -6.443935926773454170, 0.000000000000000000, 10.91533180778032097 ) ) ;
#175 = VECTOR ( 'NONE', #497, 1000.000000000000000 ) ;
#176 = EDGE_CURVE ( 'NONE', #92, #6, #648, .T. ) ;
#177 = CARTESIAN_POINT ( 'NONE',  ( -1.468935926773453415, 0.000000000000000000, -2.359442256370053512E-16 ) ) ;
#178 = CARTESIAN_POINT ( 'NONE',  ( -6.443935926773455947, 0.000000000000000000, 8.915331807780320972 ) ) ;
#179 = LINE ( 'NONE', #552, #744 ) ;
#180 = FACE_OUTER_BOUND ( 'NONE', #301, .T. ) ;
#181 = ORIENTED_EDGE ( 'NONE', *, *, #935, .T. ) ;
#182 = CARTESIAN_POINT ( 'NONE',  ( 6.100183136161732911, 4.000000000000000000, 7.558664924326847578E-16 ) ) ;
#183 = DIRECTION ( 'NONE',  ( 1.070816960479510377E-16, 0.000000000000000000, -1.000000000000000000 ) ) ;
#184 = ORIENTED_EDGE ( 'NONE', *, *, #27, .T. ) ;
#185 = ADVANCED_FACE ( 'NONE', ( #192 ), #138, .F. ) ;
#186 = ORIENTED_EDGE ( 'NONE', *, *, #758, .F. ) ;
#187 = FACE_BOUND ( 'NONE', #519, .T. ) ;
#188 = ADVANCED_FACE ( 'NONE', ( #213 ), #799, .F. ) ;
#189 = DIRECTION ( 'NONE',  ( 0.000000000000000000, -0.000000000000000000, 1.000000000000000000 ) ) ;
#190 = VECTOR ( 'NONE', #586, 1000.000000000000000 ) ;
#191 = VECTOR ( 'NONE', #703, 1000.000000000000000 ) ;
#192 = FACE_OUTER_BOUND ( 'NONE', #369, .T. ) ;
#193 = EDGE_CURVE ( 'NONE', #446, #609, #140, .T. ) ;
#194 = ORIENTED_EDGE ( 'NONE', *, *, #261, .F. ) ;
#195 = CARTESIAN_POINT ( 'NONE',  ( 9.556064073226545830, 6.000000000000000000, 8.915331807780322748 ) ) ;
#196 = EDGE_CURVE ( 'NONE', #267, #382, #867, .T. ) ;
#197 = DIRECTION ( 'NONE',  ( -6.023345402697246719E-17, 0.000000000000000000, 1.000000000000000000 ) ) ;
#198 = CARTESIAN_POINT ( 'NONE',  ( 2.581064073226545741, 0.000000000000000000, 2.590331807780321238 ) ) ;
#199 = ORIENTED_EDGE ( 'NONE', *, *, #49, .T. ) ;
#200 = CARTESIAN_POINT ( 'NONE',  ( 2.581064073226545741, 0.000000000000000000, 1.240331807780321594 ) ) ;
#201 = ORIENTED_EDGE ( 'NONE', *, *, #669, .F. ) ;
#202 = LINE ( 'NONE', #351, #24 ) ;
#203 = EDGE_CURVE ( 'NONE', #90, #13, #60, .T. ) ;
#204 = ORIENTED_EDGE ( 'NONE', *, *, #776, .T. ) ;
#205 = DIRECTION ( 'NONE',  ( -1.000000000000000000, 0.000000000000000000, 1.927470528863119049E-16 ) ) ;
#206 = FACE_BOUND ( 'NONE', #743, .T. ) ;
#207 = ORIENTED_EDGE ( 'NONE', *, *, #327, .F. ) ;
#208 = CIRCLE ( 'NONE', #607, 2.000000000000000000 ) ;
#209 = CARTESIAN_POINT ( 'NONE',  ( -6.443935926773455947, 0.000000000000000000, 8.915331807780320972 ) ) ;
#210 = AXIS2_PLACEMENT_3D ( 'NONE', #402, #463, #99 ) ;
#211 = LINE ( 'NONE', #115, #486 ) ;
#212 = ORIENTED_EDGE ( 'NONE', *, *, #860, .T. ) ;
#213 = FACE_OUTER_BOUND ( 'NONE', #811, .T. ) ;
#214 = DIRECTION ( 'NONE',  ( 0.000000000000000000, -1.000000000000000000, 0.000000000000000000 ) ) ;
#215 = ORIENTED_EDGE ( 'NONE', *, *, #93, .T. ) ;
#216 = DIRECTION ( 'NONE',  ( -0.000000000000000000, -1.000000000000000000, -0.000000000000000000 ) ) ;
#217 = ADVANCED_FACE ( 'NONE', ( #728 ), #345, .F. ) ;
#218 = UNCERTAINTY_MEASURE_WITH_UNIT (LENGTH_MEASURE( 1.000000000000000082E-05 ), #502, 'distance_accuracy_value', 'NONE');
#219 = CARTESIAN_POINT ( 'NONE',  ( -0.1189359267734545894, 0.000000000000000000, 2.590331807780321238 ) ) ;
#220 = VECTOR ( 'NONE', #313, 1000.000000000000000 ) ;
#221 = ORIENTED_EDGE ( 'NONE', *, *, #499, .T. ) ;
#222 = VECTOR ( 'NONE', #670, 1000.000000000000000 ) ;
#223 = VECTOR ( 'NONE', #153, 1000.000000000000000 ) ;
#224 = LINE ( 'NONE', #378, #608 ) ;
#225 = ORIENTED_EDGE ( 'NONE', *, *, #683, .F. ) ;
#226 = CARTESIAN_POINT ( 'NONE',  ( 2.581064073226545741, 0.000000000000000000, 2.590331807780321238 ) ) ;
#227 = ORIENTED_EDGE ( 'NONE', *, *, #770, .F. ) ;
#228 = CARTESIAN_POINT ( 'NONE',  ( -6.443935926773454170, 0.000000000000000000, -5.084668192219678140 ) ) ;
#229 = LINE ( 'NONE', #14, #620 ) ;
#230 = ORIENTED_EDGE ( 'NONE', *, *, #683, .T. ) ;
#231 = EDGE_CURVE ( 'NONE', #422, #924, #503, .T. ) ;
#232 = EDGE_CURVE ( 'NONE', #435, #303, #202, .T. ) ;
#233 = DIRECTION ( 'NONE',  ( 1.070816960479510377E-16, 0.000000000000000000, -1.000000000000000000 ) ) ;
#234 = ORIENTED_EDGE ( 'NONE', *, *, #232, .T. ) ;
#235 = DIRECTION ( 'NONE',  ( -0.3420201433256694346, 0.9396926207859080948, 0.000000000000000000 ) ) ;
#236 = EDGE_CURVE ( 'NONE', #777, #67, #229, .T. ) ;
#237 = ORIENTED_EDGE ( 'NONE', *, *, #882, .T. ) ;
#238 = AXIS2_PLACEMENT_3D ( 'NONE', #578, #337, #633 ) ;
#239 = VECTOR ( 'NONE', #885, 1000.000000000000000 ) ;
#240 = CARTESIAN_POINT ( 'NONE',  ( 6.100183136161732911, 4.000000000000000000, 7.459450870715508053 ) ) ;
#241 = ORIENTED_EDGE ( 'NONE', *, *, #864, .F. ) ;
#242 = DIRECTION ( 'NONE',  ( 0.000000000000000000, 0.000000000000000000, 1.000000000000000000 ) ) ;
#243 = CARTESIAN_POINT ( 'NONE',  ( -6.640841681966902978E-17, 4.000000000000000000, 1.240331807780321371 ) ) ;
#244 = DIRECTION ( 'NONE',  ( -0.000000000000000000, 1.000000000000000000, -0.000000000000000000 ) ) ;
#245 = EDGE_LOOP ( 'NONE', ( #668, #951, #866, #1, #387, #646, #81, #528 ) ) ;
#246 = EDGE_CURVE ( 'NONE', #92, #821, #375, .T. ) ;
#247 = CARTESIAN_POINT ( 'NONE',  ( 7.556064073226545830, 6.000000000000000000, 8.915331807780322748 ) ) ;
#248 = CARTESIAN_POINT ( 'NONE',  ( 2.581064073226545741, 0.000000000000000000, 1.240331807780321594 ) ) ;
#249 = LINE ( 'NONE', #547, #344 ) ;
#250 = CARTESIAN_POINT ( 'NONE',  ( 1.231064073226545652, 0.000000000000000000, 1.318244289047975164E-16 ) ) ;
#251 = DIRECTION ( 'NONE',  ( 1.000000000000000000, 0.000000000000000000, 6.023345402697245486E-17 ) ) ;
#252 = AXIS2_PLACEMENT_3D ( 'NONE', #47, #425, #870 ) ;
#253 = VECTOR ( 'NONE', #448, 1000.000000000000000 ) ;
#254 = DIRECTION ( 'NONE',  ( 1.000000000000000000, 0.000000000000000000, 0.000000000000000000 ) ) ;
#255 = DIRECTION ( 'NONE',  ( -1.606225440719266120E-16, 0.000000000000000000, 1.000000000000000000 ) ) ;
#256 = EDGE_LOOP ( 'NONE', ( #599, #405, #611, #713 ) ) ;
#257 = LINE ( 'NONE', #772, #636 ) ;
#258 = LINE ( 'NONE', #30, #695 ) ;
#259 = EDGE_CURVE ( 'NONE', #148, #306, #10, .T. ) ;
#260 = PLANE ( 'NONE',  #515 ) ;
#261 = EDGE_CURVE ( 'NONE', #338, #150, #459, .T. ) ;
#262 = ORIENTED_EDGE ( 'NONE', *, *, #146, .F. ) ;
#263 = DIRECTION ( 'NONE',  ( 9.637352644315595243E-17, 0.000000000000000000, 1.000000000000000000 ) ) ;
#264 = CARTESIAN_POINT ( 'NONE',  ( -8.443935926773455947, 6.000000000000000000, -7.084668192219678140 ) ) ;
#265 = EDGE_CURVE ( 'NONE', #529, #678, #800, .T. ) ;
#266 = LINE ( 'NONE', #556, #694 ) ;
#267 = VERTEX_POINT ( 'NONE', #360 ) ;
#268 = CARTESIAN_POINT ( 'NONE',  ( 0.000000000000000000, 4.000000000000000000, 0.000000000000000000 ) ) ;
#269 = AXIS2_PLACEMENT_3D ( 'NONE', #77, #216, #955 ) ;
#270 = DIRECTION ( 'NONE',  ( 1.070816960479510377E-16, 0.000000000000000000, -1.000000000000000000 ) ) ;
#271 = EDGE_LOOP ( 'NONE', ( #899, #570 ) ) ;
#272 = CARTESIAN_POINT ( 'NONE',  ( 0.000000000000000000, 0.000000000000000000, 0.000000000000000000 ) ) ;
#273 = DIRECTION ( 'NONE',  ( 1.000000000000000000, 0.000000000000000000, 6.023345402697245486E-17 ) ) ;
#274 = EDGE_CURVE ( 'NONE', #90, #446, #652, .T. ) ;
#275 = CARTESIAN_POINT ( 'NONE',  ( 7.556064073226544053, 6.000000000000000000, -7.084668192219678140 ) ) ;
#276 = ORIENTED_EDGE ( 'NONE', *, *, #850, .F. ) ;
#277 = FACE_OUTER_BOUND ( 'NONE', #781, .T. ) ;
#278 = ORIENTED_EDGE ( 'NONE', *, *, #582, .T. ) ;
#279 = LINE ( 'NONE', #500, #469 ) ;
#280 = FACE_OUTER_BOUND ( 'NONE', #156, .T. ) ;
#281 = ORIENTED_EDGE ( 'NONE', *, *, #850, .T. ) ;
#282 = CIRCLE ( 'NONE', #712, 2.000000000000000000 ) ;
#283 = DIRECTION ( 'NONE',  ( 0.000000000000000000, -1.000000000000000000, 0.000000000000000000 ) ) ;
#284 = AXIS2_PLACEMENT_3D ( 'NONE', #68, #490, #428 ) ;
#285 = VECTOR ( 'NONE', #57, 1000.000000000000000 ) ;
#286 = FACE_OUTER_BOUND ( 'NONE', #634, .T. ) ;
#287 = FACE_OUTER_BOUND ( 'NONE', #256, .T. ) ;
#288 = CARTESIAN_POINT ( 'NONE',  ( -8.443935926773455947, 6.000000000000000000, -7.084668192219678140 ) ) ;
#289 = LINE ( 'NONE', #450, #559 ) ;
#290 = VERTEX_POINT ( 'NONE', #5 ) ;
#291 = LINE ( 'NONE', #228, #190 ) ;
#292 = ORIENTED_EDGE ( 'NONE', *, *, #948, .F. ) ;
#293 = DIRECTION ( 'NONE',  ( 0.000000000000000000, 0.000000000000000000, -1.000000000000000000 ) ) ;
#294 = ORIENTED_EDGE ( 'NONE', *, *, #18, .F. ) ;
#295 = CIRCLE ( 'NONE', #427, 2.000000000000000000 ) ;
#296 = VECTOR ( 'NONE', #889, 1000.000000000000000 ) ;
#297 = CARTESIAN_POINT ( 'NONE',  ( 1.231064073226545652, 4.000000000000000000, -0.1096681922196784675 ) ) ;
#298 = EDGE_LOOP ( 'NONE', ( #527, #807, #533, #680, #651, #580, #381, #662, #227, #733, #212, #50 ) ) ;
#299 = LINE ( 'NONE', #219, #86 ) ;
#300 = EDGE_CURVE ( 'NONE', #267, #42, #817, .T. ) ;
#301 = EDGE_LOOP ( 'NONE', ( #181, #281, #724, #775, #63, #350, #426, #675 ) ) ;
#302 = SURFACE_SIDE_STYLE ('',( #149 ) ) ;
#303 = VERTEX_POINT ( 'NONE', #902 ) ;
#304 = DIRECTION ( 'NONE',  ( -0.000000000000000000, 1.000000000000000000, -0.000000000000000000 ) ) ;
#305 = ORIENTED_EDGE ( 'NONE', *, *, #146, .T. ) ;
#306 = VERTEX_POINT ( 'NONE', #750 ) ;
#307 = LINE ( 'NONE', #250, #729 ) ;
#308 = EDGE_LOOP ( 'NONE', ( #788, #23, #558, #449 ) ) ;
#309 = AXIS2_PLACEMENT_3D ( 'NONE', #370, #658, #293 ) ;
#310 = AXIS2_PLACEMENT_3D ( 'NONE', #585, #660, #525 ) ;
#311 = ORIENTED_EDGE ( 'NONE', *, *, #836, .T. ) ;
#312 = DIRECTION ( 'NONE',  ( -0.3420201433256694346, -0.9396926207859080948, 0.000000000000000000 ) ) ;
#313 = DIRECTION ( 'NONE',  ( 1.070816960479510377E-16, 0.000000000000000000, -1.000000000000000000 ) ) ;
#314 = ADVANCED_FACE ( 'NONE', ( #287 ), #89, .F. ) ;
#315 = CYLINDRICAL_SURFACE ( 'NONE', #891, 3.000000000000000000 ) ;
#316 = CARTESIAN_POINT ( 'NONE',  ( -0.1189359267734546310, 4.000000000000000000, 2.590331807780321238 ) ) ;
#317 = LINE ( 'NONE', #909, #130 ) ;
#318 = PRODUCT_RELATED_PRODUCT_CATEGORY ( 'part', '', ( #710 ) ) ;
#319 = CARTESIAN_POINT ( 'NONE',  ( -6.640841681966902978E-17, 0.000000000000000000, 1.240331807780321371 ) ) ;
#320 = CYLINDRICAL_SURFACE ( 'NONE', #759, 2.000000000000000000 ) ;
#321 = DIRECTION ( 'NONE',  ( 0.000000000000000000, 0.000000000000000000, 1.000000000000000000 ) ) ;
#322 = AXIS2_PLACEMENT_3D ( 'NONE', #755, #618, #403 ) ;
#323 = ORIENTED_EDGE ( 'NONE', *, *, #165, .T. ) ;
#324 = AXIS2_PLACEMENT_3D ( 'NONE', #832, #849, #25 ) ;
#325 = LINE ( 'NONE', #820, #71 ) ;
#326 = CARTESIAN_POINT ( 'NONE',  ( -6.443935926773454170, 6.000000000000000000, 8.915331807780320972 ) ) ;
#327 = EDGE_CURVE ( 'NONE', #536, #431, #299, .T. ) ;
#328 = ORIENTED_EDGE ( 'NONE', *, *, #433, .T. ) ;
#329 = EDGE_LOOP ( 'NONE', ( #721, #20, #852, #374 ) ) ;
#330 = CARTESIAN_POINT ( 'NONE',  ( -6.443935926773454170, 6.000000000000000000, 8.915331807780320972 ) ) ;
#331 = EDGE_CURVE ( 'NONE', #903, #609, #39, .T. ) ;
#332 = CARTESIAN_POINT ( 'NONE',  ( -1.468935926773453637, 4.000000000000000000, 1.240331807780321371 ) ) ;
#333 = DIRECTION ( 'NONE',  ( -0.000000000000000000, -1.000000000000000000, -0.000000000000000000 ) ) ;
#334 = ORIENTED_EDGE ( 'NONE', *, *, #606, .T. ) ;
#335 = CARTESIAN_POINT ( 'NONE',  ( 9.556064073226545830, 0.000000000000000000, 8.915331807780322748 ) ) ;
#336 = FACE_OUTER_BOUND ( 'NONE', #298, .T. ) ;
#337 = DIRECTION ( 'NONE',  ( 0.000000000000000000, -1.000000000000000000, 0.000000000000000000 ) ) ;
#338 = VERTEX_POINT ( 'NONE', #812 ) ;
#339 = CARTESIAN_POINT ( 'NONE',  ( 1.231064073226545430, 0.000000000000000000, 2.590331807780321238 ) ) ;
#340 = EDGE_CURVE ( 'NONE', #840, #15, #289, .T. ) ;
#341 = AXIS2_PLACEMENT_3D ( 'NONE', #542, #333, #321 ) ;
#342 = DIRECTION ( 'NONE',  ( -0.000000000000000000, 1.000000000000000000, -0.000000000000000000 ) ) ;
#343 = VECTOR ( 'NONE', #482, 1000.000000000000000 ) ;
#344 = VECTOR ( 'NONE', #161, 1000.000000000000000 ) ;
#345 = PLANE ( 'NONE',  #284 ) ;
#346 = ADVANCED_BREP_SHAPE_REPRESENTATION ( 'Basic_Key_Cap', ( #764, #310 ), #824 ) ;
#347 = ORIENTED_EDGE ( 'NONE', *, *, #265, .T. ) ;
#348 = CARTESIAN_POINT ( 'NONE',  ( -8.443935926773455947, 6.000000000000000000, -5.084668192219678140 ) ) ;
#349 = CARTESIAN_POINT ( 'NONE',  ( -0.1189359267734544784, 4.000000000000000000, -0.1096681922196785508 ) ) ;
#350 = ORIENTED_EDGE ( 'NONE', *, *, #231, .T. ) ;
#351 = CARTESIAN_POINT ( 'NONE',  ( -8.443935926773455947, 0.000000000000000000, -7.084668192219678140 ) ) ;
#352 =( NAMED_UNIT ( * ) SI_UNIT ( $, .STERADIAN. ) SOLID_ANGLE_UNIT ( ) );
#353 = CARTESIAN_POINT ( 'NONE',  ( 7.556064073226544053, 0.000000000000000000, -5.084668192219678140 ) ) ;
#354 = ORIENTED_EDGE ( 'NONE', *, *, #421, .T. ) ;
#355 = CARTESIAN_POINT ( 'NONE',  ( -8.443935926773455947, 0.000000000000000000, -5.084668192219678140 ) ) ;
#356 = ADVANCED_FACE ( 'NONE', ( #82 ), #516, .F. ) ;
#357 =( LENGTH_UNIT ( ) NAMED_UNIT ( * ) SI_UNIT ( .MILLI., .METRE. ) );
#358 = EDGE_LOOP ( 'NONE', ( #929, #215, #234, #367 ) ) ;
#359 = AXIS2_PLACEMENT_3D ( 'NONE', #932, #876, #571 ) ;
#360 = CARTESIAN_POINT ( 'NONE',  ( 1.231064073226545430, 0.000000000000000000, 1.240331807780321371 ) ) ;
#361 = CIRCLE ( 'NONE', #324, 3.000000000000000444 ) ;
#362 = ADVANCED_FACE ( 'NONE', ( #808 ), #147, .F. ) ;
#363 = SHAPE_DEFINITION_REPRESENTATION ( #789, #346 ) ;
#364 = DIRECTION ( 'NONE',  ( 0.000000000000000000, 0.000000000000000000, 1.000000000000000000 ) ) ;
#365 = EDGE_CURVE ( 'NONE', #821, #411, #391, .T. ) ;
#366 = DIRECTION ( 'NONE',  ( -0.000000000000000000, 1.000000000000000000, -0.000000000000000000 ) ) ;
#367 = ORIENTED_EDGE ( 'NONE', *, *, #669, .T. ) ;
#368 = FACE_OUTER_BOUND ( 'NONE', #510, .T. ) ;
#369 = EDGE_LOOP ( 'NONE', ( #429, #828, #642, #925 ) ) ;
#370 = CARTESIAN_POINT ( 'NONE',  ( 0.5560640732265466069, 4.000000000000000000, 1.915331807780320972 ) ) ;
#371 = ORIENTED_EDGE ( 'NONE', *, *, #203, .F. ) ;
#372 = CARTESIAN_POINT ( 'NONE',  ( 0.000000000000000000, 4.000000000000000000, 0.000000000000000000 ) ) ;
#373 = EDGE_CURVE ( 'NONE', #564, #577, #589, .T. ) ;
#374 = ORIENTED_EDGE ( 'NONE', *, *, #739, .T. ) ;
#375 = LINE ( 'NONE', #881, #424 ) ;
#376 = AXIS2_PLACEMENT_3D ( 'NONE', #268, #504, #865 ) ;
#377 = ORIENTED_EDGE ( 'NONE', *, *, #340, .T. ) ;
#378 = CARTESIAN_POINT ( 'NONE',  ( 9.556064073226542277, 6.000000000000000000, -5.084668192219678140 ) ) ;
#379 = ORIENTED_EDGE ( 'NONE', *, *, #952, .T. ) ;
#380 = DIRECTION ( 'NONE',  ( -1.000000000000000000, -0.000000000000000000, -0.000000000000000000 ) ) ;
#381 = ORIENTED_EDGE ( 'NONE', *, *, #373, .T. ) ;
#382 = VERTEX_POINT ( 'NONE', #664 ) ;
#383 = CARTESIAN_POINT ( 'NONE',  ( 9.556064073226542277, 0.000000000000000000, -5.084668192219678140 ) ) ;
#384 = ORIENTED_EDGE ( 'NONE', *, *, #512, .F. ) ;
#385 = APPLICATION_CONTEXT ( 'automotive_design' ) ;
#386 = DIRECTION ( 'NONE',  ( 0.000000000000000000, 0.3420201433256694901, 0.9396926207859082059 ) ) ;
#387 = ORIENTED_EDGE ( 'NONE', *, *, #232, .F. ) ;
#388 = LINE ( 'NONE', #169, #343 ) ;
#389 = ORIENTED_EDGE ( 'NONE', *, *, #61, .F. ) ;
#390 = LINE ( 'NONE', #243, #85 ) ;
#391 = CIRCLE ( 'NONE', #309, 3.000000000000000444 ) ;
#392 = VECTOR ( 'NONE', #244, 1000.000000000000000 ) ;
#393 = DIRECTION ( 'NONE',  ( 1.239088197126291063E-16, 0.000000000000000000, -1.000000000000000000 ) ) ;
#394 = CARTESIAN_POINT ( 'NONE',  ( 0.5560640732265466069, 4.000000000000000000, 4.915331807780321860 ) ) ;
#395 = PLANE ( 'NONE',  #322 ) ;
#396 = EDGE_LOOP ( 'NONE', ( #826, #666, #17, #323 ) ) ;
#397 = CARTESIAN_POINT ( 'NONE',  ( -4.988054989708642140, 4.000000000000000000, -3.628787255154865665 ) ) ;
#398 = CARTESIAN_POINT ( 'NONE',  ( -1.468935926773453415, 4.000000000000000000, -2.359442256370053512E-16 ) ) ;
#399 = ORIENTED_EDGE ( 'NONE', *, *, #704, .F. ) ;
#400 = EDGE_CURVE ( 'NONE', #892, #84, #155, .T. ) ;
#401 = EDGE_CURVE ( 'NONE', #594, #564, #258, .T. ) ;
#402 = CARTESIAN_POINT ( 'NONE',  ( -6.443935926773454170, 0.000000000000000000, -5.084668192219678140 ) ) ;
#403 = DIRECTION ( 'NONE',  ( 0.000000000000000000, 0.000000000000000000, 1.000000000000000000 ) ) ;
#404 = AXIS2_PLACEMENT_3D ( 'NONE', #725, #861, #780 ) ;
#405 = ORIENTED_EDGE ( 'NONE', *, *, #236, .F. ) ;
#406 = AXIS2_PLACEMENT_3D ( 'NONE', #931, #494, #189 ) ;
#407 = LINE ( 'NONE', #941, #143 ) ;
#408 = AXIS2_PLACEMENT_3D ( 'NONE', #423, #640, #51 ) ;
#409 = PLANE ( 'NONE',  #649 ) ;
#410 = CARTESIAN_POINT ( 'NONE',  ( 0.5560640732265466069, 0.000000000000000000, 4.915331807780321860 ) ) ;
#411 = VERTEX_POINT ( 'NONE', #394 ) ;
#412 = ORIENTED_EDGE ( 'NONE', *, *, #259, .T. ) ;
#413 = DIRECTION ( 'NONE',  ( 0.000000000000000000, -1.000000000000000000, 0.000000000000000000 ) ) ;
#414 = DIRECTION ( 'NONE',  ( 6.023345402697245486E-17, 0.000000000000000000, -1.000000000000000000 ) ) ;
#415 = DIRECTION ( 'NONE',  ( 0.000000000000000000, -1.000000000000000000, 0.000000000000000000 ) ) ;
#416 = EDGE_CURVE ( 'NONE', #840, #536, #167, .T. ) ;
#417 = ORIENTED_EDGE ( 'NONE', *, *, #687, .F. ) ;
#418 = CARTESIAN_POINT ( 'NONE',  ( 2.581064073226545741, 4.000000000000000000, -0.000000000000000000 ) ) ;
#419 = CARTESIAN_POINT ( 'NONE',  ( -0.1189359267734547143, 0.000000000000000000, 3.940331807780321771 ) ) ;
#420 = DIRECTION ( 'NONE',  ( 1.000000000000000000, 0.000000000000000000, 0.000000000000000000 ) ) ;
#421 = EDGE_CURVE ( 'NONE', #15, #431, #612, .T. ) ;
#422 = VERTEX_POINT ( 'NONE', #478 ) ;
#423 = CARTESIAN_POINT ( 'NONE',  ( 7.556064073226544053, 6.000000000000000000, -5.084668192219678140 ) ) ;
#424 = VECTOR ( 'NONE', #893, 1000.000000000000000 ) ;
#425 = DIRECTION ( 'NONE',  ( 0.000000000000000000, 0.000000000000000000, -1.000000000000000000 ) ) ;
#426 = ORIENTED_EDGE ( 'NONE', *, *, #534, .T. ) ;
#427 = AXIS2_PLACEMENT_3D ( 'NONE', #353, #641, #779 ) ;
#428 = DIRECTION ( 'NONE',  ( -9.637352644315595243E-17, 0.000000000000000000, -1.000000000000000000 ) ) ;
#429 = ORIENTED_EDGE ( 'NONE', *, *, #508, .T. ) ;
#430 = CARTESIAN_POINT ( 'NONE',  ( 6.605694014285186376E-18, 0.000000000000000000, -0.1096681922196785369 ) ) ;
#431 = VERTEX_POINT ( 'NONE', #316 ) ;
#432 = DIRECTION ( 'NONE',  ( 0.000000000000000000, 0.000000000000000000, 1.000000000000000000 ) ) ;
#433 = EDGE_CURVE ( 'NONE', #42, #148, #843, .T. ) ;
#434 = EDGE_CURVE ( 'NONE', #451, #596, #685, .T. ) ;
#435 = VERTEX_POINT ( 'NONE', #914 ) ;
#436 = DIRECTION ( 'NONE',  ( -0.000000000000000000, 1.000000000000000000, -0.000000000000000000 ) ) ;
#437 = ADVANCED_FACE ( 'NONE', ( #541 ), #107, .F. ) ;
#438 = LINE ( 'NONE', #593, #253 ) ;
#439 = DIRECTION ( 'NONE',  ( 0.000000000000000000, -1.000000000000000000, 0.000000000000000000 ) ) ;
#440 = VECTOR ( 'NONE', #732, 1000.000000000000000 ) ;
#441 = PRODUCT_CONTEXT ( 'NONE', #385, 'mechanical' ) ;
#442 = CARTESIAN_POINT ( 'NONE',  ( -0.1189359267734544784, 0.000000000000000000, -7.163921677464232681E-18 ) ) ;
#443 = PRODUCT_DEFINITION_CONTEXT ( 'detailed design', #488, 'design' ) ;
#444 = ORIENTED_EDGE ( 'NONE', *, *, #274, .F. ) ;
#445 = CARTESIAN_POINT ( 'NONE',  ( 0.000000000000000000, 0.000000000000000000, 2.590331807780321238 ) ) ;
#446 = VERTEX_POINT ( 'NONE', #174 ) ;
#447 = ORIENTED_EDGE ( 'NONE', *, *, #836, .F. ) ;
#448 = DIRECTION ( 'NONE',  ( -1.000000000000000000, 0.000000000000000000, 0.000000000000000000 ) ) ;
#449 = ORIENTED_EDGE ( 'NONE', *, *, #33, .T. ) ;
#450 = CARTESIAN_POINT ( 'NONE',  ( -1.468935926773453859, 0.000000000000000000, 2.590331807780321238 ) ) ;
#451 = VERTEX_POINT ( 'NONE', #397 ) ;
#452 = DIRECTION ( 'NONE',  ( -0.000000000000000000, 1.000000000000000000, -0.000000000000000000 ) ) ;
#453 = ORIENTED_EDGE ( 'NONE', *, *, #804, .F. ) ;
#454 = CARTESIAN_POINT ( 'NONE',  ( -6.443935926773455947, 0.000000000000000000, 8.915331807780320972 ) ) ;
#455 = VECTOR ( 'NONE', #576, 1000.000000000000000 ) ;
#456 = ORIENTED_EDGE ( 'NONE', *, *, #773, .F. ) ;
#457 = CARTESIAN_POINT ( 'NONE',  ( 1.231064073226545430, 4.000000000000000000, 2.590331807780321238 ) ) ;
#458 = ORIENTED_EDGE ( 'NONE', *, *, #952, .F. ) ;
#459 = LINE ( 'NONE', #73, #856 ) ;
#460 = EDGE_LOOP ( 'NONE', ( #311, #624, #399, #164 ) ) ;
#461 = CARTESIAN_POINT ( 'NONE',  ( 6.605694014285186376E-18, 4.000000000000000000, -0.1096681922196785369 ) ) ;
#462 = ORIENTED_EDGE ( 'NONE', *, *, #770, .T. ) ;
#463 = DIRECTION ( 'NONE',  ( 0.000000000000000000, 0.3420201433256694901, -0.9396926207859082059 ) ) ;
#464 = DIRECTION ( 'NONE',  ( 1.070816960479510377E-16, 0.000000000000000000, -1.000000000000000000 ) ) ;
#465 = ADVANCED_FACE ( 'NONE', ( #768 ), #692, .T. ) ;
#466 = CARTESIAN_POINT ( 'NONE',  ( 0.5560640732265469399, 4.000000000000000000, -1.084668192219679694 ) ) ;
#467 = DIRECTION ( 'NONE',  ( -1.239088197126291063E-16, -0.000000000000000000, 1.000000000000000000 ) ) ;
#468 = DIRECTION ( 'NONE',  ( 0.000000000000000000, 0.000000000000000000, 1.000000000000000000 ) ) ;
#469 = VECTOR ( 'NONE', #947, 1000.000000000000000 ) ;
#470 = VECTOR ( 'NONE', #242, 1000.000000000000000 ) ;
#471 = VECTOR ( 'NONE', #741, 1000.000000000000000 ) ;
#472 = CARTESIAN_POINT ( 'NONE',  ( -1.468935926773453859, 0.000000000000000000, 2.590331807780321238 ) ) ;
#473 = LINE ( 'NONE', #763, #714 ) ;
#474 = CARTESIAN_POINT ( 'NONE',  ( -6.443935926773454170, 6.000000000000000000, 10.91533180778032097 ) ) ;
#475 = ADVANCED_FACE ( 'NONE', ( #548 ), #320, .T. ) ;
#476 = EDGE_CURVE ( 'NONE', #170, #338, #179, .T. ) ;
#477 = ORIENTED_EDGE ( 'NONE', *, *, #507, .F. ) ;
#478 = CARTESIAN_POINT ( 'NONE',  ( 9.556064073226542277, 6.000000000000000000, -5.084668192219678140 ) ) ;
#479 = CARTESIAN_POINT ( 'NONE',  ( 1.231064073226545652, 4.000000000000000000, 1.318244289047975164E-16 ) ) ;
#480 = VERTEX_POINT ( 'NONE', #383 ) ;
#481 = CARTESIAN_POINT ( 'NONE',  ( -6.443935926773455947, 6.000000000000000000, -7.084668192219678140 ) ) ;
#482 = DIRECTION ( 'NONE',  ( 1.000000000000000000, 0.000000000000000000, 0.000000000000000000 ) ) ;
#483 = CARTESIAN_POINT ( 'NONE',  ( -1.468935926773453859, 4.000000000000000000, 2.590331807780321238 ) ) ;
#484 = VECTOR ( 'NONE', #420, 1000.000000000000000 ) ;
#485 = ORIENTED_EDGE ( 'NONE', *, *, #416, .F. ) ;
#486 = VECTOR ( 'NONE', #452, 1000.000000000000000 ) ;
#487 = PLANE ( 'NONE',  #561 ) ;
#488 = APPLICATION_CONTEXT ( 'automotive_design' ) ;
#489 = CYLINDRICAL_SURFACE ( 'NONE', #839, 2.000000000000000000 ) ;
#490 = DIRECTION ( 'NONE',  ( 1.000000000000000000, 0.000000000000000000, -9.637352644315595243E-17 ) ) ;
#491 = EDGE_LOOP ( 'NONE', ( #78, #225, #880, #677 ) ) ;
#492 = LINE ( 'NONE', #124, #160 ) ;
#493 = EDGE_CURVE ( 'NONE', #6, #92, #361, .T. ) ;
#494 = DIRECTION ( 'NONE',  ( 0.000000000000000000, 1.000000000000000000, 0.000000000000000000 ) ) ;
#495 = CARTESIAN_POINT ( 'NONE',  ( -6.443935926773455947, 0.000000000000000000, -5.084668192219678140 ) ) ;
#496 = VERTEX_POINT ( 'NONE', #19 ) ;
#497 = DIRECTION ( 'NONE',  ( 6.023345402697245486E-17, 0.000000000000000000, -1.000000000000000000 ) ) ;
#498 = LINE ( 'NONE', #58, #455 ) ;
#499 = EDGE_CURVE ( 'NONE', #267, #11, #307, .T. ) ;
#500 = CARTESIAN_POINT ( 'NONE',  ( 1.231064073226545652, 0.000000000000000000, -0.1096681922196784675 ) ) ;
#501 = ORIENTED_EDGE ( 'NONE', *, *, #784, .F. ) ;
#502 =( LENGTH_UNIT ( ) NAMED_UNIT ( * ) SI_UNIT ( .MILLI., .METRE. ) );
#503 = CIRCLE ( 'NONE', #949, 2.000000000000000000 ) ;
#504 = DIRECTION ( 'NONE',  ( 0.000000000000000000, -1.000000000000000000, 0.000000000000000000 ) ) ;
#505 = EDGE_LOOP ( 'NONE', ( #862, #456, #905, #793 ) ) ;
#506 = DIRECTION ( 'NONE',  ( -1.000000000000000000, -0.000000000000000000, -0.000000000000000000 ) ) ;
#507 = EDGE_CURVE ( 'NONE', #13, #587, #173, .T. ) ;
#508 = EDGE_CURVE ( 'NONE', #137, #678, #388, .T. ) ;
#509 = CARTESIAN_POINT ( 'NONE',  ( -1.468935926773453637, 0.000000000000000000, 1.240331807780321371 ) ) ;
#510 = EDGE_LOOP ( 'NONE', ( #727, #625, #753, #875 ) ) ;
#511 = CARTESIAN_POINT ( 'NONE',  ( -6.640841681966902978E-17, 0.000000000000000000, 1.240331807780321371 ) ) ;
#512 = EDGE_CURVE ( 'NONE', #659, #67, #543, .T. ) ;
#513 = PRESENTATION_STYLE_ASSIGNMENT (( #900 ) ) ;
#514 = CARTESIAN_POINT ( 'NONE',  ( 1.231064073226545652, 0.000000000000000000, 1.318244289047975164E-16 ) ) ;
#515 = AXIS2_PLACEMENT_3D ( 'NONE', #117, #760, #613 ) ;
#516 = PLANE ( 'NONE',  #575 ) ;
#517 = VECTOR ( 'NONE', #676, 1000.000000000000227 ) ;
#518 = ADVANCED_FACE ( 'NONE', ( #756 ), #605, .F. ) ;
#519 = EDGE_LOOP ( 'NONE', ( #897, #152, #940, #813, #88, #221, #936, #241, #112, #844, #622, #747 ) ) ;
#520 = APPLICATION_PROTOCOL_DEFINITION ( 'draft international standard', 'automotive_design', 1998, #488 ) ;
#521 = DIRECTION ( 'NONE',  ( 1.000000000000000000, 0.000000000000000000, 0.000000000000000000 ) ) ;
#522 = ORIENTED_EDGE ( 'NONE', *, *, #739, .F. ) ;
#523 = CARTESIAN_POINT ( 'NONE',  ( -6.443935926773454170, 6.000000000000000000, 10.91533180778032097 ) ) ;
#524 = EDGE_LOOP ( 'NONE', ( #354, #207, #485, #377 ) ) ;
#525 = DIRECTION ( 'NONE',  ( 1.000000000000000000, 0.000000000000000000, 0.000000000000000000 ) ) ;
#526 = DIRECTION ( 'NONE',  ( -1.606225440719266120E-16, 0.000000000000000000, 1.000000000000000000 ) ) ;
#527 = ORIENTED_EDGE ( 'NONE', *, *, #27, .F. ) ;
#528 = ORIENTED_EDGE ( 'NONE', *, *, #331, .T. ) ;
#529 = VERTEX_POINT ( 'NONE', #103 ) ;
#530 = DIRECTION ( 'NONE',  ( -0.000000000000000000, 1.000000000000000000, -0.000000000000000000 ) ) ;
#531 = AXIS2_PLACEMENT_3D ( 'NONE', #915, #251, #544 ) ;
#532 = EDGE_CURVE ( 'NONE', #119, #659, #473, .T. ) ;
#533 = ORIENTED_EDGE ( 'NONE', *, *, #135, .T. ) ;
#534 = EDGE_CURVE ( 'NONE', #924, #921, #569, .T. ) ;
#535 = DIRECTION ( 'NONE',  ( 1.000000000000000000, 0.000000000000000000, 5.354084802397554351E-17 ) ) ;
#536 = VERTEX_POINT ( 'NONE', #699 ) ;
#537 = DIRECTION ( 'NONE',  ( 0.000000000000000000, 0.000000000000000000, 1.000000000000000000 ) ) ;
#538 = DIRECTION ( 'NONE',  ( 0.000000000000000000, 1.000000000000000000, 0.000000000000000000 ) ) ;
#539 = ADVANCED_FACE ( 'NONE', ( #795 ), #489, .T. ) ;
#540 = DIRECTION ( 'NONE',  ( 0.000000000000000000, -0.9396926207859082059, 0.3420201433256694901 ) ) ;
#541 = FACE_OUTER_BOUND ( 'NONE', #749, .T. ) ;
#542 = CARTESIAN_POINT ( 'NONE',  ( -6.443935926773454170, 0.000000000000000000, 8.915331807780320972 ) ) ;
#543 = LINE ( 'NONE', #679, #546 ) ;
#544 = DIRECTION ( 'NONE',  ( 6.023345402697245486E-17, 0.000000000000000000, -1.000000000000000000 ) ) ;
#545 = ADVANCED_FACE ( 'NONE', ( #136 ), #62, .T. ) ;
#546 = VECTOR ( 'NONE', #467, 1000.000000000000000 ) ;
#547 = CARTESIAN_POINT ( 'NONE',  ( 0.000000000000000000, 4.000000000000000000, -3.628787255154865221 ) ) ;
#548 = FACE_OUTER_BOUND ( 'NONE', #59, .T. ) ;
#549 = DIRECTION ( 'NONE',  ( -1.606225440719266120E-16, 0.000000000000000000, 1.000000000000000000 ) ) ;
#550 = ORIENTED_EDGE ( 'NONE', *, *, #864, .T. ) ;
#551 = LINE ( 'NONE', #786, #175 ) ;
#552 = CARTESIAN_POINT ( 'NONE',  ( -8.443935926773455947, 0.000000000000000000, -7.084668192219678140 ) ) ;
#553 = FACE_OUTER_BOUND ( 'NONE', #868, .T. ) ;
#554 = ORIENTED_EDGE ( 'NONE', *, *, #643, .F. ) ;
#555 = DIRECTION ( 'NONE',  ( 1.000000000000000000, 0.000000000000000000, 6.023345402697246719E-17 ) ) ;
#556 = CARTESIAN_POINT ( 'NONE',  ( -0.1189359267734544784, 4.000000000000000000, -7.163921677464232681E-18 ) ) ;
#557 = EDGE_CURVE ( 'NONE', #435, #480, #295, .T. ) ;
#558 = ORIENTED_EDGE ( 'NONE', *, *, #29, .T. ) ;
#559 = VECTOR ( 'NONE', #530, 1000.000000000000000 ) ;
#560 = DIRECTION ( 'NONE',  ( 0.000000000000000000, 0.000000000000000000, 1.000000000000000000 ) ) ;
#561 = AXIS2_PLACEMENT_3D ( 'NONE', #930, #205, #778 ) ;
#562 = LINE ( 'NONE', #200, #917 ) ;
#563 = CARTESIAN_POINT ( 'NONE',  ( -8.443935926773454170, 6.000000000000000000, 8.915331807780322748 ) ) ;
#564 = VERTEX_POINT ( 'NONE', #854 ) ;
#565 = FACE_OUTER_BOUND ( 'NONE', #491, .T. ) ;
#566 = DIRECTION ( 'NONE',  ( 0.000000000000000000, 0.000000000000000000, -1.000000000000000000 ) ) ;
#567 = CARTESIAN_POINT ( 'NONE',  ( -0.1189359267734545894, 0.000000000000000000, 1.240331807780321371 ) ) ;
#568 = EDGE_LOOP ( 'NONE', ( #672, #98, #602, #657 ) ) ;
#569 = LINE ( 'NONE', #264, #873 ) ;
#570 = ORIENTED_EDGE ( 'NONE', *, *, #176, .T. ) ;
#571 = DIRECTION ( 'NONE',  ( 1.000000000000000000, 0.000000000000000000, 0.000000000000000000 ) ) ;
#572 = ADVANCED_FACE ( 'NONE', ( #206, #787 ), #645, .F. ) ;
#573 = ADVANCED_FACE ( 'NONE', ( #637 ), #409, .T. ) ;
#574 = VECTOR ( 'NONE', #415, 1000.000000000000000 ) ;
#575 = AXIS2_PLACEMENT_3D ( 'NONE', #514, #823, #583 ) ;
#576 = DIRECTION ( 'NONE',  ( -0.000000000000000000, 1.000000000000000000, -0.000000000000000000 ) ) ;
#577 = VERTEX_POINT ( 'NONE', #349 ) ;
#578 = CARTESIAN_POINT ( 'NONE',  ( 0.5560640732265466069, 0.000000000000000000, 1.915331807780320972 ) ) ;
#579 = PLANE ( 'NONE',  #591 ) ;
#580 = ORIENTED_EDGE ( 'NONE', *, *, #401, .T. ) ;
#581 = DIRECTION ( 'NONE',  ( -1.927470528863119049E-16, -0.000000000000000000, -1.000000000000000000 ) ) ;
#582 = EDGE_CURVE ( 'NONE', #290, #11, #129, .T. ) ;
#583 = DIRECTION ( 'NONE',  ( 1.070816960479510377E-16, 0.000000000000000000, -1.000000000000000000 ) ) ;
#584 = ORIENTED_EDGE ( 'NONE', *, *, #606, .F. ) ;
#585 = CARTESIAN_POINT ( 'NONE',  ( 0.000000000000000000, 0.000000000000000000, 0.000000000000000000 ) ) ;
#586 = DIRECTION ( 'NONE',  ( 1.000000000000000000, 0.000000000000000000, 0.000000000000000000 ) ) ;
#587 = VERTEX_POINT ( 'NONE', #705 ) ;
#588 = VECTOR ( 'NONE', #506, 1000.000000000000000 ) ;
#589 = LINE ( 'NONE', #151, #933 ) ;
#590 = AXIS2_PLACEMENT_3D ( 'NONE', #654, #141, #235 ) ;
#591 = AXIS2_PLACEMENT_3D ( 'NONE', #954, #9, #521 ) ;
#592 = ORIENTED_EDGE ( 'NONE', *, *, #894, .F. ) ;
#593 = CARTESIAN_POINT ( 'NONE',  ( 0.000000000000000000, 4.000000000000000000, 7.459450870715507165 ) ) ;
#594 = VERTEX_POINT ( 'NONE', #332 ) ;
#595 = DIRECTION ( 'NONE',  ( -0.000000000000000000, 0.000000000000000000, 1.000000000000000000 ) ) ;
#596 = VERTEX_POINT ( 'NONE', #723 ) ;
#597 = VERTEX_POINT ( 'NONE', #419 ) ;
#598 = FACE_BOUND ( 'NONE', #719, .T. ) ;
#599 = ORIENTED_EDGE ( 'NONE', *, *, #512, .T. ) ;
#600 = ADVANCED_FACE ( 'NONE', ( #277 ), #627, .F. ) ;
#601 = CARTESIAN_POINT ( 'NONE',  ( 1.231064073226545208, 0.000000000000000000, 3.940331807780321771 ) ) ;
#602 = ORIENTED_EDGE ( 'NONE', *, *, #365, .T. ) ;
#603 = ADVANCED_FACE ( 'NONE', ( #336 ), #927, .T. ) ;
#604 = ORIENTED_EDGE ( 'NONE', *, *, #882, .F. ) ;
#605 = PLANE ( 'NONE',  #888 ) ;
#606 = EDGE_CURVE ( 'NONE', #42, #496, #562, .T. ) ;
#607 = AXIS2_PLACEMENT_3D ( 'NONE', #108, #538, #468 ) ;
#608 = VECTOR ( 'NONE', #730, 1000.000000000000000 ) ;
#609 = VERTEX_POINT ( 'NONE', #718 ) ;
#610 = VECTOR ( 'NONE', #616, 1000.000000000000000 ) ;
#611 = ORIENTED_EDGE ( 'NONE', *, *, #877, .F. ) ;
#612 = LINE ( 'NONE', #614, #803 ) ;
#613 = DIRECTION ( 'NONE',  ( 0.000000000000000000, -0.000000000000000000, 1.000000000000000000 ) ) ;
#614 = CARTESIAN_POINT ( 'NONE',  ( -0.000000000000000000, 4.000000000000000000, 2.590331807780321238 ) ) ;
#615 = PLANE ( 'NONE',  #531 ) ;
#616 = DIRECTION ( 'NONE',  ( 1.000000000000000000, 0.000000000000000000, 6.023345402697246719E-17 ) ) ;
#617 = CARTESIAN_POINT ( 'NONE',  ( 0.000000000000000000, 0.000000000000000000, 2.590331807780321238 ) ) ;
#618 = DIRECTION ( 'NONE',  ( -1.000000000000000000, 0.000000000000000000, 0.000000000000000000 ) ) ;
#619 = VECTOR ( 'NONE', #549, 1000.000000000000000 ) ;
#620 = VECTOR ( 'NONE', #163, 1000.000000000000227 ) ;
#621 = AXIS2_PLACEMENT_3D ( 'NONE', #330, #635, #560 ) ;
#622 = ORIENTED_EDGE ( 'NONE', *, *, #416, .T. ) ;
#623 = DIRECTION ( 'NONE',  ( 0.000000000000000000, 0.000000000000000000, -1.000000000000000000 ) ) ;
#624 = ORIENTED_EDGE ( 'NONE', *, *, #434, .F. ) ;
#625 = ORIENTED_EDGE ( 'NONE', *, *, #340, .F. ) ;
#626 = PLANE ( 'NONE',  #717 ) ;
#627 = PLANE ( 'NONE',  #252 ) ;
#628 = DIRECTION ( 'NONE',  ( 6.023345402697245486E-17, 0.000000000000000000, -1.000000000000000000 ) ) ;
#629 = EDGE_LOOP ( 'NONE', ( #294, #76, #83, #334 ) ) ;
#630 = CYLINDRICAL_SURFACE ( 'NONE', #408, 2.000000000000000000 ) ;
#631 = CARTESIAN_POINT ( 'NONE',  ( 6.605694014285186376E-18, 0.000000000000000000, -0.1096681922196785369 ) ) ;
#632 = ADVANCED_FACE ( 'NONE', ( #280 ), #859, .T. ) ;
#633 = DIRECTION ( 'NONE',  ( 0.000000000000000000, 0.000000000000000000, -1.000000000000000000 ) ) ;
#634 = EDGE_LOOP ( 'NONE', ( #204, #154, #186, #691 ) ) ;
#635 = DIRECTION ( 'NONE',  ( 0.000000000000000000, 1.000000000000000000, 0.000000000000000000 ) ) ;
#636 = VECTOR ( 'NONE', #863, 1000.000000000000000 ) ;
#637 = FACE_OUTER_BOUND ( 'NONE', #505, .T. ) ;
#638 = CARTESIAN_POINT ( 'NONE',  ( 7.556064073226544053, 6.000000000000000000, -5.084668192219678140 ) ) ;
#639 = ORIENTED_EDGE ( 'NONE', *, *, #106, .F. ) ;
#640 = DIRECTION ( 'NONE',  ( 0.000000000000000000, -1.000000000000000000, 0.000000000000000000 ) ) ;
#641 = DIRECTION ( 'NONE',  ( -0.000000000000000000, -1.000000000000000000, -0.000000000000000000 ) ) ;
#642 = ORIENTED_EDGE ( 'NONE', *, *, #3, .F. ) ;
#643 = EDGE_CURVE ( 'NONE', #609, #13, #498, .T. ) ;
#644 = CARTESIAN_POINT ( 'NONE',  ( 6.100183136161733799, 4.000000000000000000, -3.628787255154865665 ) ) ;
#645 = PLANE ( 'NONE',  #406 ) ;
#646 = ORIENTED_EDGE ( 'NONE', *, *, #557, .T. ) ;
#647 = CARTESIAN_POINT ( 'NONE',  ( 0.5560640732265469399, 0.000000000000000000, -1.084668192219679694 ) ) ;
#648 = CIRCLE ( 'NONE', #238, 3.000000000000000444 ) ;
#649 = AXIS2_PLACEMENT_3D ( 'NONE', #709, #273, #414 ) ;
#650 = FACE_OUTER_BOUND ( 'NONE', #358, .T. ) ;
#651 = ORIENTED_EDGE ( 'NONE', *, *, #91, .F. ) ;
#652 = LINE ( 'NONE', #523, #792 ) ;
#653 = LINE ( 'NONE', #896, #696 ) ;
#654 = CARTESIAN_POINT ( 'NONE',  ( 7.556064073226545830, 0.000000000000000000, 8.915331807780320972 ) ) ;
#655 = VERTEX_POINT ( 'NONE', #774 ) ;
#656 = CARTESIAN_POINT ( 'NONE',  ( -1.468935926773453415, 0.000000000000000000, -2.359442256370053512E-16 ) ) ;
#657 = ORIENTED_EDGE ( 'NONE', *, *, #29, .F. ) ;
#658 = DIRECTION ( 'NONE',  ( 0.000000000000000000, -1.000000000000000000, 0.000000000000000000 ) ) ;
#659 = VERTEX_POINT ( 'NONE', #874 ) ;
#660 = DIRECTION ( 'NONE',  ( 0.000000000000000000, 0.000000000000000000, 1.000000000000000000 ) ) ;
#661 = DIRECTION ( 'NONE',  ( 0.000000000000000000, -0.000000000000000000, -1.000000000000000000 ) ) ;
#662 = ORIENTED_EDGE ( 'NONE', *, *, #804, .T. ) ;
#663 = VECTOR ( 'NONE', #945, 1000.000000000000000 ) ;
#664 = CARTESIAN_POINT ( 'NONE',  ( 1.231064073226545430, 4.000000000000000000, 1.240331807780321371 ) ) ;
#665 = VECTOR ( 'NONE', #46, 1000.000000000000000 ) ;
#666 = ORIENTED_EDGE ( 'NONE', *, *, #261, .T. ) ;
#667 = FACE_OUTER_BOUND ( 'NONE', #329, .T. ) ;
#668 = ORIENTED_EDGE ( 'NONE', *, *, #193, .F. ) ;
#669 = EDGE_CURVE ( 'NONE', #303, #921, #211, .T. ) ;
#670 = DIRECTION ( 'NONE',  ( -0.000000000000000000, 1.000000000000000000, -0.000000000000000000 ) ) ;
#671 = ADVANCED_FACE ( 'NONE', ( #650 ), #80, .F. ) ;
#672 = ORIENTED_EDGE ( 'NONE', *, *, #176, .F. ) ;
#673 = ADVANCED_FACE ( 'NONE', ( #598, #667 ), #950, .T. ) ;
#674 = FACE_OUTER_BOUND ( 'NONE', #818, .T. ) ;
#675 = ORIENTED_EDGE ( 'NONE', *, *, #66, .T. ) ;
#676 = DIRECTION ( 'NONE',  ( -0.3236155771181852825, -0.8891264907159879272, -0.3236155771181852825 ) ) ;
#677 = ORIENTED_EDGE ( 'NONE', *, *, #93, .F. ) ;
#678 = VERTEX_POINT ( 'NONE', #810 ) ;
#679 = CARTESIAN_POINT ( 'NONE',  ( 7.556064073226545830, 0.000000000000000000, 8.915331807780320972 ) ) ;
#680 = ORIENTED_EDGE ( 'NONE', *, *, #421, .F. ) ;
#681 = AXIS2_PLACEMENT_3D ( 'NONE', #445, #595, #898 ) ;
#682 = DIRECTION ( 'NONE',  ( -1.927470528863119049E-16, -0.000000000000000000, -1.000000000000000000 ) ) ;
#683 = EDGE_CURVE ( 'NONE', #480, #422, #224, .T. ) ;
#684 = DIRECTION ( 'NONE',  ( -5.354084802397554351E-17, 0.000000000000000000, 1.000000000000000000 ) ) ;
#685 = LINE ( 'NONE', #911, #517 ) ;
#686 = LINE ( 'NONE', #912, #835 ) ;
#687 = EDGE_CURVE ( 'NONE', #596, #659, #291, .T. ) ;
#688 = PLANE ( 'NONE',  #133 ) ;
#689 = DIRECTION ( 'NONE',  ( 0.000000000000000000, 0.000000000000000000, 1.000000000000000000 ) ) ;
#690 = CARTESIAN_POINT ( 'NONE',  ( 7.556064073226545830, 6.000000000000000000, 10.91533180778032097 ) ) ;
#691 = ORIENTED_EDGE ( 'NONE', *, *, #948, .T. ) ;
#692 = CYLINDRICAL_SURFACE ( 'NONE', #132, 3.000000000000000000 ) ;
#693 = DIRECTION ( 'NONE',  ( -0.000000000000000000, 1.000000000000000000, -0.000000000000000000 ) ) ;
#694 = VECTOR ( 'NONE', #628, 1000.000000000000000 ) ;
#695 = VECTOR ( 'NONE', #916, 1000.000000000000000 ) ;
#696 = VECTOR ( 'NONE', #581, 1000.000000000000000 ) ;
#697 = VERTEX_POINT ( 'NONE', #509 ) ;
#698 = ADVANCED_FACE ( 'NONE', ( #368 ), #12, .F. ) ;
#699 = CARTESIAN_POINT ( 'NONE',  ( -0.1189359267734545894, 0.000000000000000000, 2.590331807780321238 ) ) ;
#700 = EDGE_CURVE ( 'NONE', #587, #422, #653, .T. ) ;
#701 = CARTESIAN_POINT ( 'NONE',  ( 1.231064073226545652, 0.000000000000000000, 1.318244289047975164E-16 ) ) ;
#702 = ORIENTED_EDGE ( 'NONE', *, *, #106, .T. ) ;
#703 = DIRECTION ( 'NONE',  ( -1.239088197126291310E-16, 0.000000000000000000, 1.000000000000000000 ) ) ;
#704 = EDGE_CURVE ( 'NONE', #892, #451, #815, .T. ) ;
#705 = CARTESIAN_POINT ( 'NONE',  ( 9.556064073226545830, 6.000000000000000000, 8.915331807780322748 ) ) ;
#706 = PLANE ( 'NONE',  #404 ) ;
#707 = ORIENTED_EDGE ( 'NONE', *, *, #401, .F. ) ;
#708 = LINE ( 'NONE', #926, #665 ) ;
#709 = CARTESIAN_POINT ( 'NONE',  ( -0.1189359267734544784, 0.000000000000000000, -7.163921677464232681E-18 ) ) ;
#710 = PRODUCT ( 'Basic_Key_Cap', 'Basic_Key_Cap', '', ( #441 ) ) ;
#711 = CARTESIAN_POINT ( 'NONE',  ( -8.443935926773454170, 6.000000000000000000, 10.91533180778032097 ) ) ;
#712 = AXIS2_PLACEMENT_3D ( 'NONE', #495, #48, #432 ) ;
#713 = ORIENTED_EDGE ( 'NONE', *, *, #532, .T. ) ;
#714 = VECTOR ( 'NONE', #125, 1000.000000000000114 ) ;
#715 = DIRECTION ( 'NONE',  ( 0.000000000000000000, -0.000000000000000000, -1.000000000000000000 ) ) ;
#716 = ADVANCED_FACE ( 'NONE', ( #286 ), #579, .F. ) ;
#717 = AXIS2_PLACEMENT_3D ( 'NONE', #272, #413, #715 ) ;
#718 = CARTESIAN_POINT ( 'NONE',  ( 7.556064073226545830, 0.000000000000000000, 10.91533180778032097 ) ) ;
#719 = EDGE_LOOP ( 'NONE', ( #118, #910 ) ) ;
#720 = LINE ( 'NONE', #209, #588 ) ;
#721 = ORIENTED_EDGE ( 'NONE', *, *, #704, .T. ) ;
#722 = DIRECTION ( 'NONE',  ( -0.000000000000000000, 1.000000000000000000, -0.000000000000000000 ) ) ;
#723 = CARTESIAN_POINT ( 'NONE',  ( -6.443935926773454170, 0.000000000000000000, -5.084668192219678140 ) ) ;
#724 = ORIENTED_EDGE ( 'NONE', *, *, #203, .T. ) ;
#725 = CARTESIAN_POINT ( 'NONE',  ( -6.640841681966902978E-17, 0.000000000000000000, 1.240331807780321371 ) ) ;
#726 = LINE ( 'NONE', #735, #471 ) ;
#727 = ORIENTED_EDGE ( 'NONE', *, *, #91, .T. ) ;
#728 = FACE_OUTER_BOUND ( 'NONE', #396, .T. ) ;
#729 = VECTOR ( 'NONE', #183, 1000.000000000000000 ) ;
#730 = DIRECTION ( 'NONE',  ( -0.000000000000000000, 1.000000000000000000, -0.000000000000000000 ) ) ;
#731 = VECTOR ( 'NONE', #869, 1000.000000000000000 ) ;
#732 = DIRECTION ( 'NONE',  ( -0.000000000000000000, 1.000000000000000000, -0.000000000000000000 ) ) ;
#733 = ORIENTED_EDGE ( 'NONE', *, *, #18, .T. ) ;
#734 = ORIENTED_EDGE ( 'NONE', *, *, #165, .F. ) ;
#735 = CARTESIAN_POINT ( 'NONE',  ( 0.000000000000000000, 0.000000000000000000, 2.590331807780321238 ) ) ;
#736 = VERTEX_POINT ( 'NONE', #297 ) ;
#737 = DIRECTION ( 'NONE',  ( 6.023345402697245486E-17, 0.000000000000000000, -1.000000000000000000 ) ) ;
#738 = ORIENTED_EDGE ( 'NONE', *, *, #159, .F. ) ;
#739 = EDGE_CURVE ( 'NONE', #777, #892, #438, .T. ) ;
#740 = CLOSED_SHELL ( 'NONE', ( #465, #217, #600, #845, #671, #7, #572, #518, #814, #314, #437, #673, #185, #188, #716, #75, #172, #356, #545, #79, #791, #698, #362, #573, #801, #878, #603, #475, #539, #920, #632 ) ) ;
#741 = DIRECTION ( 'NONE',  ( 1.000000000000000000, 0.000000000000000000, 0.000000000000000000 ) ) ;
#742 = EDGE_CURVE ( 'NONE', #597, #536, #798, .T. ) ;
#743 = EDGE_LOOP ( 'NONE', ( #417, #447, #262, #384 ) ) ;
#744 = VECTOR ( 'NONE', #829, 1000.000000000000000 ) ;
#745 = DIRECTION ( 'NONE',  ( -0.3236155771181853380, -0.8891264907159879272, 0.3236155771181852270 ) ) ;
#746 = VECTOR ( 'NONE', #853, 1000.000000000000000 ) ;
#747 = ORIENTED_EDGE ( 'NONE', *, *, #742, .F. ) ;
#748 = FACE_OUTER_BOUND ( 'NONE', #308, .T. ) ;
#749 = EDGE_LOOP ( 'NONE', ( #785, #36, #501, #871 ) ) ;
#750 = CARTESIAN_POINT ( 'NONE',  ( 2.581064073226545741, 4.000000000000000000, 2.590331807780321238 ) ) ;
#751 = EDGE_LOOP ( 'NONE', ( #305, #127, #522, #109 ) ) ;
#752 = FACE_OUTER_BOUND ( 'NONE', #751, .T. ) ;
#753 = ORIENTED_EDGE ( 'NONE', *, *, #64, .F. ) ;
#754 = DIRECTION ( 'NONE',  ( 0.000000000000000000, 1.000000000000000000, 0.000000000000000000 ) ) ;
#755 = CARTESIAN_POINT ( 'NONE',  ( 2.581064073226545741, 0.000000000000000000, 0.000000000000000000 ) ) ;
#756 = FACE_OUTER_BOUND ( 'NONE', #460, .T. ) ;
#757 = CIRCLE ( 'NONE', #341, 2.000000000000000000 ) ;
#758 = EDGE_CURVE ( 'NONE', #655, #148, #726, .T. ) ;
#759 = AXIS2_PLACEMENT_3D ( 'NONE', #326, #923, #623 ) ;
#760 = DIRECTION ( 'NONE',  ( 0.000000000000000000, 1.000000000000000000, 0.000000000000000000 ) ) ;
#761 = COLOUR_RGB ( '',0.7921568627450980005, 0.8196078431372548767, 0.9333333333333333481 ) ;
#762 = FACE_OUTER_BOUND ( 'NONE', #946, .T. ) ;
#763 = CARTESIAN_POINT ( 'NONE',  ( 6.089885488677042602, 4.028292553937699694, -3.618489607670171360 ) ) ;
#764 = MANIFOLD_SOLID_BREP ( 'Fillet1', #740 ) ;
#765 = LINE ( 'NONE', #398, #887 ) ;
#766 = ORIENTED_EDGE ( 'NONE', *, *, #196, .T. ) ;
#767 = LINE ( 'NONE', #22, #392 ) ;
#768 = FACE_OUTER_BOUND ( 'NONE', #568, .T. ) ;
#769 = CARTESIAN_POINT ( 'NONE',  ( 0.5560640732265466069, 4.000000000000000000, 1.915331807780320972 ) ) ;
#770 = EDGE_CURVE ( 'NONE', #382, #736, #144, .T. ) ;
#771 = ORIENTED_EDGE ( 'NONE', *, *, #193, .T. ) ;
#772 = CARTESIAN_POINT ( 'NONE',  ( -0.1189359267734545894, 0.000000000000000000, 1.240331807780321371 ) ) ;
#773 = EDGE_CURVE ( 'NONE', #597, #137, #767, .T. ) ;
#774 = CARTESIAN_POINT ( 'NONE',  ( 1.231064073226545430, 0.000000000000000000, 2.590331807780321238 ) ) ;
#775 = ORIENTED_EDGE ( 'NONE', *, *, #507, .T. ) ;
#776 = EDGE_CURVE ( 'NONE', #796, #306, #325, .T. ) ;
#777 = VERTEX_POINT ( 'NONE', #240 ) ;
#778 = DIRECTION ( 'NONE',  ( 1.927470528863119049E-16, 0.000000000000000000, 1.000000000000000000 ) ) ;
#779 = DIRECTION ( 'NONE',  ( 0.000000000000000000, 0.000000000000000000, 1.000000000000000000 ) ) ;
#780 = DIRECTION ( 'NONE',  ( 1.000000000000000000, 0.000000000000000000, 5.354084802397554351E-17 ) ) ;
#781 = EDGE_LOOP ( 'NONE', ( #371, #816, #771, #825 ) ) ;
#782 = CARTESIAN_POINT ( 'NONE',  ( -6.443935926773455947, 6.000000000000000000, -5.084668192219678140 ) ) ;
#783 = CARTESIAN_POINT ( 'NONE',  ( -8.443935926773455947, 6.000000000000000000, -5.084668192219678140 ) ) ;
#784 = EDGE_CURVE ( 'NONE', #451, #119, #249, .T. ) ;
#785 = ORIENTED_EDGE ( 'NONE', *, *, #687, .T. ) ;
#786 = CARTESIAN_POINT ( 'NONE',  ( -0.1189359267734544784, 0.000000000000000000, -7.163921677464232681E-18 ) ) ;
#787 = FACE_OUTER_BOUND ( 'NONE', #245, .T. ) ;
#788 = ORIENTED_EDGE ( 'NONE', *, *, #246, .F. ) ;
#789 = PRODUCT_DEFINITION_SHAPE ( 'NONE', 'NONE',  #942 ) ;
#790 = CARTESIAN_POINT ( 'NONE',  ( 1.231064073226545430, 0.000000000000000000, 1.240331807780321371 ) ) ;
#791 = ADVANCED_FACE ( 'NONE', ( #674 ), #688, .T. ) ;
#792 = VECTOR ( 'NONE', #439, 1000.000000000000000 ) ;
#793 = ORIENTED_EDGE ( 'NONE', *, *, #327, .T. ) ;
#794 = FACE_OUTER_BOUND ( 'NONE', #271, .T. ) ;
#795 = FACE_OUTER_BOUND ( 'NONE', #74, .T. ) ;
#796 = VERTEX_POINT ( 'NONE', #457 ) ;
#797 = LINE ( 'NONE', #511, #157 ) ;
#798 = LINE ( 'NONE', #442, #223 ) ;
#799 = PLANE ( 'NONE',  #904 ) ;
#800 = LINE ( 'NONE', #601, #440 ) ;
#801 = ADVANCED_FACE ( 'NONE', ( #748 ), #315, .T. ) ;
#802 = VECTOR ( 'NONE', #464, 1000.000000000000000 ) ;
#803 = VECTOR ( 'NONE', #94, 1000.000000000000000 ) ;
#804 = EDGE_CURVE ( 'NONE', #577, #736, #842, .T. ) ;
#805 =( NAMED_UNIT ( * ) SI_UNIT ( $, .STERADIAN. ) SOLID_ANGLE_UNIT ( ) );
#806 = VECTOR ( 'NONE', #233, 1000.000000000000000 ) ;
#807 = ORIENTED_EDGE ( 'NONE', *, *, #508, .F. ) ;
#808 = FACE_OUTER_BOUND ( 'NONE', #524, .T. ) ;
#809 = ORIENTED_EDGE ( 'NONE', *, *, #96, .T. ) ;
#810 = CARTESIAN_POINT ( 'NONE',  ( 1.231064073226545208, 4.000000000000000000, 3.940331807780321771 ) ) ;
#811 = EDGE_LOOP ( 'NONE', ( #184, #292, #45, #347 ) ) ;
#812 = CARTESIAN_POINT ( 'NONE',  ( -8.443935926773454170, 0.000000000000000000, 8.915331807780322748 ) ) ;
#813 = ORIENTED_EDGE ( 'NONE', *, *, #433, .F. ) ;
#814 = ADVANCED_FACE ( 'NONE', ( #752 ), #97, .F. ) ;
#815 = LINE ( 'NONE', #2, #296 ) ;
#816 = ORIENTED_EDGE ( 'NONE', *, *, #274, .T. ) ;
#817 = LINE ( 'NONE', #953, #239 ) ;
#818 = EDGE_LOOP ( 'NONE', ( #707, #592, #809, #379 ) ) ;
#819 = VECTOR ( 'NONE', #283, 1000.000000000000000 ) ;
#820 = CARTESIAN_POINT ( 'NONE',  ( -0.000000000000000000, 4.000000000000000000, 2.590331807780321238 ) ) ;
#821 = VERTEX_POINT ( 'NONE', #466 ) ;
#822 = AXIS2_PLACEMENT_3D ( 'NONE', #631, #197, #555 ) ;
#823 = DIRECTION ( 'NONE',  ( 1.000000000000000000, 0.000000000000000000, 1.070816960479510377E-16 ) ) ;
#824 =( GEOMETRIC_REPRESENTATION_CONTEXT ( 3 ) GLOBAL_UNCERTAINTY_ASSIGNED_CONTEXT ( ( #218 ) ) GLOBAL_UNIT_ASSIGNED_CONTEXT ( ( #502, #113, #352 ) ) REPRESENTATION_CONTEXT ( 'NONE', 'WORKASPACE' ) );
#825 = ORIENTED_EDGE ( 'NONE', *, *, #643, .T. ) ;
#826 = ORIENTED_EDGE ( 'NONE', *, *, #476, .T. ) ;
#827 = DIRECTION ( 'NONE',  ( 0.000000000000000000, 0.000000000000000000, 1.000000000000000000 ) ) ;
#828 = ORIENTED_EDGE ( 'NONE', *, *, #265, .F. ) ;
#829 = DIRECTION ( 'NONE',  ( 9.637352644315595243E-17, 0.000000000000000000, 1.000000000000000000 ) ) ;
#830 = DIRECTION ( 'NONE',  ( 1.000000000000000000, 0.000000000000000000, 0.000000000000000000 ) ) ;
#831 = CARTESIAN_POINT ( 'NONE',  ( 1.231064073226545652, 4.000000000000000000, 1.318244289047975164E-16 ) ) ;
#832 = CARTESIAN_POINT ( 'NONE',  ( 0.5560640732265466069, 0.000000000000000000, 1.915331807780320972 ) ) ;
#833 = LINE ( 'NONE', #177, #619 ) ;
#834 = LINE ( 'NONE', #101, #104 ) ;
#835 = VECTOR ( 'NONE', #830, 1000.000000000000000 ) ;
#836 = EDGE_CURVE ( 'NONE', #84, #596, #834, .T. ) ;
#837 = DIRECTION ( 'NONE',  ( -0.9396926207859080948, 0.3420201433256694346, -1.164362035342490253E-16 ) ) ;
#838 = VECTOR ( 'NONE', #928, 1000.000000000000000 ) ;
#839 = AXIS2_PLACEMENT_3D ( 'NONE', #943, #52, #121 ) ;
#840 = VERTEX_POINT ( 'NONE', #472 ) ;
#841 = MECHANICAL_DESIGN_GEOMETRIC_PRESENTATION_REPRESENTATION (  '', ( #40 ), #55 ) ;
#842 = LINE ( 'NONE', #461, #610 ) ;
#843 = LINE ( 'NONE', #110, #470 ) ;
#844 = ORIENTED_EDGE ( 'NONE', *, *, #64, .T. ) ;
#845 = ADVANCED_FACE ( 'NONE', ( #762 ), #487, .F. ) ;
#846 = EDGE_CURVE ( 'NONE', #587, #903, #120, .T. ) ;
#847 = VERTEX_POINT ( 'NONE', #348 ) ;
#848 = LINE ( 'NONE', #182, #191 ) ;
#849 = DIRECTION ( 'NONE',  ( 0.000000000000000000, -1.000000000000000000, 0.000000000000000000 ) ) ;
#850 = EDGE_CURVE ( 'NONE', #150, #90, #934, .T. ) ;
#851 = CARTESIAN_POINT ( 'NONE',  ( -6.443935926773455947, 0.000000000000000000, 8.915331807780320972 ) ) ;
#852 = ORIENTED_EDGE ( 'NONE', *, *, #877, .T. ) ;
#853 = DIRECTION ( 'NONE',  ( 0.000000000000000000, 0.000000000000000000, 1.000000000000000000 ) ) ;
#854 = CARTESIAN_POINT ( 'NONE',  ( -0.1189359267734545894, 4.000000000000000000, 1.240331807780321371 ) ) ;
#855 = CARTESIAN_POINT ( 'NONE',  ( -0.1189359267734547143, 4.000000000000000000, 3.940331807780321771 ) ) ;
#856 = VECTOR ( 'NONE', #304, 1000.000000000000000 ) ;
#857 = ORIENTED_EDGE ( 'NONE', *, *, #846, .T. ) ;
#858 = CARTESIAN_POINT ( 'NONE',  ( -4.988054989708643028, 4.000000000000000000, 7.459450870715508053 ) ) ;
#859 = CYLINDRICAL_SURFACE ( 'NONE', #116, 2.000000000000000000 ) ;
#860 = EDGE_CURVE ( 'NONE', #496, #306, #937, .T. ) ;
#861 = DIRECTION ( 'NONE',  ( -5.354084802397554351E-17, 0.000000000000000000, 1.000000000000000000 ) ) ;
#862 = ORIENTED_EDGE ( 'NONE', *, *, #135, .F. ) ;
#863 = DIRECTION ( 'NONE',  ( -0.000000000000000000, 1.000000000000000000, -0.000000000000000000 ) ) ;
#864 = EDGE_CURVE ( 'NONE', #166, #290, #551, .T. ) ;
#865 = DIRECTION ( 'NONE',  ( 0.000000000000000000, -0.000000000000000000, -1.000000000000000000 ) ) ;
#866 = ORIENTED_EDGE ( 'NONE', *, *, #476, .F. ) ;
#867 = LINE ( 'NONE', #790, #102 ) ;
#868 = EDGE_LOOP ( 'NONE', ( #886, #458, #550, #237 ) ) ;
#869 = DIRECTION ( 'NONE',  ( -0.000000000000000000, 1.000000000000000000, -0.000000000000000000 ) ) ;
#870 = DIRECTION ( 'NONE',  ( -1.000000000000000000, 0.000000000000000000, -0.000000000000000000 ) ) ;
#871 = ORIENTED_EDGE ( 'NONE', *, *, #434, .T. ) ;
#872 = DIRECTION ( 'NONE',  ( 0.000000000000000000, 0.000000000000000000, 1.000000000000000000 ) ) ;
#873 = VECTOR ( 'NONE', #43, 1000.000000000000000 ) ;
#874 = CARTESIAN_POINT ( 'NONE',  ( 7.556064073226547606, 0.000000000000000000, -5.084668192219678140 ) ) ;
#875 = ORIENTED_EDGE ( 'NONE', *, *, #894, .T. ) ;
#876 = DIRECTION ( 'NONE',  ( -0.000000000000000000, 0.000000000000000000, 1.000000000000000000 ) ) ;
#877 = EDGE_CURVE ( 'NONE', #119, #777, #848, .T. ) ;
#878 = ADVANCED_FACE ( 'NONE', ( #187, #794 ), #626, .T. ) ;
#879 = DIRECTION ( 'NONE',  ( 1.000000000000000000, 0.000000000000000000, -0.000000000000000000 ) ) ;
#880 = ORIENTED_EDGE ( 'NONE', *, *, #557, .F. ) ;
#881 = CARTESIAN_POINT ( 'NONE',  ( 0.5560640732265469399, 0.000000000000000000, -1.084668192219679694 ) ) ;
#882 = EDGE_CURVE ( 'NONE', #290, #577, #492, .T. ) ;
#883 = APPLICATION_PROTOCOL_DEFINITION ( 'draft international standard', 'automotive_design', 1998, #385 ) ;
#884 =( NAMED_UNIT ( * ) PLANE_ANGLE_UNIT ( ) SI_UNIT ( $, .RADIAN. ) );
#885 = DIRECTION ( 'NONE',  ( 1.000000000000000000, 0.000000000000000000, 5.354084802397554351E-17 ) ) ;
#886 = ORIENTED_EDGE ( 'NONE', *, *, #373, .F. ) ;
#887 = VECTOR ( 'NONE', #255, 1000.000000000000000 ) ;
#888 = AXIS2_PLACEMENT_3D ( 'NONE', #907, #837, #312 ) ;
#889 = DIRECTION ( 'NONE',  ( 1.239088197126291310E-16, 0.000000000000000000, -1.000000000000000000 ) ) ;
#890 = UNCERTAINTY_MEASURE_WITH_UNIT (LENGTH_MEASURE( 1.000000000000000082E-05 ), #357, 'distance_accuracy_value', 'NONE');
#891 = AXIS2_PLACEMENT_3D ( 'NONE', #16, #913, #827 ) ;
#892 = VERTEX_POINT ( 'NONE', #858 ) ;
#893 = DIRECTION ( 'NONE',  ( -0.000000000000000000, 1.000000000000000000, -0.000000000000000000 ) ) ;
#894 = EDGE_CURVE ( 'NONE', #697, #594, #708, .T. ) ;
#895 = ORIENTED_EDGE ( 'NONE', *, *, #700, .F. ) ;
#896 = CARTESIAN_POINT ( 'NONE',  ( 9.556064073226542277, 6.000000000000000000, -7.084668192219678140 ) ) ;
#897 = ORIENTED_EDGE ( 'NONE', *, *, #3, .T. ) ;
#898 = DIRECTION ( 'NONE',  ( 1.000000000000000000, 0.000000000000000000, 0.000000000000000000 ) ) ;
#899 = ORIENTED_EDGE ( 'NONE', *, *, #493, .T. ) ;
#900 = SURFACE_STYLE_USAGE ( .BOTH. , #302 ) ;
#901 = EDGE_LOOP ( 'NONE', ( #462, #639, #4, #766 ) ) ;
#902 = CARTESIAN_POINT ( 'NONE',  ( -6.443935926773455947, 0.000000000000000000, -7.084668192219678140 ) ) ;
#903 = VERTEX_POINT ( 'NONE', #335 ) ;
#904 = AXIS2_PLACEMENT_3D ( 'NONE', #126, #65, #270 ) ;
#905 = ORIENTED_EDGE ( 'NONE', *, *, #742, .T. ) ;
#906 = AXIS2_PLACEMENT_3D ( 'NONE', #288, #364, #879 ) ;
#907 = CARTESIAN_POINT ( 'NONE',  ( -6.443935926773455947, 0.000000000000000000, 8.915331807780320972 ) ) ;
#908 = AXIS2_PLACEMENT_3D ( 'NONE', #656, #72, #526 ) ;
#909 = CARTESIAN_POINT ( 'NONE',  ( 9.556064073226542277, 0.000000000000000000, -7.084668192219678140 ) ) ;
#910 = ORIENTED_EDGE ( 'NONE', *, *, #365, .F. ) ;
#911 = CARTESIAN_POINT ( 'NONE',  ( -4.977757342223949166, 4.028292553937696141, -3.618489607670173580 ) ) ;
#912 = CARTESIAN_POINT ( 'NONE',  ( 0.000000000000000000, 0.000000000000000000, 3.940331807780321771 ) ) ;
#913 = DIRECTION ( 'NONE',  ( -0.000000000000000000, 1.000000000000000000, -0.000000000000000000 ) ) ;
#914 = CARTESIAN_POINT ( 'NONE',  ( 7.556064073226544053, 0.000000000000000000, -7.084668192219678140 ) ) ;
#915 = CARTESIAN_POINT ( 'NONE',  ( -0.1189359267734544784, 0.000000000000000000, -7.163921677464232681E-18 ) ) ;
#916 = DIRECTION ( 'NONE',  ( 1.000000000000000000, 0.000000000000000000, 5.354084802397554351E-17 ) ) ;
#917 = VECTOR ( 'NONE', #342, 1000.000000000000000 ) ;
#918 = AXIS2_PLACEMENT_3D ( 'NONE', #178, #386, #540 ) ;
#919 = LINE ( 'NONE', #44, #69 ) ;
#920 = ADVANCED_FACE ( 'NONE', ( #565 ), #630, .T. ) ;
#921 = VERTEX_POINT ( 'NONE', #481 ) ;
#922 = CARTESIAN_POINT ( 'NONE',  ( 7.556064073226544053, 6.000000000000000000, -7.084668192219678140 ) ) ;
#923 = DIRECTION ( 'NONE',  ( 0.000000000000000000, -1.000000000000000000, 0.000000000000000000 ) ) ;
#924 = VERTEX_POINT ( 'NONE', #922 ) ;
#925 = ORIENTED_EDGE ( 'NONE', *, *, #773, .T. ) ;
#926 = CARTESIAN_POINT ( 'NONE',  ( -1.468935926773453637, 0.000000000000000000, 1.240331807780321371 ) ) ;
#927 = PLANE ( 'NONE',  #376 ) ;
#928 = DIRECTION ( 'NONE',  ( 1.000000000000000000, 0.000000000000000000, 0.000000000000000000 ) ) ;
#929 = ORIENTED_EDGE ( 'NONE', *, *, #534, .F. ) ;
#930 = CARTESIAN_POINT ( 'NONE',  ( 9.556064073226542277, 6.000000000000000000, -7.084668192219678140 ) ) ;
#931 = CARTESIAN_POINT ( 'NONE',  ( 0.000000000000000000, 0.000000000000000000, 0.000000000000000000 ) ) ;
#932 = CARTESIAN_POINT ( 'NONE',  ( 0.000000000000000000, 0.000000000000000000, 3.940331807780321771 ) ) ;
#933 = VECTOR ( 'NONE', #737, 1000.000000000000000 ) ;
#934 = CIRCLE ( 'NONE', #621, 2.000000000000000000 ) ;
#935 = EDGE_CURVE ( 'NONE', #847, #150, #407, .T. ) ;
#936 = ORIENTED_EDGE ( 'NONE', *, *, #582, .F. ) ;
#937 = LINE ( 'NONE', #418, #746 ) ;
#938 = DIRECTION ( 'NONE',  ( 0.000000000000000000, -1.000000000000000000, 0.000000000000000000 ) ) ;
#939 = DIRECTION ( 'NONE',  ( 0.000000000000000000, 1.000000000000000000, 0.000000000000000000 ) ) ;
#940 = ORIENTED_EDGE ( 'NONE', *, *, #758, .T. ) ;
#941 = CARTESIAN_POINT ( 'NONE',  ( -8.443935926773455947, 6.000000000000000000, -7.084668192219678140 ) ) ;
#942 = PRODUCT_DEFINITION ( 'UNKNOWN', '', #8, #443 ) ;
#943 = CARTESIAN_POINT ( 'NONE',  ( 7.556064073226545830, 6.000000000000000000, 8.915331807780322748 ) ) ;
#944 = DIRECTION ( 'NONE',  ( 1.000000000000000000, 0.000000000000000000, 5.354084802397554351E-17 ) ) ;
#945 = DIRECTION ( 'NONE',  ( 1.000000000000000000, 0.000000000000000000, 6.023345402697246719E-17 ) ) ;
#946 = EDGE_LOOP ( 'NONE', ( #895, #857, #199, #230 ) ) ;
#947 = DIRECTION ( 'NONE',  ( -0.000000000000000000, 1.000000000000000000, -0.000000000000000000 ) ) ;
#948 = EDGE_CURVE ( 'NONE', #655, #796, #128, .T. ) ;
#949 = AXIS2_PLACEMENT_3D ( 'NONE', #638, #939, #872 ) ;
#950 = PLANE ( 'NONE',  #70 ) ;
#951 = ORIENTED_EDGE ( 'NONE', *, *, #61, .T. ) ;
#952 = EDGE_CURVE ( 'NONE', #166, #564, #257, .T. ) ;
#953 = CARTESIAN_POINT ( 'NONE',  ( -6.640841681966902978E-17, 0.000000000000000000, 1.240331807780321371 ) ) ;
#954 = CARTESIAN_POINT ( 'NONE',  ( 0.000000000000000000, 0.000000000000000000, 2.590331807780321238 ) ) ;
#955 = DIRECTION ( 'NONE',  ( 0.000000000000000000, 0.000000000000000000, 1.000000000000000000 ) ) ;
ENDSEC;
END-ISO-10303-21;
