ISO-10303-21;
HEADER;
FILE_DESCRIPTION (( 'STEP AP214' ),
    '1' );
FILE_NAME ('Calculator_Body_V1.STEP',
    '2026-09-25T00:10:29',
    ( '' ),
    ( '' ),
    'SwSTEP 2.0',
    'SolidWorks 2024',
    '' );
FILE_SCHEMA (( 'AUTOMOTIVE_DESIGN' ));
ENDSEC;

DATA;
#1 = DIRECTION ( 'NONE',  ( -0.000000000000000000, -1.000000000000000000, -0.000000000000000000 ) ) ;
#2 = CARTESIAN_POINT ( 'NONE',  ( -43.27313769751690842, 5.000000000000000000, 108.1941309255079062 ) ) ;
#3 = DIRECTION ( 'NONE',  ( -0.000000000000000000, -1.000000000000000000, -0.000000000000000000 ) ) ;
#4 = VERTEX_POINT ( 'NONE', #836 ) ;
#5 = ORIENTED_EDGE ( 'NONE', *, *, #367, .T. ) ;
#6 = EDGE_CURVE ( 'NONE', #789, #96, #829, .T. ) ;
#7 = CARTESIAN_POINT ( 'NONE',  ( -40.77313769751694394, 5.000000000000000000, -49.30586907449209377 ) ) ;
#8 = LINE ( 'NONE', #1004, #819 ) ;
#9 = DIRECTION ( 'NONE',  ( 0.000000000000000000, 0.000000000000000000, 1.000000000000000000 ) ) ;
#10 = VERTEX_POINT ( 'NONE', #530 ) ;
#11 = ORIENTED_EDGE ( 'NONE', *, *, #846, .T. ) ;
#12 = ORIENTED_EDGE ( 'NONE', *, *, #325, .F. ) ;
#13 = CARTESIAN_POINT ( 'NONE',  ( 4.226862302483056943, 78.65718734690204883, 0.000000000000000000 ) ) ;
#14 = DIRECTION ( 'NONE',  ( 0.000000000000000000, 0.000000000000000000, 1.000000000000000000 ) ) ;
#15 = EDGE_CURVE ( 'NONE', #404, #713, #895, .T. ) ;
#16 =( LENGTH_UNIT ( ) NAMED_UNIT ( * ) SI_UNIT ( .MILLI., .METRE. ) );
#17 = ORIENTED_EDGE ( 'NONE', *, *, #814, .T. ) ;
#18 = ORIENTED_EDGE ( 'NONE', *, *, #519, .F. ) ;
#19 = VECTOR ( 'NONE', #689, 1000.000000000000000 ) ;
#20 = AXIS2_PLACEMENT_3D ( 'NONE', #453, #531, #147 ) ;
#21 = VECTOR ( 'NONE', #206, 1000.000000000000000 ) ;
#22 = DIRECTION ( 'NONE',  ( -1.000000000000000000, 0.000000000000000000, 0.000000000000000000 ) ) ;
#23 = DIRECTION ( 'NONE',  ( 0.000000000000000000, 0.000000000000000000, 1.000000000000000000 ) ) ;
#24 = ADVANCED_FACE ( 'NONE', ( #444 ), #824, .F. ) ;
#25 = CARTESIAN_POINT ( 'NONE',  ( 0.000000000000000000, 15.00000000000000000, 0.000000000000000000 ) ) ;
#26 = ORIENTED_EDGE ( 'NONE', *, *, #1002, .T. ) ;
#27 = VERTEX_POINT ( 'NONE', #141 ) ;
#28 = DIRECTION ( 'NONE',  ( 0.000000000000000000, 1.000000000000000000, 0.000000000000000000 ) ) ;
#29 = EDGE_LOOP ( 'NONE', ( #486, #126, #889, #375 ) ) ;
#30 = ORIENTED_EDGE ( 'NONE', *, *, #851, .F. ) ;
#31 = EDGE_CURVE ( 'NONE', #953, #272, #452, .T. ) ;
#32 = EDGE_CURVE ( 'NONE', #789, #817, #63, .T. ) ;
#33 = DIRECTION ( 'NONE',  ( 0.000000000000000000, 0.000000000000000000, 1.000000000000000000 ) ) ;
#34 =( NAMED_UNIT ( * ) PLANE_ANGLE_UNIT ( ) SI_UNIT ( $, .RADIAN. ) );
#35 = ORIENTED_EDGE ( 'NONE', *, *, #978, .F. ) ;
#36 = VECTOR ( 'NONE', #466, 1000.000000000000000 ) ;
#37 = CIRCLE ( 'NONE', #597, 2.499999999999998668 ) ;
#38 = VECTOR ( 'NONE', #782, 1000.000000000000000 ) ;
#39 = DIRECTION ( 'NONE',  ( 0.000000000000000000, -0.000000000000000000, 1.000000000000000000 ) ) ;
#40 = VERTEX_POINT ( 'NONE', #587 ) ;
#41 = ORIENTED_EDGE ( 'NONE', *, *, #907, .T. ) ;
#42 = VERTEX_POINT ( 'NONE', #555 ) ;
#43 = PRODUCT ( 'Calculator_Body_V1', 'Calculator_Body_V1', '', ( #908 ) ) ;
#44 = ADVANCED_FACE ( 'NONE', ( #698 ), #480, .F. ) ;
#45 = DIRECTION ( 'NONE',  ( 1.343011723336882952E-16, 0.000000000000000000, 1.000000000000000000 ) ) ;
#46 = ORIENTED_EDGE ( 'NONE', *, *, #47, .F. ) ;
#47 = EDGE_CURVE ( 'NONE', #556, #970, #558, .T. ) ;
#48 = DIRECTION ( 'NONE',  ( -0.000000000000000000, -1.000000000000000000, -0.000000000000000000 ) ) ;
#49 = ORIENTED_EDGE ( 'NONE', *, *, #839, .F. ) ;
#50 = ORIENTED_EDGE ( 'NONE', *, *, #458, .F. ) ;
#51 = DIRECTION ( 'NONE',  ( 0.000000000000000000, 0.000000000000000000, 1.000000000000000000 ) ) ;
#52 = LINE ( 'NONE', #904, #862 ) ;
#53 = CYLINDRICAL_SURFACE ( 'NONE', #785, 2.559266680167342045 ) ;
#54 = EDGE_LOOP ( 'NONE', ( #488, #12, #668, #605 ) ) ;
#55 = VERTEX_POINT ( 'NONE', #310 ) ;
#56 = CIRCLE ( 'NONE', #1005, 1.500000000000001332 ) ;
#57 = ORIENTED_EDGE ( 'NONE', *, *, #390, .F. ) ;
#58 = CIRCLE ( 'NONE', #72, 2.559266680167342045 ) ;
#59 = VECTOR ( 'NONE', #690, 1000.000000000000000 ) ;
#60 = ORIENTED_EDGE ( 'NONE', *, *, #458, .T. ) ;
#61 = EDGE_CURVE ( 'NONE', #649, #424, #857, .T. ) ;
#62 =( NAMED_UNIT ( * ) PLANE_ANGLE_UNIT ( ) SI_UNIT ( $, .RADIAN. ) );
#63 = LINE ( 'NONE', #370, #448 ) ;
#64 = DIRECTION ( 'NONE',  ( 0.000000000000000000, 0.000000000000000000, 1.000000000000000000 ) ) ;
#65 = ADVANCED_FACE ( 'NONE', ( #780 ), #933, .F. ) ;
#66 = ORIENTED_EDGE ( 'NONE', *, *, #775, .F. ) ;
#67 = DIRECTION ( 'NONE',  ( -1.000000000000000000, -0.000000000000000000, -0.000000000000000000 ) ) ;
#68 = EDGE_CURVE ( 'NONE', #40, #622, #237, .T. ) ;
#69 = LINE ( 'NONE', #534, #327 ) ;
#70 = DIRECTION ( 'NONE',  ( 0.000000000000000000, 0.000000000000000000, -1.000000000000000000 ) ) ;
#71 = DIRECTION ( 'NONE',  ( 0.000000000000000000, 0.000000000000000000, 1.000000000000000000 ) ) ;
#72 = AXIS2_PLACEMENT_3D ( 'NONE', #616, #916, #218 ) ;
#73 = VECTOR ( 'NONE', #269, 1000.000000000000000 ) ;
#74 = CARTESIAN_POINT ( 'NONE',  ( -36.02313769751692263, 12.00000000000000000, 100.9441309255079062 ) ) ;
#75 = CARTESIAN_POINT ( 'NONE',  ( -29.02313769751693684, 78.65718734690204883, -7.630869074492094839 ) ) ;
#76 = DIRECTION ( 'NONE',  ( 0.000000000000000000, 0.000000000000000000, -1.000000000000000000 ) ) ;
#77 = DIRECTION ( 'NONE',  ( 0.000000000000000000, 0.000000000000000000, 1.000000000000000000 ) ) ;
#78 = DIRECTION ( 'NONE',  ( 1.301042606982605321E-16, 0.000000000000000000, 1.000000000000000000 ) ) ;
#79 = DIRECTION ( 'NONE',  ( 0.000000000000000000, -1.000000000000000000, 0.000000000000000000 ) ) ;
#80 = CARTESIAN_POINT ( 'NONE',  ( -29.02313769751693684, 0.000000000000000000, -2.571602394324754570 ) ) ;
#81 = LINE ( 'NONE', #7, #195 ) ;
#82 = DIRECTION ( 'NONE',  ( -0.000000000000000000, -1.000000000000000000, -0.000000000000000000 ) ) ;
#83 = AXIS2_PLACEMENT_3D ( 'NONE', #875, #794, #412 ) ;
#84 = ORIENTED_EDGE ( 'NONE', *, *, #870, .F. ) ;
#85 = VECTOR ( 'NONE', #972, 1000.000000000000000 ) ;
#86 = CARTESIAN_POINT ( 'NONE',  ( -40.27313769751692973, 5.000000000000000000, -48.80586907449209377 ) ) ;
#87 = LINE ( 'NONE', #167, #518 ) ;
#88 = CARTESIAN_POINT ( 'NONE',  ( -40.77313769751693684, 11.99999999999999645, -0.1308690744920970039 ) ) ;
#89 = VERTEX_POINT ( 'NONE', #1006 ) ;
#90 = DIRECTION ( 'NONE',  ( 0.000000000000000000, 1.000000000000000000, 0.000000000000000000 ) ) ;
#91 = EDGE_CURVE ( 'NONE', #826, #500, #193, .T. ) ;
#92 = DIRECTION ( 'NONE',  ( -1.000000000000000000, 0.000000000000000000, -0.000000000000000000 ) ) ;
#93 = VERTEX_POINT ( 'NONE', #628 ) ;
#94 = LINE ( 'NONE', #492, #973 ) ;
#95 = ORIENTED_EDGE ( 'NONE', *, *, #152, .F. ) ;
#96 = VERTEX_POINT ( 'NONE', #88 ) ;
#97 = LINE ( 'NONE', #104, #957 ) ;
#98 = CARTESIAN_POINT ( 'NONE',  ( -19.02313769751694394, 11.99999999999999645, -7.630869074492096615 ) ) ;
#99 = DIRECTION ( 'NONE',  ( 0.000000000000000000, 0.000000000000000000, -1.000000000000000000 ) ) ;
#100 = DIRECTION ( 'NONE',  ( -1.000000000000000000, -0.000000000000000000, -0.000000000000000000 ) ) ;
#101 = ORIENTED_EDGE ( 'NONE', *, *, #598, .T. ) ;
#102 = MECHANICAL_DESIGN_GEOMETRIC_PRESENTATION_REPRESENTATION (  '', ( #608 ), #675 ) ;
#103 = AXIS2_PLACEMENT_3D ( 'NONE', #319, #401, #788 ) ;
#104 = CARTESIAN_POINT ( 'NONE',  ( -40.77313769751692263, 12.00000000000000000, 97.44413092550790623 ) ) ;
#105 = CARTESIAN_POINT ( 'NONE',  ( 44.22686230248308448, 12.00000000000000000, 105.6941309255079062 ) ) ;
#106 = PRESENTATION_STYLE_ASSIGNMENT (( #792 ) ) ;
#107 = ORIENTED_EDGE ( 'NONE', *, *, #181, .T. ) ;
#108 = EDGE_CURVE ( 'NONE', #508, #813, #540, .T. ) ;
#109 = VERTEX_POINT ( 'NONE', #402 ) ;
#110 = CARTESIAN_POINT ( 'NONE',  ( -43.27313769751692973, 0.000000000000000000, -51.80586907449210088 ) ) ;
#111 = ORIENTED_EDGE ( 'NONE', *, *, #432, .T. ) ;
#112 = PLANE ( 'NONE',  #377 ) ;
#113 = ORIENTED_EDGE ( 'NONE', *, *, #61, .T. ) ;
#114 = EDGE_CURVE ( 'NONE', #528, #759, #1001, .T. ) ;
#115 = DIRECTION ( 'NONE',  ( 0.000000000000000000, -1.000000000000000000, 0.000000000000000000 ) ) ;
#116 = DIRECTION ( 'NONE',  ( 0.000000000000000000, -1.000000000000000000, 0.000000000000000000 ) ) ;
#117 = VERTEX_POINT ( 'NONE', #226 ) ;
#118 = EDGE_LOOP ( 'NONE', ( #589, #982 ) ) ;
#119 = ADVANCED_BREP_SHAPE_REPRESENTATION ( 'Calculator_Body_V1', ( #121, #974 ), #845 ) ;
#120 = EDGE_CURVE ( 'NONE', #385, #324, #800, .T. ) ;
#121 = MANIFOLD_SOLID_BREP ( 'Cut-Extrude1', #987 ) ;
#122 = AXIS2_PLACEMENT_3D ( 'NONE', #572, #711, #23 ) ;
#123 = DIRECTION ( 'NONE',  ( -0.000000000000000000, -1.000000000000000000, -0.000000000000000000 ) ) ;
#124 = ORIENTED_EDGE ( 'NONE', *, *, #114, .T. ) ;
#125 = DIRECTION ( 'NONE',  ( 0.000000000000000000, -1.000000000000000000, 0.000000000000000000 ) ) ;
#126 = ORIENTED_EDGE ( 'NONE', *, *, #297, .T. ) ;
#127 = ORIENTED_EDGE ( 'NONE', *, *, #654, .F. ) ;
#128 = EDGE_CURVE ( 'NONE', #42, #360, #157, .T. ) ;
#129 = DIRECTION ( 'NONE',  ( 0.000000000000000000, 1.000000000000000000, 0.000000000000000000 ) ) ;
#130 = DIRECTION ( 'NONE',  ( 0.000000000000000000, 0.000000000000000000, 1.000000000000000000 ) ) ;
#131 = DIRECTION ( 'NONE',  ( 2.775557561562888827E-14, 0.000000000000000000, 1.000000000000000000 ) ) ;
#132 = DIRECTION ( 'NONE',  ( 1.790682297782510931E-16, 0.000000000000000000, 1.000000000000000000 ) ) ;
#133 = ORIENTED_EDGE ( 'NONE', *, *, #372, .T. ) ;
#134 = ORIENTED_EDGE ( 'NONE', *, *, #267, .T. ) ;
#135 = DIRECTION ( 'NONE',  ( -0.000000000000000000, -1.000000000000000000, -0.000000000000000000 ) ) ;
#136 = PLANE ( 'NONE',  #415 ) ;
#137 = ORIENTED_EDGE ( 'NONE', *, *, #940, .F. ) ;
#138 = CIRCLE ( 'NONE', #460, 3.000000000000002665 ) ;
#139 = CIRCLE ( 'NONE', #344, 3.000000000000002665 ) ;
#140 = DIRECTION ( 'NONE',  ( -1.343011723336882952E-16, 0.000000000000000000, -1.000000000000000000 ) ) ;
#141 = CARTESIAN_POINT ( 'NONE',  ( 43.72686230248305606, 0.000000000000000000, 108.1941309255079062 ) ) ;
#142 = AXIS2_PLACEMENT_3D ( 'NONE', #214, #469, #765 ) ;
#143 = VECTOR ( 'NONE', #946, 1000.000000000000000 ) ;
#144 = ADVANCED_FACE ( 'NONE', ( #952 ), #348, .T. ) ;
#145 = ORIENTED_EDGE ( 'NONE', *, *, #846, .F. ) ;
#146 = CYLINDRICAL_SURFACE ( 'NONE', #305, 1.500000000000001332 ) ;
#147 = DIRECTION ( 'NONE',  ( 0.000000000000000000, 0.000000000000000000, 1.000000000000000000 ) ) ;
#148 = CARTESIAN_POINT ( 'NONE',  ( -36.02313769751692263, 12.00000000000000000, 100.9441309255079062 ) ) ;
#149 = FACE_OUTER_BOUND ( 'NONE', #637, .T. ) ;
#150 = VECTOR ( 'NONE', #300, 1000.000000000000000 ) ;
#151 = CARTESIAN_POINT ( 'NONE',  ( -40.77313769751692263, 5.000000000000000000, 97.44413092550790623 ) ) ;
#152 = EDGE_CURVE ( 'NONE', #353, #117, #56, .T. ) ;
#153 = CARTESIAN_POINT ( 'NONE',  ( -43.27313769751692973, 15.00000000000000000, -48.80586907449209377 ) ) ;
#154 = DIRECTION ( 'NONE',  ( -0.000000000000000000, -1.000000000000000000, -0.000000000000000000 ) ) ;
#155 = CYLINDRICAL_SURFACE ( 'NONE', #641, 2.499999999999998668 ) ;
#156 = EDGE_CURVE ( 'NONE', #10, #578, #138, .T. ) ;
#157 = LINE ( 'NONE', #260, #363 ) ;
#158 = CARTESIAN_POINT ( 'NONE',  ( -19.02313769751694394, 11.99999999999999645, -5.130869074492098392 ) ) ;
#159 = FACE_OUTER_BOUND ( 'NONE', #411, .T. ) ;
#160 = AXIS2_PLACEMENT_3D ( 'NONE', #246, #812, #331 ) ;
#161 = CIRCLE ( 'NONE', #771, 2.559266680167342045 ) ;
#162 = DIRECTION ( 'NONE',  ( 0.000000000000000000, 0.000000000000000000, 1.000000000000000000 ) ) ;
#163 = EDGE_LOOP ( 'NONE', ( #674, #127, #41, #475, #336, #513 ) ) ;
#164 = ORIENTED_EDGE ( 'NONE', *, *, #367, .F. ) ;
#165 = CIRCLE ( 'NONE', #293, 1.500000000000001332 ) ;
#166 = DIRECTION ( 'NONE',  ( 0.000000000000000000, 0.000000000000000000, -1.000000000000000000 ) ) ;
#167 = CARTESIAN_POINT ( 'NONE',  ( 44.22686230248305606, 15.00000000000000000, -49.30586907449209377 ) ) ;
#168 = DIRECTION ( 'NONE',  ( 0.000000000000000000, 0.000000000000000000, 1.000000000000000000 ) ) ;
#169 = ORIENTED_EDGE ( 'NONE', *, *, #654, .T. ) ;
#170 = VERTEX_POINT ( 'NONE', #731 ) ;
#171 = EDGE_CURVE ( 'NONE', #970, #556, #707, .T. ) ;
#172 = CARTESIAN_POINT ( 'NONE',  ( -43.27313769751690842, 0.000000000000000000, 105.1941309255079062 ) ) ;
#173 = CARTESIAN_POINT ( 'NONE',  ( 46.72686230248307027, 0.000000000000000000, -51.80586907449210088 ) ) ;
#174 = LINE ( 'NONE', #420, #532 ) ;
#175 = ORIENTED_EDGE ( 'NONE', *, *, #414, .F. ) ;
#176 = CARTESIAN_POINT ( 'NONE',  ( -40.77313769751692263, 12.00000000000000000, 105.6941309255079062 ) ) ;
#177 = LINE ( 'NONE', #407, #38 ) ;
#178 = VERTEX_POINT ( 'NONE', #884 ) ;
#179 = VECTOR ( 'NONE', #754, 1000.000000000000000 ) ;
#180 = FACE_OUTER_BOUND ( 'NONE', #242, .T. ) ;
#181 = EDGE_CURVE ( 'NONE', #953, #733, #833, .T. ) ;
#182 = DIRECTION ( 'NONE',  ( -0.000000000000000000, 1.000000000000000000, -0.000000000000000000 ) ) ;
#183 = ORIENTED_EDGE ( 'NONE', *, *, #775, .T. ) ;
#184 = DIRECTION ( 'NONE',  ( 0.000000000000000000, 0.000000000000000000, -1.000000000000000000 ) ) ;
#185 = DIRECTION ( 'NONE',  ( 0.000000000000000000, 1.000000000000000000, 0.000000000000000000 ) ) ;
#186 = ORIENTED_EDGE ( 'NONE', *, *, #432, .F. ) ;
#187 = ORIENTED_EDGE ( 'NONE', *, *, #108, .T. ) ;
#188 = DIRECTION ( 'NONE',  ( 1.301042606982605321E-16, 0.000000000000000000, 1.000000000000000000 ) ) ;
#189 = UNCERTAINTY_MEASURE_WITH_UNIT (LENGTH_MEASURE( 1.000000000000000082E-05 ), #766, 'distance_accuracy_value', 'NONE');
#190 = CARTESIAN_POINT ( 'NONE',  ( -19.02313769751694394, 78.65718734690204883, -5.130869074492098392 ) ) ;
#191 = EDGE_LOOP ( 'NONE', ( #879, #333, #192, #201 ) ) ;
#192 = ORIENTED_EDGE ( 'NONE', *, *, #748, .T. ) ;
#193 = CIRCLE ( 'NONE', #290, 1.500000000000001332 ) ;
#194 = EDGE_CURVE ( 'NONE', #757, #965, #240, .T. ) ;
#195 = VECTOR ( 'NONE', #313, 1000.000000000000000 ) ;
#196 = AXIS2_PLACEMENT_3D ( 'NONE', #651, #263, #582 ) ;
#197 = CARTESIAN_POINT ( 'NONE',  ( 39.47686230248309158, 12.00000000000000000, 100.9441309255079062 ) ) ;
#198 = CARTESIAN_POINT ( 'NONE',  ( -43.27313769751690842, 5.000000000000000000, 105.1941309255079062 ) ) ;
#199 = CARTESIAN_POINT ( 'NONE',  ( -19.02313769751694394, 0.000000000000000000, -7.630869074492096615 ) ) ;
#200 = ORIENTED_EDGE ( 'NONE', *, *, #948, .F. ) ;
#201 = ORIENTED_EDGE ( 'NONE', *, *, #215, .T. ) ;
#202 = ADVANCED_FACE ( 'NONE', ( #648 ), #487, .T. ) ;
#203 = CARTESIAN_POINT ( 'NONE',  ( 46.72686230248309158, 0.000000000000000000, 105.1941309255079062 ) ) ;
#204 = PLANE ( 'NONE',  #209 ) ;
#205 = EDGE_LOOP ( 'NONE', ( #752, #860, #421, #596 ) ) ;
#206 = DIRECTION ( 'NONE',  ( -0.000000000000000000, -1.000000000000000000, -0.000000000000000000 ) ) ;
#207 = EDGE_LOOP ( 'NONE', ( #262, #510 ) ) ;
#208 = EDGE_CURVE ( 'NONE', #324, #868, #174, .T. ) ;
#209 = AXIS2_PLACEMENT_3D ( 'NONE', #600, #820, #132 ) ;
#210 = SHAPE_DEFINITION_REPRESENTATION ( #994, #119 ) ;
#211 = ORIENTED_EDGE ( 'NONE', *, *, #239, .F. ) ;
#212 = AXIS2_PLACEMENT_3D ( 'NONE', #459, #607, #71 ) ;
#213 = EDGE_CURVE ( 'NONE', #759, #821, #94, .T. ) ;
#214 = CARTESIAN_POINT ( 'NONE',  ( 39.47686230248309158, 12.00000000000000000, 100.9441309255079062 ) ) ;
#215 = EDGE_CURVE ( 'NONE', #757, #55, #878, .T. ) ;
#216 = FACE_OUTER_BOUND ( 'NONE', #746, .T. ) ;
#217 = DIRECTION ( 'NONE',  ( 0.000000000000000000, 0.000000000000000000, -1.000000000000000000 ) ) ;
#218 = DIRECTION ( 'NONE',  ( 0.000000000000000000, 0.000000000000000000, 1.000000000000000000 ) ) ;
#219 = CARTESIAN_POINT ( 'NONE',  ( -40.77313769751692263, 15.00000000000000000, 105.6941309255079062 ) ) ;
#220 = CARTESIAN_POINT ( 'NONE',  ( -29.02313769751693684, 11.99999999999999645, -5.130869074492096615 ) ) ;
#221 = ADVANCED_FACE ( 'NONE', ( #254, #574 ), #416, .T. ) ;
#222 = DIRECTION ( 'NONE',  ( -0.000000000000000000, 1.000000000000000000, -0.000000000000000000 ) ) ;
#223 = LINE ( 'NONE', #776, #835 ) ;
#224 = VECTOR ( 'NONE', #801, 1000.000000000000000 ) ;
#225 = PRODUCT_DEFINITION_FORMATION_WITH_SPECIFIED_SOURCE ( 'ANY', '', #43, .NOT_KNOWN. ) ;
#226 = CARTESIAN_POINT ( 'NONE',  ( 39.47686230248309158, 0.000000000000000000, 102.4441309255079062 ) ) ;
#227 = PLANE ( 'NONE',  #911 ) ;
#228 = PLANE ( 'NONE',  #883 ) ;
#229 = LINE ( 'NONE', #552, #896 ) ;
#230 = DIRECTION ( 'NONE',  ( 0.000000000000000000, 0.000000000000000000, 1.000000000000000000 ) ) ;
#231 = DIRECTION ( 'NONE',  ( 0.000000000000000000, 0.000000000000000000, -1.000000000000000000 ) ) ;
#232 = ADVANCED_FACE ( 'NONE', ( #809 ), #112, .F. ) ;
#233 = ORIENTED_EDGE ( 'NONE', *, *, #684, .T. ) ;
#234 = ORIENTED_EDGE ( 'NONE', *, *, #128, .T. ) ;
#235 = CARTESIAN_POINT ( 'NONE',  ( -29.02313769751693684, 0.000000000000000000, -5.130869074492096615 ) ) ;
#236 = CARTESIAN_POINT ( 'NONE',  ( 39.47686230248309158, 12.00000000000000000, 99.44413092550789202 ) ) ;
#237 = CIRCLE ( 'NONE', #376, 2.499999999999998668 ) ;
#238 = VECTOR ( 'NONE', #100, 1000.000000000000000 ) ;
#239 = EDGE_CURVE ( 'NONE', #622, #40, #543, .T. ) ;
#240 = LINE ( 'NONE', #652, #321 ) ;
#241 = ORIENTED_EDGE ( 'NONE', *, *, #591, .T. ) ;
#242 = EDGE_LOOP ( 'NONE', ( #341, #315, #906, #523 ) ) ;
#243 = VECTOR ( 'NONE', #51, 1000.000000000000000 ) ;
#244 = CARTESIAN_POINT ( 'NONE',  ( -36.02313769751692263, 12.00000000000000000, 102.4441309255079062 ) ) ;
#245 = DIRECTION ( 'NONE',  ( 0.000000000000000000, 0.000000000000000000, 1.000000000000000000 ) ) ;
#246 = CARTESIAN_POINT ( 'NONE',  ( 43.72686230248308448, 5.000000000000000000, 105.1941309255079062 ) ) ;
#247 = ORIENTED_EDGE ( 'NONE', *, *, #194, .T. ) ;
#248 = CARTESIAN_POINT ( 'NONE',  ( -40.27313769751690842, 0.000000000000000000, 105.1941309255079062 ) ) ;
#249 = DIRECTION ( 'NONE',  ( -0.000000000000000000, -1.000000000000000000, -0.000000000000000000 ) ) ;
#250 = ORIENTED_EDGE ( 'NONE', *, *, #606, .F. ) ;
#251 = EDGE_CURVE ( 'NONE', #965, #832, #774, .T. ) ;
#252 = LINE ( 'NONE', #203, #85 ) ;
#253 = AXIS2_PLACEMENT_3D ( 'NONE', #337, #185, #168 ) ;
#254 = FACE_OUTER_BOUND ( 'NONE', #806, .T. ) ;
#255 = EDGE_LOOP ( 'NONE', ( #332, #631, #26, #169 ) ) ;
#256 = AXIS2_PLACEMENT_3D ( 'NONE', #392, #154, #781 ) ;
#257 = AXIS2_PLACEMENT_3D ( 'NONE', #599, #28, #620 ) ;
#258 = VECTOR ( 'NONE', #848, 1000.000000000000000 ) ;
#259 = PLANE ( 'NONE',  #380 ) ;
#260 = CARTESIAN_POINT ( 'NONE',  ( -29.02313769751693684, 0.000000000000000000, -7.690135754659437772 ) ) ;
#261 = EDGE_LOOP ( 'NONE', ( #699, #934 ) ) ;
#262 = ORIENTED_EDGE ( 'NONE', *, *, #91, .F. ) ;
#263 = DIRECTION ( 'NONE',  ( 1.000000000000000000, 0.000000000000000000, -1.301042606982605321E-16 ) ) ;
#264 = CARTESIAN_POINT ( 'NONE',  ( -40.77313769751692263, 12.00000000000000000, 97.44413092550790623 ) ) ;
#265 = PLANE ( 'NONE',  #943 ) ;
#266 = ORIENTED_EDGE ( 'NONE', *, *, #618, .F. ) ;
#267 = EDGE_CURVE ( 'NONE', #564, #358, #139, .T. ) ;
#268 = ORIENTED_EDGE ( 'NONE', *, *, #120, .T. ) ;
#269 = DIRECTION ( 'NONE',  ( 0.000000000000000000, -1.000000000000000000, 0.000000000000000000 ) ) ;
#270 = ORIENTED_EDGE ( 'NONE', *, *, #834, .T. ) ;
#271 = DIRECTION ( 'NONE',  ( -0.000000000000000000, -1.000000000000000000, -0.000000000000000000 ) ) ;
#272 = VERTEX_POINT ( 'NONE', #382 ) ;
#273 = ORIENTED_EDGE ( 'NONE', *, *, #156, .T. ) ;
#274 = EDGE_CURVE ( 'NONE', #733, #350, #750, .T. ) ;
#275 = VECTOR ( 'NONE', #769, 1000.000000000000000 ) ;
#276 = DIRECTION ( 'NONE',  ( 0.000000000000000000, -1.000000000000000000, 0.000000000000000000 ) ) ;
#277 = EDGE_LOOP ( 'NONE', ( #200, #903, #739, #653 ) ) ;
#278 = CARTESIAN_POINT ( 'NONE',  ( 39.47686230248309158, 0.000000000000000000, 99.44413092550789202 ) ) ;
#279 = ORIENTED_EDGE ( 'NONE', *, *, #346, .T. ) ;
#280 = VERTEX_POINT ( 'NONE', #825 ) ;
#281 = ADVANCED_FACE ( 'NONE', ( #299 ), #204, .T. ) ;
#282 = PLANE ( 'NONE',  #1009 ) ;
#283 = ORIENTED_EDGE ( 'NONE', *, *, #606, .T. ) ;
#284 = CARTESIAN_POINT ( 'NONE',  ( -40.77313769751694394, 15.00000000000000000, -49.30586907449209377 ) ) ;
#285 = ORIENTED_EDGE ( 'NONE', *, *, #995, .F. ) ;
#286 = ADVANCED_FACE ( 'NONE', ( #149 ), #136, .T. ) ;
#287 = CARTESIAN_POINT ( 'NONE',  ( 44.22686230248308448, 15.00000000000000000, 105.6941309255079062 ) ) ;
#288 = CARTESIAN_POINT ( 'NONE',  ( 5.044925684462121784E-18, 11.99999999999999645, -0.1308690744920954219 ) ) ;
#289 = CARTESIAN_POINT ( 'NONE',  ( 4.226862302483056943, 78.65718734690204883, -49.30586907449209377 ) ) ;
#290 = AXIS2_PLACEMENT_3D ( 'NONE', #148, #703, #842 ) ;
#291 = CIRCLE ( 'NONE', #1008, 3.000000000000002665 ) ;
#292 = CARTESIAN_POINT ( 'NONE',  ( -43.27313769751692973, 5.000000000000000000, -51.80586907449210088 ) ) ;
#293 = AXIS2_PLACEMENT_3D ( 'NONE', #950, #387, #14 ) ;
#294 = CARTESIAN_POINT ( 'NONE',  ( 44.22686230248308448, 5.000000000000000000, 97.44413092550789202 ) ) ;
#295 = FACE_OUTER_BOUND ( 'NONE', #569, .T. ) ;
#296 = FACE_OUTER_BOUND ( 'NONE', #887, .T. ) ;
#297 = EDGE_CURVE ( 'NONE', #578, #481, #445, .T. ) ;
#298 = CARTESIAN_POINT ( 'NONE',  ( -29.02313769751693684, 78.65718734690204883, -5.130869074492096615 ) ) ;
#299 = FACE_OUTER_BOUND ( 'NONE', #338, .T. ) ;
#300 = DIRECTION ( 'NONE',  ( -0.000000000000000000, 1.000000000000000000, -0.000000000000000000 ) ) ;
#301 = CARTESIAN_POINT ( 'NONE',  ( 44.22686230248305606, 15.00000000000000000, -49.30586907449209377 ) ) ;
#302 = ADVANCED_FACE ( 'NONE', ( #434 ), #53, .F. ) ;
#303 = FACE_OUTER_BOUND ( 'NONE', #255, .T. ) ;
#304 = CARTESIAN_POINT ( 'NONE',  ( 4.226862302483056943, 5.000000000000000000, -0.1308690744920952553 ) ) ;
#305 = AXIS2_PLACEMENT_3D ( 'NONE', #456, #795, #231 ) ;
#306 = DIRECTION ( 'NONE',  ( 0.000000000000000000, 1.000000000000000000, 0.000000000000000000 ) ) ;
#307 = DIRECTION ( 'NONE',  ( 0.000000000000000000, 0.000000000000000000, 1.000000000000000000 ) ) ;
#308 = EDGE_CURVE ( 'NONE', #817, #535, #354, .T. ) ;
#309 = LINE ( 'NONE', #630, #763 ) ;
#310 = CARTESIAN_POINT ( 'NONE',  ( -40.77313769751692263, 12.00000000000000000, 97.44413092550790623 ) ) ;
#311 = ORIENTED_EDGE ( 'NONE', *, *, #901, .T. ) ;
#312 = ORIENTED_EDGE ( 'NONE', *, *, #650, .F. ) ;
#313 = DIRECTION ( 'NONE',  ( -1.000000000000000000, -0.000000000000000000, -0.000000000000000000 ) ) ;
#314 = DIRECTION ( 'NONE',  ( 1.000000000000000000, 0.000000000000000000, 0.000000000000000000 ) ) ;
#315 = ORIENTED_EDGE ( 'NONE', *, *, #618, .T. ) ;
#316 = ORIENTED_EDGE ( 'NONE', *, *, #839, .T. ) ;
#317 = EDGE_LOOP ( 'NONE', ( #663, #724, #736, #186 ) ) ;
#318 = DIRECTION ( 'NONE',  ( 0.000000000000000000, 0.000000000000000000, 1.000000000000000000 ) ) ;
#319 = CARTESIAN_POINT ( 'NONE',  ( 39.47686230248309158, 0.000000000000000000, 100.9441309255079062 ) ) ;
#320 = EDGE_LOOP ( 'NONE', ( #951, #273, #17, #134, #799, #241, #859, #60 ) ) ;
#321 = VECTOR ( 'NONE', #409, 1000.000000000000000 ) ;
#322 = EDGE_CURVE ( 'NONE', #89, #385, #830, .T. ) ;
#323 = VECTOR ( 'NONE', #527, 1000.000000000000000 ) ;
#324 = VERTEX_POINT ( 'NONE', #669 ) ;
#325 = EDGE_CURVE ( 'NONE', #813, #789, #847, .T. ) ;
#326 = ORIENTED_EDGE ( 'NONE', *, *, #194, .F. ) ;
#327 = VECTOR ( 'NONE', #764, 1000.000000000000000 ) ;
#328 = DIRECTION ( 'NONE',  ( 0.000000000000000000, 1.000000000000000000, 0.000000000000000000 ) ) ;
#329 = DIRECTION ( 'NONE',  ( -0.000000000000000000, -1.000000000000000000, -0.000000000000000000 ) ) ;
#330 = PLANE ( 'NONE',  #743 ) ;
#331 = DIRECTION ( 'NONE',  ( 0.000000000000000000, 0.000000000000000000, 1.000000000000000000 ) ) ;
#332 = ORIENTED_EDGE ( 'NONE', *, *, #32, .F. ) ;
#333 = ORIENTED_EDGE ( 'NONE', *, *, #406, .T. ) ;
#334 = ADVANCED_FACE ( 'NONE', ( #295 ), #265, .T. ) ;
#335 = FACE_BOUND ( 'NONE', #207, .T. ) ;
#336 = ORIENTED_EDGE ( 'NONE', *, *, #870, .T. ) ;
#337 = CARTESIAN_POINT ( 'NONE',  ( -36.02313769751692263, 0.000000000000000000, 100.9441309255079062 ) ) ;
#338 = EDGE_LOOP ( 'NONE', ( #326, #956, #285, #124, #494, #84 ) ) ;
#339 = ADVANCED_FACE ( 'NONE', ( #379 ), #676, .F. ) ;
#340 = PLANE ( 'NONE',  #431 ) ;
#341 = ORIENTED_EDGE ( 'NONE', *, *, #808, .F. ) ;
#342 = AXIS2_PLACEMENT_3D ( 'NONE', #298, #3, #918 ) ;
#343 = DIRECTION ( 'NONE',  ( -1.301042606982605321E-16, 0.000000000000000000, -1.000000000000000000 ) ) ;
#344 = AXIS2_PLACEMENT_3D ( 'NONE', #992, #905, #77 ) ;
#345 = AXIS2_PLACEMENT_3D ( 'NONE', #472, #82, #394 ) ;
#346 = EDGE_CURVE ( 'NONE', #826, #970, #464, .T. ) ;
#347 = LINE ( 'NONE', #882, #744 ) ;
#348 = CYLINDRICAL_SURFACE ( 'NONE', #160, 3.000000000000002665 ) ;
#349 = ORIENTED_EDGE ( 'NONE', *, *, #623, .T. ) ;
#350 = VERTEX_POINT ( 'NONE', #199 ) ;
#351 = PLANE ( 'NONE',  #843 ) ;
#352 = CARTESIAN_POINT ( 'NONE',  ( -40.77313769751694394, 15.00000000000000000, -49.30586907449209377 ) ) ;
#353 = VERTEX_POINT ( 'NONE', #278 ) ;
#354 = LINE ( 'NONE', #359, #624 ) ;
#355 = ORIENTED_EDGE ( 'NONE', *, *, #215, .F. ) ;
#356 = ORIENTED_EDGE ( 'NONE', *, *, #893, .T. ) ;
#357 = LINE ( 'NONE', #507, #730 ) ;
#358 = VERTEX_POINT ( 'NONE', #515 ) ;
#359 = CARTESIAN_POINT ( 'NONE',  ( 4.226862302483056943, 5.000000000000000000, 0.000000000000000000 ) ) ;
#360 = VERTEX_POINT ( 'NONE', #695 ) ;
#361 = ORIENTED_EDGE ( 'NONE', *, *, #297, .F. ) ;
#362 = EDGE_CURVE ( 'NONE', #565, #42, #58, .T. ) ;
#363 = VECTOR ( 'NONE', #182, 1000.000000000000000 ) ;
#364 = CIRCLE ( 'NONE', #449, 2.559266680167342045 ) ;
#365 = AXIS2_PLACEMENT_3D ( 'NONE', #197, #886, #184 ) ;
#366 = ORIENTED_EDGE ( 'NONE', *, *, #784, .T. ) ;
#367 = EDGE_CURVE ( 'NONE', #27, #385, #542, .T. ) ;
#368 = CARTESIAN_POINT ( 'NONE',  ( 46.72686230248309158, 0.000000000000000000, 105.1941309255079062 ) ) ;
#369 = PRODUCT_DEFINITION_CONTEXT ( 'detailed design', #537, 'design' ) ;
#370 = CARTESIAN_POINT ( 'NONE',  ( 4.226862302483056943, 78.65718734690204883, -0.1308690744920952553 ) ) ;
#371 = CARTESIAN_POINT ( 'NONE',  ( -29.02313769751693684, 11.99999999999999645, -2.630869074492097948 ) ) ;
#372 = EDGE_CURVE ( 'NONE', #55, #832, #97, .T. ) ;
#373 = CARTESIAN_POINT ( 'NONE',  ( 0.000000000000000000, 0.000000000000000000, 0.000000000000000000 ) ) ;
#374 = ORIENTED_EDGE ( 'NONE', *, *, #650, .T. ) ;
#375 = ORIENTED_EDGE ( 'NONE', *, *, #384, .T. ) ;
#376 = AXIS2_PLACEMENT_3D ( 'NONE', #220, #79, #388 ) ;
#377 = AXIS2_PLACEMENT_3D ( 'NONE', #423, #738, #343 ) ;
#378 = DIRECTION ( 'NONE',  ( 0.000000000000000000, -0.000000000000000000, -1.000000000000000000 ) ) ;
#379 = FACE_OUTER_BOUND ( 'NONE', #317, .T. ) ;
#380 = AXIS2_PLACEMENT_3D ( 'NONE', #662, #811, #39 ) ;
#381 = SURFACE_SIDE_STYLE ('',( #473 ) ) ;
#382 = CARTESIAN_POINT ( 'NONE',  ( -19.02313769751694394, 0.000000000000000000, -2.630869074492099724 ) ) ;
#383 = CARTESIAN_POINT ( 'NONE',  ( 46.72686230248307027, 5.000000000000000000, -48.80586907449209377 ) ) ;
#384 = EDGE_CURVE ( 'NONE', #109, #564, #645, .T. ) ;
#385 = VERTEX_POINT ( 'NONE', #484 ) ;
#386 = DIRECTION ( 'NONE',  ( 0.000000000000000000, 0.000000000000000000, 1.000000000000000000 ) ) ;
#387 = DIRECTION ( 'NONE',  ( 0.000000000000000000, 1.000000000000000000, 0.000000000000000000 ) ) ;
#388 = DIRECTION ( 'NONE',  ( 0.000000000000000000, 0.000000000000000000, -1.000000000000000000 ) ) ;
#389 = APPLICATION_CONTEXT ( 'automotive_design' ) ;
#390 = EDGE_CURVE ( 'NONE', #622, #410, #471, .T. ) ;
#391 = AXIS2_PLACEMENT_3D ( 'NONE', #642, #116, #509 ) ;
#392 = CARTESIAN_POINT ( 'NONE',  ( -29.02313769751693684, 78.65718734690204883, -5.130869074492096615 ) ) ;
#393 = VECTOR ( 'NONE', #48, 1000.000000000000000 ) ;
#394 = DIRECTION ( 'NONE',  ( 0.000000000000000000, 0.000000000000000000, 1.000000000000000000 ) ) ;
#395 = VECTOR ( 'NONE', #840, 1000.000000000000000 ) ;
#396 = DIRECTION ( 'NONE',  ( -0.000000000000000000, -1.000000000000000000, -0.000000000000000000 ) ) ;
#397 = ORIENTED_EDGE ( 'NONE', *, *, #120, .F. ) ;
#398 = ORIENTED_EDGE ( 'NONE', *, *, #239, .T. ) ;
#399 = ADVANCED_FACE ( 'NONE', ( #303 ), #787, .F. ) ;
#400 = DIRECTION ( 'NONE',  ( -0.000000000000000000, -1.000000000000000000, -0.000000000000000000 ) ) ;
#401 = DIRECTION ( 'NONE',  ( 0.000000000000000000, 1.000000000000000000, 0.000000000000000000 ) ) ;
#402 = CARTESIAN_POINT ( 'NONE',  ( 43.72686230248306316, 15.00000000000000000, -51.80586907449210088 ) ) ;
#403 = ORIENTED_EDGE ( 'NONE', *, *, #91, .T. ) ;
#404 = VERTEX_POINT ( 'NONE', #172 ) ;
#405 = DIRECTION ( 'NONE',  ( 0.000000000000000000, 1.000000000000000000, 0.000000000000000000 ) ) ;
#406 = EDGE_CURVE ( 'NONE', #424, #900, #720, .T. ) ;
#407 = CARTESIAN_POINT ( 'NONE',  ( 44.22686230248308448, 12.00000000000000000, 105.6941309255079062 ) ) ;
#408 = ORIENTED_EDGE ( 'NONE', *, *, #68, .F. ) ;
#409 = DIRECTION ( 'NONE',  ( -0.000000000000000000, -1.000000000000000000, -0.000000000000000000 ) ) ;
#410 = VERTEX_POINT ( 'NONE', #715 ) ;
#411 = EDGE_LOOP ( 'NONE', ( #175, #457, #50, #137 ) ) ;
#412 = DIRECTION ( 'NONE',  ( -1.000000000000000000, 0.000000000000000000, -3.854941057726238467E-17 ) ) ;
#413 = DIRECTION ( 'NONE',  ( 0.000000000000000000, -1.000000000000000000, 0.000000000000000000 ) ) ;
#414 = EDGE_CURVE ( 'NONE', #713, #89, #639, .T. ) ;
#415 = AXIS2_PLACEMENT_3D ( 'NONE', #439, #588, #700 ) ;
#416 = PLANE ( 'NONE',  #989 ) ;
#417 = ORIENTED_EDGE ( 'NONE', *, *, #1002, .F. ) ;
#418 = CARTESIAN_POINT ( 'NONE',  ( 0.000000000000000000, 5.000000000000000000, 0.000000000000000000 ) ) ;
#419 = LINE ( 'NONE', #352, #657 ) ;
#420 = CARTESIAN_POINT ( 'NONE',  ( 46.72686230248309158, 15.00000000000000000, -51.80586907449210088 ) ) ;
#421 = ORIENTED_EDGE ( 'NONE', *, *, #32, .T. ) ;
#422 = CARTESIAN_POINT ( 'NONE',  ( -36.02313769751692263, 12.00000000000000000, 100.9441309255079062 ) ) ;
#423 = CARTESIAN_POINT ( 'NONE',  ( -43.27313769751692973, 5.000000000000000000, -51.80586907449210088 ) ) ;
#424 = VERTEX_POINT ( 'NONE', #790 ) ;
#425 = ADVANCED_FACE ( 'NONE', ( #727 ), #227, .F. ) ;
#426 = FACE_BOUND ( 'NONE', #557, .T. ) ;
#427 = DIRECTION ( 'NONE',  ( 0.000000000000000000, 1.000000000000000000, 0.000000000000000000 ) ) ;
#428 = ORIENTED_EDGE ( 'NONE', *, *, #346, .F. ) ;
#429 = EDGE_LOOP ( 'NONE', ( #913, #666, #355, #247 ) ) ;
#430 = CIRCLE ( 'NONE', #20, 2.499999999999998224 ) ;
#431 = AXIS2_PLACEMENT_3D ( 'NONE', #577, #276, #803 ) ;
#432 = EDGE_CURVE ( 'NONE', #272, #350, #925, .T. ) ;
#433 = CARTESIAN_POINT ( 'NONE',  ( 39.47686230248309158, 12.00000000000000000, 99.44413092550789202 ) ) ;
#434 = FACE_OUTER_BOUND ( 'NONE', #767, .T. ) ;
#435 = ORIENTED_EDGE ( 'NONE', *, *, #680, .T. ) ;
#436 = EDGE_LOOP ( 'NONE', ( #783, #107 ) ) ;
#437 = LINE ( 'NONE', #753, #243 ) ;
#438 = CARTESIAN_POINT ( 'NONE',  ( -19.02313769751694394, 78.65718734690204883, -2.630869074492099724 ) ) ;
#439 = CARTESIAN_POINT ( 'NONE',  ( -40.77313769751694394, 15.00000000000000000, -49.30586907449209377 ) ) ;
#440 = ORIENTED_EDGE ( 'NONE', *, *, #940, .T. ) ;
#441 = ORIENTED_EDGE ( 'NONE', *, *, #995, .T. ) ;
#442 = CARTESIAN_POINT ( 'NONE',  ( -29.02313769751693684, 5.000000000000000000, -5.130869074492096615 ) ) ;
#443 = APPLICATION_PROTOCOL_DEFINITION ( 'draft international standard', 'automotive_design', 1998, #537 ) ;
#444 = FACE_OUTER_BOUND ( 'NONE', #429, .T. ) ;
#445 = LINE ( 'NONE', #756, #579 ) ;
#446 = ORIENTED_EDGE ( 'NONE', *, *, #684, .F. ) ;
#447 = AXIS2_PLACEMENT_3D ( 'NONE', #712, #306, #162 ) ;
#448 = VECTOR ( 'NONE', #985, 1000.000000000000000 ) ;
#449 = AXIS2_PLACEMENT_3D ( 'NONE', #442, #762, #64 ) ;
#450 = AXIS2_PLACEMENT_3D ( 'NONE', #512, #129, #816 ) ;
#451 = DIRECTION ( 'NONE',  ( 1.000000000000000000, 0.000000000000000000, 0.000000000000000000 ) ) ;
#452 = LINE ( 'NONE', #438, #179 ) ;
#453 = CARTESIAN_POINT ( 'NONE',  ( -19.02313769751694394, 0.000000000000000000, -5.130869074492098392 ) ) ;
#454 = CARTESIAN_POINT ( 'NONE',  ( -40.77313769751693684, 11.99999999999999645, 5.475880192499424637E-15 ) ) ;
#455 = EDGE_LOOP ( 'NONE', ( #183, #316, #95, #145 ) ) ;
#456 = CARTESIAN_POINT ( 'NONE',  ( -36.02313769751692263, 12.00000000000000000, 100.9441309255079062 ) ) ;
#457 = ORIENTED_EDGE ( 'NONE', *, *, #15, .F. ) ;
#458 = EDGE_CURVE ( 'NONE', #1007, #404, #477, .T. ) ;
#459 = CARTESIAN_POINT ( 'NONE',  ( -29.02313769751693684, 0.000000000000000000, -5.130869074492096615 ) ) ;
#460 = AXIS2_PLACEMENT_3D ( 'NONE', #568, #563, #866 ) ;
#461 = AXIS2_PLACEMENT_3D ( 'NONE', #248, #854, #547 ) ;
#462 = ADVANCED_FACE ( 'NONE', ( #629 ), #571, .T. ) ;
#463 =( NAMED_UNIT ( * ) SI_UNIT ( $, .STERADIAN. ) SOLID_ANGLE_UNIT ( ) );
#464 = LINE ( 'NONE', #975, #517 ) ;
#465 = VECTOR ( 'NONE', #140, 1000.000000000000000 ) ;
#466 = DIRECTION ( 'NONE',  ( 1.000000000000000000, 0.000000000000000000, 0.000000000000000000 ) ) ;
#467 = CARTESIAN_POINT ( 'NONE',  ( -40.27313769751692973, 0.000000000000000000, -51.80586907449210088 ) ) ;
#468 = DIRECTION ( 'NONE',  ( 1.000000000000000000, 0.000000000000000000, -1.343011723336882952E-16 ) ) ;
#469 = DIRECTION ( 'NONE',  ( -0.000000000000000000, -1.000000000000000000, -0.000000000000000000 ) ) ;
#470 = CARTESIAN_POINT ( 'NONE',  ( -40.77313769751692263, 15.00000000000000000, 105.6941309255079062 ) ) ;
#471 = LINE ( 'NONE', #490, #679 ) ;
#472 = CARTESIAN_POINT ( 'NONE',  ( -29.02313769751693684, 5.000000000000004441, -5.130869074492096615 ) ) ;
#473 = SURFACE_STYLE_FILL_AREA ( #838 ) ;
#474 = EDGE_LOOP ( 'NONE', ( #403, #374, #511, #428 ) ) ;
#475 = ORIENTED_EDGE ( 'NONE', *, *, #251, .F. ) ;
#476 = DIRECTION ( 'NONE',  ( 0.000000000000000000, -1.000000000000000000, 0.000000000000000000 ) ) ;
#477 = CIRCLE ( 'NONE', #461, 3.000000000000002665 ) ;
#478 = CARTESIAN_POINT ( 'NONE',  ( -19.02313769751694394, 78.65718734690204883, -5.130869074492098392 ) ) ;
#479 = CIRCLE ( 'NONE', #345, 2.499999999999998224 ) ;
#480 = CYLINDRICAL_SURFACE ( 'NONE', #740, 1.500000000000001332 ) ;
#481 = VERTEX_POINT ( 'NONE', #927 ) ;
#482 = ORIENTED_EDGE ( 'NONE', *, *, #274, .F. ) ;
#483 = EDGE_LOOP ( 'NONE', ( #312, #311, #279, #46 ) ) ;
#484 = CARTESIAN_POINT ( 'NONE',  ( 43.72686230248309158, 15.00000000000000000, 108.1941309255079062 ) ) ;
#485 = DIRECTION ( 'NONE',  ( 1.000000000000000000, 0.000000000000000000, 0.000000000000000000 ) ) ;
#486 = ORIENTED_EDGE ( 'NONE', *, *, #814, .F. ) ;
#487 = CYLINDRICAL_SURFACE ( 'NONE', #726, 3.000000000000002665 ) ;
#488 = ORIENTED_EDGE ( 'NONE', *, *, #6, .F. ) ;
#489 = ORIENTED_EDGE ( 'NONE', *, *, #959, .T. ) ;
#490 = CARTESIAN_POINT ( 'NONE',  ( -29.02313769751693684, 78.65718734690204883, -2.630869074492097948 ) ) ;
#491 = CARTESIAN_POINT ( 'NONE',  ( 44.22686230248305606, 15.00000000000000000, -49.30586907449209377 ) ) ;
#492 = CARTESIAN_POINT ( 'NONE',  ( -40.77313769751694394, 15.00000000000000000, -49.30586907449209377 ) ) ;
#493 = ORIENTED_EDGE ( 'NONE', *, *, #31, .T. ) ;
#494 = ORIENTED_EDGE ( 'NONE', *, *, #755, .T. ) ;
#495 = DIRECTION ( 'NONE',  ( 0.000000000000000000, 0.000000000000000000, 1.000000000000000000 ) ) ;
#496 = ADVANCED_FACE ( 'NONE', ( #638 ), #945, .F. ) ;
#497 = LINE ( 'NONE', #173, #786 ) ;
#498 = AXIS2_PLACEMENT_3D ( 'NONE', #566, #625, #307 ) ;
#499 = CARTESIAN_POINT ( 'NONE',  ( -40.77313769751692263, 12.00000000000000000, 97.44413092550790623 ) ) ;
#500 = VERTEX_POINT ( 'NONE', #244 ) ;
#501 = ORIENTED_EDGE ( 'NONE', *, *, #213, .T. ) ;
#502 = DIRECTION ( 'NONE',  ( 0.000000000000000000, 1.000000000000000000, 0.000000000000000000 ) ) ;
#503 = PLANE ( 'NONE',  #196 ) ;
#504 = DIRECTION ( 'NONE',  ( 0.000000000000000000, 0.000000000000000000, 1.000000000000000000 ) ) ;
#505 = ORIENTED_EDGE ( 'NONE', *, *, #267, .F. ) ;
#506 = EDGE_CURVE ( 'NONE', #170, #535, #81, .T. ) ;
#507 = CARTESIAN_POINT ( 'NONE',  ( -43.27313769751692973, 0.000000000000000000, -48.80586907449209377 ) ) ;
#508 = VERTEX_POINT ( 'NONE', #710 ) ;
#509 = DIRECTION ( 'NONE',  ( 0.000000000000000000, 0.000000000000000000, -1.000000000000000000 ) ) ;
#510 = ORIENTED_EDGE ( 'NONE', *, *, #901, .F. ) ;
#511 = ORIENTED_EDGE ( 'NONE', *, *, #171, .F. ) ;
#512 = CARTESIAN_POINT ( 'NONE',  ( 0.000000000000000000, 0.000000000000000000, 0.000000000000000000 ) ) ;
#513 = ORIENTED_EDGE ( 'NONE', *, *, #506, .T. ) ;
#514 = PRESENTATION_LAYER_ASSIGNMENT (  '', '', ( #608 ) ) ;
#515 = CARTESIAN_POINT ( 'NONE',  ( 46.72686230248307027, 0.000000000000000000, -48.80586907449209377 ) ) ;
#516 = EDGE_LOOP ( 'NONE', ( #551, #446, #593, #822 ) ) ;
#517 = VECTOR ( 'NONE', #898, 1000.000000000000000 ) ;
#518 = VECTOR ( 'NONE', #329, 1000.000000000000000 ) ;
#519 = EDGE_CURVE ( 'NONE', #42, #565, #802, .T. ) ;
#520 = FACE_BOUND ( 'NONE', #747, .T. ) ;
#521 = DIRECTION ( 'NONE',  ( -0.000000000000000000, 1.000000000000000000, -0.000000000000000000 ) ) ;
#522 = DIRECTION ( 'NONE',  ( -0.000000000000000000, 1.000000000000000000, -0.000000000000000000 ) ) ;
#523 = ORIENTED_EDGE ( 'NONE', *, *, #856, .T. ) ;
#524 = ORIENTED_EDGE ( 'NONE', *, *, #538, .T. ) ;
#525 = EDGE_CURVE ( 'NONE', #733, #953, #37, .T. ) ;
#526 = DIRECTION ( 'NONE',  ( 0.000000000000000000, -1.000000000000000000, 0.000000000000000000 ) ) ;
#527 = DIRECTION ( 'NONE',  ( 1.000000000000000000, 0.000000000000000000, 0.000000000000000000 ) ) ;
#528 = VERTEX_POINT ( 'NONE', #936 ) ;
#529 = DIRECTION ( 'NONE',  ( -1.000000000000000000, 0.000000000000000000, -0.000000000000000000 ) ) ;
#530 = CARTESIAN_POINT ( 'NONE',  ( -43.27313769751692973, 0.000000000000000000, -48.80586907449209377 ) ) ;
#531 = DIRECTION ( 'NONE',  ( 0.000000000000000000, 1.000000000000000000, 0.000000000000000000 ) ) ;
#532 = VECTOR ( 'NONE', #955, 1000.000000000000000 ) ;
#533 = VECTOR ( 'NONE', #837, 1000.000000000000000 ) ;
#534 = CARTESIAN_POINT ( 'NONE',  ( -29.02313769751693684, 0.000000000000000000, -2.571602394324754570 ) ) ;
#535 = VERTEX_POINT ( 'NONE', #559 ) ;
#536 = LINE ( 'NONE', #284, #533 ) ;
#537 = APPLICATION_CONTEXT ( 'automotive_design' ) ;
#538 = EDGE_CURVE ( 'NONE', #4, #360, #161, .T. ) ;
#539 = CYLINDRICAL_SURFACE ( 'NONE', #212, 2.559266680167342045 ) ;
#540 = LINE ( 'NONE', #929, #36 ) ;
#541 = FACE_OUTER_BOUND ( 'NONE', #54, .T. ) ;
#542 = LINE ( 'NONE', #841, #560 ) ;
#543 = CIRCLE ( 'NONE', #656, 2.499999999999998668 ) ;
#544 = EDGE_CURVE ( 'NONE', #360, #4, #364, .T. ) ;
#545 = CARTESIAN_POINT ( 'NONE',  ( -43.27313769751692973, 15.00000000000000000, 108.1941309255079062 ) ) ;
#546 = CIRCLE ( 'NONE', #103, 1.500000000000001332 ) ;
#547 = DIRECTION ( 'NONE',  ( 0.000000000000000000, 0.000000000000000000, 1.000000000000000000 ) ) ;
#548 = ADVANCED_FACE ( 'NONE', ( #661 ), #351, .T. ) ;
#549 = CARTESIAN_POINT ( 'NONE',  ( -43.27313769751690842, 0.000000000000000000, 108.1941309255079062 ) ) ;
#550 = DIRECTION ( 'NONE',  ( -1.790682297782510684E-16, -0.000000000000000000, -1.000000000000000000 ) ) ;
#551 = ORIENTED_EDGE ( 'NONE', *, *, #671, .F. ) ;
#552 = CARTESIAN_POINT ( 'NONE',  ( -40.77313769751692263, 12.00000000000000000, 105.6941309255079062 ) ) ;
#553 = DIRECTION ( 'NONE',  ( 0.000000000000000000, 1.000000000000000000, 0.000000000000000000 ) ) ;
#554 = CARTESIAN_POINT ( 'NONE',  ( 43.72686230248306316, 15.00000000000000000, -48.80586907449209377 ) ) ;
#555 = CARTESIAN_POINT ( 'NONE',  ( -29.02313769751693684, 0.000000000000000000, -7.690135754659437772 ) ) ;
#556 = VERTEX_POINT ( 'NONE', #997 ) ;
#557 = EDGE_LOOP ( 'NONE', ( #758, #366 ) ) ;
#558 = CIRCLE ( 'NONE', #447, 1.500000000000001332 ) ;
#559 = CARTESIAN_POINT ( 'NONE',  ( 4.226862302483056943, 5.000000000000000000, -49.30586907449209377 ) ) ;
#560 = VECTOR ( 'NONE', #705, 1000.000000000000000 ) ;
#561 = DIRECTION ( 'NONE',  ( 0.000000000000000000, 1.000000000000000000, 0.000000000000000000 ) ) ;
#562 = AXIS2_PLACEMENT_3D ( 'NONE', #554, #561, #245 ) ;
#563 = DIRECTION ( 'NONE',  ( -0.000000000000000000, -1.000000000000000000, -0.000000000000000000 ) ) ;
#564 = VERTEX_POINT ( 'NONE', #926 ) ;
#565 = VERTEX_POINT ( 'NONE', #80 ) ;
#566 = CARTESIAN_POINT ( 'NONE',  ( -19.02313769751694394, 0.000000000000000000, -5.130869074492098392 ) ) ;
#567 = FACE_OUTER_BOUND ( 'NONE', #191, .T. ) ;
#568 = CARTESIAN_POINT ( 'NONE',  ( -40.27313769751692973, 0.000000000000000000, -48.80586907449209377 ) ) ;
#569 = EDGE_LOOP ( 'NONE', ( #725, #417, #722, #603, #233, #113, #874, #133 ) ) ;
#570 = ADVANCED_FACE ( 'NONE', ( #216 ), #330, .T. ) ;
#571 = CYLINDRICAL_SURFACE ( 'NONE', #610, 3.000000000000002665 ) ;
#572 = CARTESIAN_POINT ( 'NONE',  ( 39.47686230248309158, 12.00000000000000000, 100.9441309255079062 ) ) ;
#573 = DIRECTION ( 'NONE',  ( -0.000000000000000000, -1.000000000000000000, -0.000000000000000000 ) ) ;
#574 = FACE_BOUND ( 'NONE', #516, .T. ) ;
#575 = ORIENTED_EDGE ( 'NONE', *, *, #948, .T. ) ;
#576 = PRODUCT_RELATED_PRODUCT_CATEGORY ( 'part', '', ( #43 ) ) ;
#577 = CARTESIAN_POINT ( 'NONE',  ( 0.000000000000000000, 12.00000000000000000, 0.000000000000000000 ) ) ;
#578 = VERTEX_POINT ( 'NONE', #467 ) ;
#579 = VECTOR ( 'NONE', #522, 1000.000000000000000 ) ;
#580 = ORIENTED_EDGE ( 'NONE', *, *, #983, .F. ) ;
#581 = VECTOR ( 'NONE', #135, 1000.000000000000000 ) ;
#582 = DIRECTION ( 'NONE',  ( -1.301042606982605321E-16, 0.000000000000000000, -1.000000000000000000 ) ) ;
#583 = EDGE_CURVE ( 'NONE', #55, #424, #229, .T. ) ;
#584 = DIRECTION ( 'NONE',  ( 0.000000000000000000, 0.000000000000000000, -1.000000000000000000 ) ) ;
#585 = EDGE_LOOP ( 'NONE', ( #798, #493, #250, #482 ) ) ;
#586 = FACE_BOUND ( 'NONE', #261, .T. ) ;
#587 = CARTESIAN_POINT ( 'NONE',  ( -29.02313769751693684, 11.99999999999999645, -7.630869074492094839 ) ) ;
#588 = DIRECTION ( 'NONE',  ( 0.000000000000000000, 0.000000000000000000, 1.000000000000000000 ) ) ;
#589 = ORIENTED_EDGE ( 'NONE', *, *, #538, .F. ) ;
#590 = EDGE_LOOP ( 'NONE', ( #867, #5, #704, #440 ) ) ;
#591 = EDGE_CURVE ( 'NONE', #961, #27, #291, .T. ) ;
#592 = LINE ( 'NONE', #110, #709 ) ;
#593 = ORIENTED_EDGE ( 'NONE', *, *, #213, .F. ) ;
#594 = CARTESIAN_POINT ( 'NONE',  ( -40.77313769751694394, 15.00000000000000000, -49.30586907449209377 ) ) ;
#595 = ORIENTED_EDGE ( 'NONE', *, *, #978, .T. ) ;
#596 = ORIENTED_EDGE ( 'NONE', *, *, #308, .T. ) ;
#597 = AXIS2_PLACEMENT_3D ( 'NONE', #158, #476, #166 ) ;
#598 = EDGE_CURVE ( 'NONE', #109, #481, #52, .T. ) ;
#599 = CARTESIAN_POINT ( 'NONE',  ( -40.27313769751692973, 15.00000000000000000, -48.80586907449209377 ) ) ;
#600 = CARTESIAN_POINT ( 'NONE',  ( 44.22686230248305606, 15.00000000000000000, -49.30586907449209377 ) ) ;
#601 = ORIENTED_EDGE ( 'NONE', *, *, #519, .T. ) ;
#602 = CARTESIAN_POINT ( 'NONE',  ( -40.77313769751693684, 78.65718734690204883, -0.1308690744920970039 ) ) ;
#603 = ORIENTED_EDGE ( 'NONE', *, *, #893, .F. ) ;
#604 = FACE_OUTER_BOUND ( 'NONE', #474, .T. ) ;
#605 = ORIENTED_EDGE ( 'NONE', *, *, #988, .F. ) ;
#606 = EDGE_CURVE ( 'NONE', #350, #272, #430, .T. ) ;
#607 = DIRECTION ( 'NONE',  ( -0.000000000000000000, 1.000000000000000000, -0.000000000000000000 ) ) ;
#608 = STYLED_ITEM ( 'NONE', ( #106 ), #121 ) ;
#609 = EDGE_LOOP ( 'NONE', ( #30, #266, #505, #980 ) ) ;
#610 = AXIS2_PLACEMENT_3D ( 'NONE', #86, #553, #495 ) ;
#611 = CIRCLE ( 'NONE', #122, 1.500000000000001332 ) ;
#612 = DIRECTION ( 'NONE',  ( 0.000000000000000000, 0.000000000000000000, 1.000000000000000000 ) ) ;
#613 = FACE_OUTER_BOUND ( 'NONE', #962, .T. ) ;
#614 = ADVANCED_FACE ( 'NONE', ( #613 ), #697, .F. ) ;
#615 = LINE ( 'NONE', #454, #465 ) ;
#616 = CARTESIAN_POINT ( 'NONE',  ( -29.02313769751693684, 0.000000000000000000, -5.130869074492096615 ) ) ;
#617 = LINE ( 'NONE', #701, #59 ) ;
#618 = EDGE_CURVE ( 'NONE', #358, #868, #986, .T. ) ;
#619 = DIRECTION ( 'NONE',  ( 0.000000000000000000, -0.000000000000000000, 1.000000000000000000 ) ) ;
#620 = DIRECTION ( 'NONE',  ( 0.000000000000000000, 0.000000000000000000, 1.000000000000000000 ) ) ;
#621 = CARTESIAN_POINT ( 'NONE',  ( -29.02313769751693684, 0.000000000000000000, -5.130869074492096615 ) ) ;
#622 = VERTEX_POINT ( 'NONE', #371 ) ;
#623 = EDGE_CURVE ( 'NONE', #813, #535, #687, .T. ) ;
#624 = VECTOR ( 'NONE', #70, 1000.000000000000000 ) ;
#625 = DIRECTION ( 'NONE',  ( 0.000000000000000000, 1.000000000000000000, 0.000000000000000000 ) ) ;
#626 = CIRCLE ( 'NONE', #944, 2.499999999999998224 ) ;
#627 = CARTESIAN_POINT ( 'NONE',  ( -36.02313769751692263, 12.00000000000000000, 99.44413092550789202 ) ) ;
#628 = CARTESIAN_POINT ( 'NONE',  ( 39.47686230248309158, 12.00000000000000000, 102.4441309255079062 ) ) ;
#629 = FACE_OUTER_BOUND ( 'NONE', #831, .T. ) ;
#630 = CARTESIAN_POINT ( 'NONE',  ( 39.47686230248309158, 12.00000000000000000, 102.4441309255079062 ) ) ;
#631 = ORIENTED_EDGE ( 'NONE', *, *, #6, .T. ) ;
#632 = DIRECTION ( 'NONE',  ( 0.000000000000000000, 0.000000000000000000, 1.000000000000000000 ) ) ;
#633 = CARTESIAN_POINT ( 'NONE',  ( -40.77313769751694394, 15.00000000000000000, -49.30586907449209377 ) ) ;
#634 = ADVANCED_FACE ( 'NONE', ( #296 ), #539, .F. ) ;
#635 = EDGE_LOOP ( 'NONE', ( #659, #827 ) ) ;
#636 = ORIENTED_EDGE ( 'NONE', *, *, #208, .T. ) ;
#637 = EDGE_LOOP ( 'NONE', ( #187, #349, #670, #732, #501, #356 ) ) ;
#638 = FACE_OUTER_BOUND ( 'NONE', #714, .T. ) ;
#639 = CIRCLE ( 'NONE', #760, 3.000000000000002665 ) ;
#640 = DIRECTION ( 'NONE',  ( -0.000000000000000000, -1.000000000000000000, -0.000000000000000000 ) ) ;
#641 = AXIS2_PLACEMENT_3D ( 'NONE', #478, #249, #872 ) ;
#642 = CARTESIAN_POINT ( 'NONE',  ( -19.02313769751694394, 11.99999999999999645, -5.130869074492098392 ) ) ;
#643 = ORIENTED_EDGE ( 'NONE', *, *, #68, .T. ) ;
#644 = ORIENTED_EDGE ( 'NONE', *, *, #544, .T. ) ;
#645 = LINE ( 'NONE', #849, #818 ) ;
#646 = CARTESIAN_POINT ( 'NONE',  ( 44.22686230248308448, 12.00000000000000000, 97.44413092550790623 ) ) ;
#647 = CARTESIAN_POINT ( 'NONE',  ( 43.72686230248308448, 0.000000000000000000, 105.1941309255079062 ) ) ;
#648 = FACE_OUTER_BOUND ( 'NONE', #609, .T. ) ;
#649 = VERTEX_POINT ( 'NONE', #219 ) ;
#650 = EDGE_CURVE ( 'NONE', #500, #556, #223, .T. ) ;
#651 = CARTESIAN_POINT ( 'NONE',  ( 46.72686230248307027, 5.000000000000000000, -51.80586907449210088 ) ) ;
#652 = CARTESIAN_POINT ( 'NONE',  ( 44.22686230248308448, 12.00000000000000000, 97.44413092550790623 ) ) ;
#653 = ORIENTED_EDGE ( 'NONE', *, *, #15, .T. ) ;
#654 = EDGE_CURVE ( 'NONE', #280, #817, #917, .T. ) ;
#655 = CARTESIAN_POINT ( 'NONE',  ( 46.72686230248309158, 15.00000000000000000, -48.80586907449209377 ) ) ;
#656 = AXIS2_PLACEMENT_3D ( 'NONE', #999, #125, #76 ) ;
#657 = VECTOR ( 'NONE', #123, 1000.000000000000000 ) ;
#658 = DIRECTION ( 'NONE',  ( 0.000000000000000000, -0.000000000000000000, 1.000000000000000000 ) ) ;
#659 = ORIENTED_EDGE ( 'NONE', *, *, #171, .T. ) ;
#660 = EDGE_LOOP ( 'NONE', ( #211, #665, #270, #580 ) ) ;
#661 = FACE_OUTER_BOUND ( 'NONE', #163, .T. ) ;
#662 = CARTESIAN_POINT ( 'NONE',  ( -29.02313769751693684, 5.000000000000000000, -5.130869074492096615 ) ) ;
#663 = ORIENTED_EDGE ( 'NONE', *, *, #31, .F. ) ;
#664 = CARTESIAN_POINT ( 'NONE',  ( 39.47686230248309158, 0.000000000000000000, 100.9441309255079062 ) ) ;
#665 = ORIENTED_EDGE ( 'NONE', *, *, #390, .T. ) ;
#666 = ORIENTED_EDGE ( 'NONE', *, *, #372, .F. ) ;
#667 = CARTESIAN_POINT ( 'NONE',  ( -40.27313769751690842, 5.000000000000000000, 108.1941309255079062 ) ) ;
#668 = ORIENTED_EDGE ( 'NONE', *, *, #108, .F. ) ;
#669 = CARTESIAN_POINT ( 'NONE',  ( 46.72686230248309158, 15.00000000000000000, 105.1941309255079062 ) ) ;
#670 = ORIENTED_EDGE ( 'NONE', *, *, #506, .F. ) ;
#671 = EDGE_CURVE ( 'NONE', #649, #528, #617, .T. ) ;
#672 = VERTEX_POINT ( 'NONE', #153 ) ;
#673 = CARTESIAN_POINT ( 'NONE',  ( -19.02313769751694394, 11.99999999999999645, -2.630869074492099724 ) ) ;
#674 = ORIENTED_EDGE ( 'NONE', *, *, #308, .F. ) ;
#675 =( GEOMETRIC_REPRESENTATION_CONTEXT ( 3 ) GLOBAL_UNCERTAINTY_ASSIGNED_CONTEXT ( ( #742 ) ) GLOBAL_UNIT_ASSIGNED_CONTEXT ( ( #16, #34, #745 ) ) REPRESENTATION_CONTEXT ( 'NONE', 'WORKASPACE' ) );
#676 = CYLINDRICAL_SURFACE ( 'NONE', #708, 2.499999999999998668 ) ;
#677 = ORIENTED_EDGE ( 'NONE', *, *, #804, .F. ) ;
#678 = ORIENTED_EDGE ( 'NONE', *, *, #61, .F. ) ;
#679 = VECTOR ( 'NONE', #1, 1000.000000000000000 ) ;
#680 = EDGE_CURVE ( 'NONE', #178, #410, #626, .T. ) ;
#681 = AXIS2_PLACEMENT_3D ( 'NONE', #422, #737, #33 ) ;
#682 = FACE_BOUND ( 'NONE', #436, .T. ) ;
#683 = EDGE_LOOP ( 'NONE', ( #397, #164, #793, #892 ) ) ;
#684 = EDGE_CURVE ( 'NONE', #821, #649, #536, .T. ) ;
#685 = LINE ( 'NONE', #602, #395 ) ;
#686 = DIRECTION ( 'NONE',  ( 1.000000000000000000, 0.000000000000000000, -0.000000000000000000 ) ) ;
#687 = LINE ( 'NONE', #289, #728 ) ;
#688 = ADVANCED_FACE ( 'NONE', ( #604 ), #146, .F. ) ;
#689 = DIRECTION ( 'NONE',  ( -1.000000000000000000, 0.000000000000000000, -3.854941057726238467E-17 ) ) ;
#690 = DIRECTION ( 'NONE',  ( 1.000000000000000000, 0.000000000000000000, 0.000000000000000000 ) ) ;
#691 = AXIS2_PLACEMENT_3D ( 'NONE', #853, #718, #9 ) ;
#692 = VECTOR ( 'NONE', #964, 1000.000000000000000 ) ;
#693 = VECTOR ( 'NONE', #45, 1000.000000000000000 ) ;
#694 = LINE ( 'NONE', #287, #21 ) ;
#695 = CARTESIAN_POINT ( 'NONE',  ( -29.02313769751693684, 5.000000000000000000, -7.690135754659437772 ) ) ;
#696 = ADVANCED_FACE ( 'NONE', ( #159 ), #721, .T. ) ;
#697 = CYLINDRICAL_SURFACE ( 'NONE', #142, 1.500000000000001332 ) ;
#698 = FACE_OUTER_BOUND ( 'NONE', #483, .T. ) ;
#699 = ORIENTED_EDGE ( 'NONE', *, *, #680, .F. ) ;
#700 = DIRECTION ( 'NONE',  ( 1.000000000000000000, 0.000000000000000000, -0.000000000000000000 ) ) ;
#701 = CARTESIAN_POINT ( 'NONE',  ( -40.77313769751692263, 15.00000000000000000, 105.6941309255079062 ) ) ;
#702 = EDGE_CURVE ( 'NONE', #1007, #27, #865, .T. ) ;
#703 = DIRECTION ( 'NONE',  ( 0.000000000000000000, 1.000000000000000000, 0.000000000000000000 ) ) ;
#704 = ORIENTED_EDGE ( 'NONE', *, *, #322, .F. ) ;
#705 = DIRECTION ( 'NONE',  ( -0.000000000000000000, 1.000000000000000000, -0.000000000000000000 ) ) ;
#706 = CARTESIAN_POINT ( 'NONE',  ( 4.226862302483056943, 11.99999999999999645, -49.30586907449209377 ) ) ;
#707 = CIRCLE ( 'NONE', #253, 1.500000000000001332 ) ;
#708 = AXIS2_PLACEMENT_3D ( 'NONE', #190, #271, #778 ) ;
#709 = VECTOR ( 'NONE', #188, 1000.000000000000000 ) ;
#710 = CARTESIAN_POINT ( 'NONE',  ( -40.77313769751694394, 11.99999999999999645, -49.30586907449209377 ) ) ;
#711 = DIRECTION ( 'NONE',  ( 0.000000000000000000, 1.000000000000000000, 0.000000000000000000 ) ) ;
#712 = CARTESIAN_POINT ( 'NONE',  ( -36.02313769751692263, 0.000000000000000000, 100.9441309255079062 ) ) ;
#713 = VERTEX_POINT ( 'NONE', #877 ) ;
#714 = EDGE_LOOP ( 'NONE', ( #57, #408, #810, #435 ) ) ;
#715 = CARTESIAN_POINT ( 'NONE',  ( -29.02313769751693684, 5.000000000000004441, -2.630869074492097948 ) ) ;
#716 = ADVANCED_FACE ( 'NONE', ( #850 ), #228, .F. ) ;
#717 = CARTESIAN_POINT ( 'NONE',  ( 4.226862302483056943, 11.99999999999999645, -0.1308690744920952553 ) ) ;
#718 = DIRECTION ( 'NONE',  ( 0.000000000000000000, 1.000000000000000000, 0.000000000000000000 ) ) ;
#719 = ORIENTED_EDGE ( 'NONE', *, *, #156, .F. ) ;
#720 = LINE ( 'NONE', #176, #224 ) ;
#721 = CYLINDRICAL_SURFACE ( 'NONE', #863, 3.000000000000002665 ) ;
#722 = ORIENTED_EDGE ( 'NONE', *, *, #988, .T. ) ;
#723 = CARTESIAN_POINT ( 'NONE',  ( 43.72686230248306316, 5.000000000000000000, -48.80586907449209377 ) ) ;
#724 = ORIENTED_EDGE ( 'NONE', *, *, #525, .F. ) ;
#725 = ORIENTED_EDGE ( 'NONE', *, *, #907, .F. ) ;
#726 = AXIS2_PLACEMENT_3D ( 'NONE', #723, #873, #584 ) ;
#727 = FACE_OUTER_BOUND ( 'NONE', #205, .T. ) ;
#728 = VECTOR ( 'NONE', #923, 1000.000000000000000 ) ;
#729 = DIRECTION ( 'NONE',  ( 0.000000000000000000, 0.000000000000000000, -1.000000000000000000 ) ) ;
#730 = VECTOR ( 'NONE', #115, 1000.000000000000000 ) ;
#731 = CARTESIAN_POINT ( 'NONE',  ( 44.22686230248305606, 5.000000000000000000, -49.30586907449209377 ) ) ;
#732 = ORIENTED_EDGE ( 'NONE', *, *, #755, .F. ) ;
#733 = VERTEX_POINT ( 'NONE', #98 ) ;
#734 = LINE ( 'NONE', #902, #693 ) ;
#735 = DIRECTION ( 'NONE',  ( 0.000000000000000000, 1.000000000000000000, 0.000000000000000000 ) ) ;
#736 = ORIENTED_EDGE ( 'NONE', *, *, #274, .T. ) ;
#737 = DIRECTION ( 'NONE',  ( 0.000000000000000000, 1.000000000000000000, 0.000000000000000000 ) ) ;
#738 = DIRECTION ( 'NONE',  ( 1.000000000000000000, 0.000000000000000000, -1.301042606982605321E-16 ) ) ;
#739 = ORIENTED_EDGE ( 'NONE', *, *, #881, .T. ) ;
#740 = AXIS2_PLACEMENT_3D ( 'NONE', #74, #396, #938 ) ;
#741 = FACE_BOUND ( 'NONE', #977, .T. ) ;
#742 = UNCERTAINTY_MEASURE_WITH_UNIT (LENGTH_MEASURE( 1.000000000000000082E-05 ), #16, 'distance_accuracy_value', 'NONE');
#743 = AXIS2_PLACEMENT_3D ( 'NONE', #920, #99, #844 ) ;
#744 = VECTOR ( 'NONE', #954, 1000.000000000000000 ) ;
#745 =( NAMED_UNIT ( * ) SI_UNIT ( $, .STERADIAN. ) SOLID_ANGLE_UNIT ( ) );
#746 = EDGE_LOOP ( 'NONE', ( #441, #777, #678, #858 ) ) ;
#747 = EDGE_LOOP ( 'NONE', ( #283, #111 ) ) ;
#748 = EDGE_CURVE ( 'NONE', #900, #757, #177, .T. ) ;
#749 = LINE ( 'NONE', #667, #73 ) ;
#750 = LINE ( 'NONE', #922, #393 ) ;
#751 = ORIENTED_EDGE ( 'NONE', *, *, #959, .F. ) ;
#752 = ORIENTED_EDGE ( 'NONE', *, *, #623, .F. ) ;
#753 = CARTESIAN_POINT ( 'NONE',  ( -43.27313769751692973, 15.00000000000000000, -51.80586907449210088 ) ) ;
#754 = DIRECTION ( 'NONE',  ( -0.000000000000000000, -1.000000000000000000, -0.000000000000000000 ) ) ;
#755 = EDGE_CURVE ( 'NONE', #759, #170, #87, .T. ) ;
#756 = CARTESIAN_POINT ( 'NONE',  ( -40.27313769751692973, 15.00000000000000000, -51.80586907449210088 ) ) ;
#757 = VERTEX_POINT ( 'NONE', #646 ) ;
#758 = ORIENTED_EDGE ( 'NONE', *, *, #152, .T. ) ;
#759 = VERTEX_POINT ( 'NONE', #491 ) ;
#760 = AXIS2_PLACEMENT_3D ( 'NONE', #949, #328, #632 ) ;
#761 = PRODUCT_DEFINITION ( 'UNKNOWN', '', #225, #369 ) ;
#762 = DIRECTION ( 'NONE',  ( 0.000000000000000000, 1.000000000000000000, 0.000000000000000000 ) ) ;
#763 = VECTOR ( 'NONE', #640, 1000.000000000000000 ) ;
#764 = DIRECTION ( 'NONE',  ( -0.000000000000000000, 1.000000000000000000, -0.000000000000000000 ) ) ;
#765 = DIRECTION ( 'NONE',  ( 0.000000000000000000, 0.000000000000000000, -1.000000000000000000 ) ) ;
#766 =( LENGTH_UNIT ( ) NAMED_UNIT ( * ) SI_UNIT ( .MILLI., .METRE. ) );
#767 = EDGE_LOOP ( 'NONE', ( #18, #234, #644, #35 ) ) ;
#768 = ADVANCED_FACE ( 'NONE', ( #855 ), #155, .F. ) ;
#769 = DIRECTION ( 'NONE',  ( -1.000000000000000000, -0.000000000000000000, -0.000000000000000000 ) ) ;
#770 = FILL_AREA_STYLE_COLOUR ( '', #924 ) ;
#771 = AXIS2_PLACEMENT_3D ( 'NONE', #864, #405, #871 ) ;
#772 = CIRCLE ( 'NONE', #257, 3.000000000000002665 ) ;
#773 = LINE ( 'NONE', #75, #581 ) ;
#774 = LINE ( 'NONE', #151, #275 ) ;
#775 = EDGE_CURVE ( 'NONE', #935, #93, #165, .T. ) ;
#776 = CARTESIAN_POINT ( 'NONE',  ( -36.02313769751692263, 12.00000000000000000, 102.4441309255079062 ) ) ;
#777 = ORIENTED_EDGE ( 'NONE', *, *, #406, .F. ) ;
#778 = DIRECTION ( 'NONE',  ( 0.000000000000000000, 0.000000000000000000, -1.000000000000000000 ) ) ;
#779 = DIRECTION ( 'NONE',  ( -0.000000000000000000, -1.000000000000000000, -0.000000000000000000 ) ) ;
#780 = FACE_OUTER_BOUND ( 'NONE', #660, .T. ) ;
#781 = DIRECTION ( 'NONE',  ( 0.000000000000000000, 0.000000000000000000, -1.000000000000000000 ) ) ;
#782 = DIRECTION ( 'NONE',  ( 0.000000000000000000, 0.000000000000000000, -1.000000000000000000 ) ) ;
#783 = ORIENTED_EDGE ( 'NONE', *, *, #525, .T. ) ;
#784 = EDGE_CURVE ( 'NONE', #117, #353, #546, .T. ) ;
#785 = AXIS2_PLACEMENT_3D ( 'NONE', #621, #222, #386 ) ;
#786 = VECTOR ( 'NONE', #78, 1000.000000000000000 ) ;
#787 = PLANE ( 'NONE',  #83 ) ;
#788 = DIRECTION ( 'NONE',  ( 0.000000000000000000, 0.000000000000000000, 1.000000000000000000 ) ) ;
#789 = VERTEX_POINT ( 'NONE', #717 ) ;
#790 = CARTESIAN_POINT ( 'NONE',  ( -40.77313769751692263, 12.00000000000000000, 105.6941309255079062 ) ) ;
#791 = DIRECTION ( 'NONE',  ( 0.000000000000000000, 0.000000000000000000, -1.000000000000000000 ) ) ;
#792 = SURFACE_STYLE_USAGE ( .BOTH. , #381 ) ;
#793 = ORIENTED_EDGE ( 'NONE', *, *, #591, .F. ) ;
#794 = DIRECTION ( 'NONE',  ( 3.854941057726238467E-17, 0.000000000000000000, -1.000000000000000000 ) ) ;
#795 = DIRECTION ( 'NONE',  ( -0.000000000000000000, -1.000000000000000000, -0.000000000000000000 ) ) ;
#796 = DIRECTION ( 'NONE',  ( -0.000000000000000000, -0.000000000000000000, 1.000000000000000000 ) ) ;
#797 = DIRECTION ( 'NONE',  ( -1.000000000000000000, -0.000000000000000000, -0.000000000000000000 ) ) ;
#798 = ORIENTED_EDGE ( 'NONE', *, *, #181, .F. ) ;
#799 = ORIENTED_EDGE ( 'NONE', *, *, #808, .T. ) ;
#800 = CIRCLE ( 'NONE', #691, 3.000000000000002665 ) ;
#801 = DIRECTION ( 'NONE',  ( 1.000000000000000000, 0.000000000000000000, 0.000000000000000000 ) ) ;
#802 = CIRCLE ( 'NONE', #880, 2.559266680167342045 ) ;
#803 = DIRECTION ( 'NONE',  ( 0.000000000000000000, -0.000000000000000000, -1.000000000000000000 ) ) ;
#804 = EDGE_CURVE ( 'NONE', #93, #935, #611, .T. ) ;
#805 = ORIENTED_EDGE ( 'NONE', *, *, #414, .T. ) ;
#806 = EDGE_LOOP ( 'NONE', ( #101, #489, #575, #805, #969, #268, #636, #947 ) ) ;
#807 = FACE_OUTER_BOUND ( 'NONE', #455, .T. ) ;
#808 = EDGE_CURVE ( 'NONE', #358, #961, #497, .T. ) ;
#809 = FACE_OUTER_BOUND ( 'NONE', #277, .T. ) ;
#810 = ORIENTED_EDGE ( 'NONE', *, *, #983, .T. ) ;
#811 = DIRECTION ( 'NONE',  ( 0.000000000000000000, 1.000000000000000000, 0.000000000000000000 ) ) ;
#812 = DIRECTION ( 'NONE',  ( 0.000000000000000000, 1.000000000000000000, 0.000000000000000000 ) ) ;
#813 = VERTEX_POINT ( 'NONE', #706 ) ;
#814 = EDGE_CURVE ( 'NONE', #578, #564, #8, .T. ) ;
#815 = VECTOR ( 'NONE', #521, 1000.000000000000000 ) ;
#816 = DIRECTION ( 'NONE',  ( 0.000000000000000000, -0.000000000000000000, 1.000000000000000000 ) ) ;
#817 = VERTEX_POINT ( 'NONE', #304 ) ;
#818 = VECTOR ( 'NONE', #1003, 1000.000000000000000 ) ;
#819 = VECTOR ( 'NONE', #314, 1000.000000000000000 ) ;
#820 = DIRECTION ( 'NONE',  ( -1.000000000000000000, 0.000000000000000000, 1.790682297782510931E-16 ) ) ;
#821 = VERTEX_POINT ( 'NONE', #633 ) ;
#822 = ORIENTED_EDGE ( 'NONE', *, *, #114, .F. ) ;
#823 = PLANE ( 'NONE',  #450 ) ;
#824 = PLANE ( 'NONE',  #861 ) ;
#825 = CARTESIAN_POINT ( 'NONE',  ( -40.77313769751693684, 5.000000000000000000, -0.1308690744920970039 ) ) ;
#826 = VERTEX_POINT ( 'NONE', #627 ) ;
#827 = ORIENTED_EDGE ( 'NONE', *, *, #47, .T. ) ;
#828 = APPLICATION_PROTOCOL_DEFINITION ( 'draft international standard', 'automotive_design', 1998, #389 ) ;
#829 = LINE ( 'NONE', #288, #19 ) ;
#830 = LINE ( 'NONE', #545, #323 ) ;
#831 = EDGE_LOOP ( 'NONE', ( #751, #361, #719, #869 ) ) ;
#832 = VERTEX_POINT ( 'NONE', #928 ) ;
#833 = CIRCLE ( 'NONE', #391, 2.499999999999998668 ) ;
#834 = EDGE_CURVE ( 'NONE', #410, #178, #479, .T. ) ;
#835 = VECTOR ( 'NONE', #993, 1000.000000000000000 ) ;
#836 = CARTESIAN_POINT ( 'NONE',  ( -29.02313769751693684, 5.000000000000000000, -2.571602394324754570 ) ) ;
#837 = DIRECTION ( 'NONE',  ( 1.343011723336882952E-16, 0.000000000000000000, 1.000000000000000000 ) ) ;
#838 = FILL_AREA_STYLE ('',( #770 ) ) ;
#839 = EDGE_CURVE ( 'NONE', #93, #117, #309, .T. ) ;
#840 = DIRECTION ( 'NONE',  ( -0.000000000000000000, -1.000000000000000000, -0.000000000000000000 ) ) ;
#841 = CARTESIAN_POINT ( 'NONE',  ( 43.72686230248308448, 15.00000000000000000, 108.1941309255079062 ) ) ;
#842 = DIRECTION ( 'NONE',  ( 0.000000000000000000, 0.000000000000000000, 1.000000000000000000 ) ) ;
#843 = AXIS2_PLACEMENT_3D ( 'NONE', #418, #502, #619 ) ;
#844 = DIRECTION ( 'NONE',  ( -1.000000000000000000, 0.000000000000000000, -0.000000000000000000 ) ) ;
#845 =( GEOMETRIC_REPRESENTATION_CONTEXT ( 3 ) GLOBAL_UNCERTAINTY_ASSIGNED_CONTEXT ( ( #189 ) ) GLOBAL_UNIT_ASSIGNED_CONTEXT ( ( #766, #62, #463 ) ) REPRESENTATION_CONTEXT ( 'NONE', 'WORKASPACE' ) );
#846 = EDGE_CURVE ( 'NONE', #935, #353, #937, .T. ) ;
#847 = LINE ( 'NONE', #968, #692 ) ;
#848 = DIRECTION ( 'NONE',  ( 1.000000000000000000, 0.000000000000000000, 3.854941057726238467E-17 ) ) ;
#849 = CARTESIAN_POINT ( 'NONE',  ( 43.72686230248306316, 5.000000000000000000, -51.80586907449210088 ) ) ;
#850 = FACE_OUTER_BOUND ( 'NONE', #590, .T. ) ;
#851 = EDGE_CURVE ( 'NONE', #868, #109, #897, .T. ) ;
#852 = ADVANCED_FACE ( 'NONE', ( #567, #335, #967 ), #340, .F. ) ;
#853 = CARTESIAN_POINT ( 'NONE',  ( 43.72686230248308448, 15.00000000000000000, 105.1941309255079062 ) ) ;
#854 = DIRECTION ( 'NONE',  ( -0.000000000000000000, -1.000000000000000000, -0.000000000000000000 ) ) ;
#855 = FACE_OUTER_BOUND ( 'NONE', #585, .T. ) ;
#856 = EDGE_CURVE ( 'NONE', #324, #961, #252, .T. ) ;
#857 = LINE ( 'NONE', #470, #909 ) ;
#858 = ORIENTED_EDGE ( 'NONE', *, *, #671, .T. ) ;
#859 = ORIENTED_EDGE ( 'NONE', *, *, #702, .F. ) ;
#860 = ORIENTED_EDGE ( 'NONE', *, *, #325, .T. ) ;
#861 = AXIS2_PLACEMENT_3D ( 'NONE', #264, #130, #686 ) ;
#862 = VECTOR ( 'NONE', #67, 1000.000000000000000 ) ;
#863 = AXIS2_PLACEMENT_3D ( 'NONE', #932, #413, #729 ) ;
#864 = CARTESIAN_POINT ( 'NONE',  ( -29.02313769751693684, 5.000000000000000000, -5.130869074492096615 ) ) ;
#865 = LINE ( 'NONE', #549, #912 ) ;
#866 = DIRECTION ( 'NONE',  ( 0.000000000000000000, 0.000000000000000000, 1.000000000000000000 ) ) ;
#867 = ORIENTED_EDGE ( 'NONE', *, *, #702, .T. ) ;
#868 = VERTEX_POINT ( 'NONE', #655 ) ;
#869 = ORIENTED_EDGE ( 'NONE', *, *, #919, .F. ) ;
#870 = EDGE_CURVE ( 'NONE', #965, #170, #347, .T. ) ;
#871 = DIRECTION ( 'NONE',  ( 0.000000000000000000, 0.000000000000000000, 1.000000000000000000 ) ) ;
#872 = DIRECTION ( 'NONE',  ( 0.000000000000000000, 0.000000000000000000, -1.000000000000000000 ) ) ;
#873 = DIRECTION ( 'NONE',  ( 0.000000000000000000, -1.000000000000000000, 0.000000000000000000 ) ) ;
#874 = ORIENTED_EDGE ( 'NONE', *, *, #583, .F. ) ;
#875 = CARTESIAN_POINT ( 'NONE',  ( 5.044925684462121784E-18, 78.65718734690204883, -0.1308690744920954219 ) ) ;
#876 = ADVANCED_FACE ( 'NONE', ( #180 ), #503, .T. ) ;
#877 = CARTESIAN_POINT ( 'NONE',  ( -43.27313769751692973, 15.00000000000000000, 105.1941309255079062 ) ) ;
#878 = LINE ( 'NONE', #499, #238 ) ;
#879 = ORIENTED_EDGE ( 'NONE', *, *, #583, .T. ) ;
#880 = AXIS2_PLACEMENT_3D ( 'NONE', #235, #90, #230 ) ;
#881 = EDGE_CURVE ( 'NONE', #10, #404, #592, .T. ) ;
#882 = CARTESIAN_POINT ( 'NONE',  ( 44.22686230248305606, 5.000000000000000000, -49.30586907449209377 ) ) ;
#883 = AXIS2_PLACEMENT_3D ( 'NONE', #2, #791, #92 ) ;
#884 = CARTESIAN_POINT ( 'NONE',  ( -29.02313769751693684, 5.000000000000004441, -7.630869074492094839 ) ) ;
#885 = ORIENTED_EDGE ( 'NONE', *, *, #362, .F. ) ;
#886 = DIRECTION ( 'NONE',  ( -0.000000000000000000, -1.000000000000000000, -0.000000000000000000 ) ) ;
#887 = EDGE_LOOP ( 'NONE', ( #941, #885, #595, #524 ) ) ;
#888 = ADVANCED_FACE ( 'NONE', ( #807 ), #894, .F. ) ;
#889 = ORIENTED_EDGE ( 'NONE', *, *, #598, .F. ) ;
#890 = FACE_OUTER_BOUND ( 'NONE', #320, .T. ) ;
#891 = DIRECTION ( 'NONE',  ( -1.343011723336882952E-16, 0.000000000000000000, -1.000000000000000000 ) ) ;
#892 = ORIENTED_EDGE ( 'NONE', *, *, #856, .F. ) ;
#893 = EDGE_CURVE ( 'NONE', #821, #508, #419, .T. ) ;
#894 = CYLINDRICAL_SURFACE ( 'NONE', #365, 1.500000000000001332 ) ;
#895 = LINE ( 'NONE', #198, #815 ) ;
#896 = VECTOR ( 'NONE', #796, 1000.000000000000000 ) ;
#897 = CIRCLE ( 'NONE', #562, 3.000000000000002665 ) ;
#898 = DIRECTION ( 'NONE',  ( -0.000000000000000000, -1.000000000000000000, -0.000000000000000000 ) ) ;
#899 = EDGE_LOOP ( 'NONE', ( #66, #677 ) ) ;
#900 = VERTEX_POINT ( 'NONE', #105 ) ;
#901 = EDGE_CURVE ( 'NONE', #500, #826, #990, .T. ) ;
#902 = CARTESIAN_POINT ( 'NONE',  ( -40.77313769751694394, 5.000000000000000000, -49.30586907449209377 ) ) ;
#903 = ORIENTED_EDGE ( 'NONE', *, *, #919, .T. ) ;
#904 = CARTESIAN_POINT ( 'NONE',  ( -43.27313769751692973, 15.00000000000000000, -51.80586907449210088 ) ) ;
#905 = DIRECTION ( 'NONE',  ( -0.000000000000000000, -1.000000000000000000, -0.000000000000000000 ) ) ;
#906 = ORIENTED_EDGE ( 'NONE', *, *, #208, .F. ) ;
#907 = EDGE_CURVE ( 'NONE', #280, #832, #734, .T. ) ;
#908 = PRODUCT_CONTEXT ( 'NONE', #389, 'mechanical' ) ;
#909 = VECTOR ( 'NONE', #996, 1000.000000000000000 ) ;
#910 = CARTESIAN_POINT ( 'NONE',  ( -29.02313769751693684, 5.000000000000004441, -5.130869074492096615 ) ) ;
#911 = AXIS2_PLACEMENT_3D ( 'NONE', #13, #22, #318 ) ;
#912 = VECTOR ( 'NONE', #485, 1000.000000000000000 ) ;
#913 = ORIENTED_EDGE ( 'NONE', *, *, #251, .T. ) ;
#914 = ADVANCED_FACE ( 'NONE', ( #960, #586 ), #259, .F. ) ;
#915 = PLANE ( 'NONE',  #958 ) ;
#916 = DIRECTION ( 'NONE',  ( 0.000000000000000000, 1.000000000000000000, 0.000000000000000000 ) ) ;
#917 = LINE ( 'NONE', #1000, #258 ) ;
#918 = DIRECTION ( 'NONE',  ( 0.000000000000000000, 0.000000000000000000, -1.000000000000000000 ) ) ;
#919 = EDGE_CURVE ( 'NONE', #672, #10, #357, .T. ) ;
#920 = CARTESIAN_POINT ( 'NONE',  ( -40.77313769751692263, 15.00000000000000000, 105.6941309255079062 ) ) ;
#921 = CARTESIAN_POINT ( 'NONE',  ( -36.02313769751692263, 0.000000000000000000, 99.44413092550789202 ) ) ;
#922 = CARTESIAN_POINT ( 'NONE',  ( -19.02313769751694394, 78.65718734690204883, -7.630869074492096615 ) ) ;
#923 = DIRECTION ( 'NONE',  ( -0.000000000000000000, -1.000000000000000000, -0.000000000000000000 ) ) ;
#924 = COLOUR_RGB ( '',0.7921568627450980005, 0.8196078431372548767, 0.9333333333333333481 ) ;
#925 = CIRCLE ( 'NONE', #498, 2.499999999999998224 ) ;
#926 = CARTESIAN_POINT ( 'NONE',  ( 43.72686230248303474, 0.000000000000000000, -51.80586907449210088 ) ) ;
#927 = CARTESIAN_POINT ( 'NONE',  ( -40.27313769751692973, 15.00000000000000000, -51.80586907449210088 ) ) ;
#928 = CARTESIAN_POINT ( 'NONE',  ( -40.77313769751692263, 5.000000000000000000, 97.44413092550790623 ) ) ;
#929 = CARTESIAN_POINT ( 'NONE',  ( 0.000000000000000000, 11.99999999999999645, -49.30586907449209377 ) ) ;
#930 = EDGE_LOOP ( 'NONE', ( #643, #398 ) ) ;
#931 = ADVANCED_FACE ( 'NONE', ( #426, #963, #741, #520, #890 ), #823, .F. ) ;
#932 = CARTESIAN_POINT ( 'NONE',  ( -40.27313769751690842, 5.000000000000000000, 105.1941309255079062 ) ) ;
#933 = CYLINDRICAL_SURFACE ( 'NONE', #342, 2.499999999999998668 ) ;
#934 = ORIENTED_EDGE ( 'NONE', *, *, #834, .F. ) ;
#935 = VERTEX_POINT ( 'NONE', #433 ) ;
#936 = CARTESIAN_POINT ( 'NONE',  ( 44.22686230248308448, 15.00000000000000000, 105.6941309255079062 ) ) ;
#937 = LINE ( 'NONE', #236, #143 ) ;
#938 = DIRECTION ( 'NONE',  ( 0.000000000000000000, 0.000000000000000000, -1.000000000000000000 ) ) ;
#939 = ORIENTED_EDGE ( 'NONE', *, *, #362, .T. ) ;
#940 = EDGE_CURVE ( 'NONE', #89, #1007, #749, .T. ) ;
#941 = ORIENTED_EDGE ( 'NONE', *, *, #128, .F. ) ;
#942 = VECTOR ( 'NONE', #550, 1000.000000000000000 ) ;
#943 = AXIS2_PLACEMENT_3D ( 'NONE', #594, #468, #891 ) ;
#944 = AXIS2_PLACEMENT_3D ( 'NONE', #910, #779, #981 ) ;
#945 = CYLINDRICAL_SURFACE ( 'NONE', #256, 2.499999999999998668 ) ;
#946 = DIRECTION ( 'NONE',  ( -0.000000000000000000, -1.000000000000000000, -0.000000000000000000 ) ) ;
#947 = ORIENTED_EDGE ( 'NONE', *, *, #851, .T. ) ;
#948 = EDGE_CURVE ( 'NONE', #672, #713, #437, .T. ) ;
#949 = CARTESIAN_POINT ( 'NONE',  ( -40.27313769751690842, 15.00000000000000000, 105.1941309255079062 ) ) ;
#950 = CARTESIAN_POINT ( 'NONE',  ( 39.47686230248309158, 12.00000000000000000, 100.9441309255079062 ) ) ;
#951 = ORIENTED_EDGE ( 'NONE', *, *, #881, .F. ) ;
#952 = FACE_OUTER_BOUND ( 'NONE', #683, .T. ) ;
#953 = VERTEX_POINT ( 'NONE', #673 ) ;
#954 = DIRECTION ( 'NONE',  ( -1.790682297782510684E-16, -0.000000000000000000, -1.000000000000000000 ) ) ;
#955 = DIRECTION ( 'NONE',  ( -0.000000000000000000, -0.000000000000000000, -1.000000000000000000 ) ) ;
#956 = ORIENTED_EDGE ( 'NONE', *, *, #748, .F. ) ;
#957 = VECTOR ( 'NONE', #400, 1000.000000000000000 ) ;
#958 = AXIS2_PLACEMENT_3D ( 'NONE', #292, #217, #529 ) ;
#959 = EDGE_CURVE ( 'NONE', #481, #672, #772, .T. ) ;
#960 = FACE_OUTER_BOUND ( 'NONE', #118, .T. ) ;
#961 = VERTEX_POINT ( 'NONE', #368 ) ;
#962 = EDGE_LOOP ( 'NONE', ( #49, #976, #11, #966 ) ) ;
#963 = FACE_BOUND ( 'NONE', #635, .T. ) ;
#964 = DIRECTION ( 'NONE',  ( 0.000000000000000000, 0.000000000000000000, 1.000000000000000000 ) ) ;
#965 = VERTEX_POINT ( 'NONE', #294 ) ;
#966 = ORIENTED_EDGE ( 'NONE', *, *, #784, .F. ) ;
#967 = FACE_BOUND ( 'NONE', #899, .T. ) ;
#968 = CARTESIAN_POINT ( 'NONE',  ( 4.226862302483056943, 11.99999999999999645, 0.000000000000000000 ) ) ;
#969 = ORIENTED_EDGE ( 'NONE', *, *, #322, .T. ) ;
#970 = VERTEX_POINT ( 'NONE', #921 ) ;
#971 = ADVANCED_FACE ( 'NONE', ( #682, #979, #541 ), #282, .F. ) ;
#972 = DIRECTION ( 'NONE',  ( 0.000000000000000000, -1.000000000000000000, 0.000000000000000000 ) ) ;
#973 = VECTOR ( 'NONE', #797, 1000.000000000000000 ) ;
#974 = AXIS2_PLACEMENT_3D ( 'NONE', #373, #612, #451 ) ;
#975 = CARTESIAN_POINT ( 'NONE',  ( -36.02313769751692263, 12.00000000000000000, 99.44413092550789202 ) ) ;
#976 = ORIENTED_EDGE ( 'NONE', *, *, #804, .T. ) ;
#977 = EDGE_LOOP ( 'NONE', ( #939, #601 ) ) ;
#978 = EDGE_CURVE ( 'NONE', #565, #4, #69, .T. ) ;
#979 = FACE_BOUND ( 'NONE', #930, .T. ) ;
#980 = ORIENTED_EDGE ( 'NONE', *, *, #384, .F. ) ;
#981 = DIRECTION ( 'NONE',  ( 0.000000000000000000, 0.000000000000000000, 1.000000000000000000 ) ) ;
#982 = ORIENTED_EDGE ( 'NONE', *, *, #544, .F. ) ;
#983 = EDGE_CURVE ( 'NONE', #40, #178, #773, .T. ) ;
#984 = FACE_OUTER_BOUND ( 'NONE', #29, .T. ) ;
#985 = DIRECTION ( 'NONE',  ( -0.000000000000000000, -1.000000000000000000, -0.000000000000000000 ) ) ;
#986 = LINE ( 'NONE', #383, #150 ) ;
#987 = CLOSED_SHELL ( 'NONE', ( #302, #65, #768, #888, #688, #334, #286, #570, #281, #232, #716, #876, #1010, #931, #221, #548, #852, #24, #44, #614, #399, #425, #339, #496, #971, #462, #202, #144, #696, #914, #634 ) ) ;
#988 = EDGE_CURVE ( 'NONE', #96, #508, #615, .T. ) ;
#989 = AXIS2_PLACEMENT_3D ( 'NONE', #25, #735, #658 ) ;
#990 = CIRCLE ( 'NONE', #681, 1.500000000000001332 ) ;
#991 = CARTESIAN_POINT ( 'NONE',  ( -40.27313769751690842, 0.000000000000000000, 108.1941309255079062 ) ) ;
#992 = CARTESIAN_POINT ( 'NONE',  ( 43.72686230248306316, 0.000000000000000000, -48.80586907449209377 ) ) ;
#993 = DIRECTION ( 'NONE',  ( -0.000000000000000000, -1.000000000000000000, -0.000000000000000000 ) ) ;
#994 = PRODUCT_DEFINITION_SHAPE ( 'NONE', 'NONE',  #761 ) ;
#995 = EDGE_CURVE ( 'NONE', #528, #900, #694, .T. ) ;
#996 = DIRECTION ( 'NONE',  ( -0.000000000000000000, -1.000000000000000000, -0.000000000000000000 ) ) ;
#997 = CARTESIAN_POINT ( 'NONE',  ( -36.02313769751692263, 0.000000000000000000, 102.4441309255079062 ) ) ;
#998 = CARTESIAN_POINT ( 'NONE',  ( 0.000000000000000000, 12.00000000000000000, 0.000000000000000000 ) ) ;
#999 = CARTESIAN_POINT ( 'NONE',  ( -29.02313769751693684, 11.99999999999999645, -5.130869074492096615 ) ) ;
#1000 = CARTESIAN_POINT ( 'NONE',  ( 5.044925684462121784E-18, 5.000000000000000000, -0.1308690744920954219 ) ) ;
#1001 = LINE ( 'NONE', #301, #942 ) ;
#1002 = EDGE_CURVE ( 'NONE', #96, #280, #685, .T. ) ;
#1003 = DIRECTION ( 'NONE',  ( 0.000000000000000000, -1.000000000000000000, 0.000000000000000000 ) ) ;
#1004 = CARTESIAN_POINT ( 'NONE',  ( -43.27313769751692973, 0.000000000000000000, -51.80586907449210088 ) ) ;
#1005 = AXIS2_PLACEMENT_3D ( 'NONE', #664, #427, #504 ) ;
#1006 = CARTESIAN_POINT ( 'NONE',  ( -40.27313769751690842, 15.00000000000000000, 108.1941309255079062 ) ) ;
#1007 = VERTEX_POINT ( 'NONE', #991 ) ;
#1008 = AXIS2_PLACEMENT_3D ( 'NONE', #647, #573, #131 ) ;
#1009 = AXIS2_PLACEMENT_3D ( 'NONE', #998, #526, #378 ) ;
#1010 = ADVANCED_FACE ( 'NONE', ( #984 ), #915, .T. ) ;
ENDSEC;
END-ISO-10303-21;
